<svg xmlns="http://www.w3.org/2000/svg" width="200" height="29" viewBox="0 0 200 29" fill="none">
  <path d="M25.4538 28.2163V0.406494H31.7882V28.2163H25.4538ZM148.59 17.8263C148.59 11.1054 143.376 6.93404 137.273 6.93404C131.132 6.93404 125.956 11.1441 125.956 17.8263C125.956 24.5469 131.17 28.7572 137.273 28.7572C143.376 28.7572 148.59 24.5083 148.59 17.8263ZM142.333 17.8263C142.333 21.3412 139.977 23.311 137.234 23.311C134.492 23.311 132.136 21.3412 132.136 17.8263C132.136 14.2728 134.492 12.3801 137.234 12.3801C139.977 12.3801 142.333 14.2728 142.333 17.8263ZM22.9045 20.2211C22.9045 17.0923 21.2824 14.6976 18.3856 13.6161C21.1279 12.1097 22.0936 10.14 22.0936 7.82248C22.0936 3.76669 19.1579 0.406497 12.5918 0.445114H0V28.2549H13.1324C19.7374 28.2163 22.9045 24.9334 22.9045 20.2211ZM15.3727 8.63345C15.3727 10.5262 14.1753 11.6077 11.8578 11.6077H6.60487V5.8139H11.8578C13.9822 5.8139 15.3727 6.74096 15.3727 8.63345ZM15.9522 19.7961C15.9522 21.6115 14.6776 22.8089 12.3215 22.8089H6.60487V16.7834H12.3215C14.6001 16.7834 15.9522 17.9422 15.9522 19.7961ZM78.061 12.612C76.3228 8.98125 73.0784 6.97266 68.173 6.97266C62.3792 6.97266 57.2035 10.6034 57.2035 17.8263C57.2035 24.8559 61.7614 28.7572 68.0958 28.7572C72.5375 28.7572 76.2841 26.9803 78.061 23.1565L72.9626 20.53C72.0355 22.2294 70.6064 23.311 68.3275 23.311C65.3921 23.311 63.4994 21.2251 63.4994 17.8263C63.4994 14.4273 65.6624 12.3801 68.2889 12.3801C70.3361 12.3801 71.881 13.3071 72.8467 15.3157L78.061 12.612ZM171.417 12.612C169.679 8.98125 166.435 6.97266 161.529 6.97266C155.736 6.97266 150.56 10.6034 150.56 17.8263C150.56 24.8559 155.118 28.7572 161.452 28.7572C165.894 28.7572 169.641 26.9803 171.417 23.1565L166.319 20.53C165.392 22.2294 163.963 23.311 161.684 23.311C158.748 23.311 156.856 21.2251 156.856 17.8263C156.856 14.4273 159.019 12.3801 161.645 12.3801C163.692 12.3801 165.237 13.3071 166.203 15.3157L171.417 12.612ZM118.308 28.2163L113.017 18.8692H108.961V28.2163H102.433V0.406494H114.214C120.587 0.406494 125.029 3.45775 125.029 9.44465C125.029 13.2685 123.136 15.9722 119.776 17.6332L125.879 28.2163H118.308ZM109 13.3457H113.866C116.879 13.3457 118.347 11.6463 118.347 9.63774C118.347 7.24298 116.956 5.92975 113.866 5.92975H109V13.3457ZM56.1606 27.8688V23.504C55.8903 23.5813 55.5041 23.6585 55.0791 23.6585C54.2681 23.6585 53.8431 23.2337 53.8431 22.5V15.2771C53.8431 9.86945 50.2123 7.01128 44.2254 7.01128C40.3244 7.01128 37.0028 8.44037 34.917 10.2945L38.4319 14.2342C39.8223 12.9982 41.6762 12.2256 43.4917 12.2256C46.2727 12.2256 47.5859 13.6161 47.5859 15.895V16.5517C46.2726 16.2425 44.6119 15.9336 42.6033 15.9336C37.5434 15.9336 34.2602 18.367 34.2602 22.3839C34.2602 26.5169 37.0028 28.68 41.2514 28.68C44.1482 28.68 46.7361 27.4826 48.0881 25.9374C48.8991 27.9846 50.676 28.5253 52.414 28.5253C53.6114 28.5639 55.0019 28.3708 56.1606 27.8688ZM47.6245 21.3412C47.6245 23.2337 45.8092 24.4697 43.7234 24.4697C41.7534 24.4697 40.788 23.4654 40.788 22.075C40.788 20.6073 41.8695 19.5257 44.071 19.5257C45.4228 19.5257 46.6202 19.7574 47.6245 19.9891V21.3412ZM194.052 28.2163L186.597 15.2771L193.588 7.66801H186.559L179.181 15.8563V0.445114H172.885V28.2549H179.181V23.2337L182.194 20.028L186.906 28.2549H194.052V28.2163ZM100.772 28.2163L93.3178 15.2771L100.309 7.66801H93.2019L85.9018 15.8563V0.445114H79.606V28.2549H85.9018V23.2337L88.9147 20.028L93.6267 28.2549H100.772V28.2163ZM197.914 24.3539C199.227 24.3539 200 25.1651 200 26.4011C200 27.6371 199.227 28.448 197.914 28.448C196.601 28.448 195.828 27.6371 195.828 26.4011C195.828 25.1651 196.601 24.3539 197.914 24.3539ZM197.914 28.1777C198.957 28.1777 199.652 27.5598 199.652 26.4011C199.652 25.2423 198.918 24.6242 197.914 24.6242C196.871 24.6242 196.176 25.2423 196.176 26.4011C196.137 27.5984 196.871 28.1777 197.914 28.1777ZM197.103 25.3582H197.953C198.455 25.3582 198.725 25.6285 198.725 26.0147C198.725 26.3625 198.571 26.5555 198.3 26.6714L198.687 27.4051H198.3L197.953 26.7486H197.489V27.4051H197.103V25.3582ZM197.489 25.6671V26.4011H197.914C198.185 26.4011 198.339 26.3238 198.339 26.0533C198.339 25.8216 198.223 25.7057 197.953 25.7057H197.489V25.6671Z" fill="#29233B"/>
</svg>