<svg xmlns="http://www.w3.org/2000/svg" width="200" height="33" viewBox="0 0 200 33" fill="none">
  <mask id="mask0_39_556" style="mask-type:luminance" maskUnits="userSpaceOnUse" x="0" y="0" width="200" height="33">
    <path d="M200 0.517334H0V32.6462H200V0.517334Z" fill="white"/>
  </mask>
  <g mask="url(#mask0_39_556)">
    <path d="M75.9367 9.97272H77.6898V19.7701L69.6883 8.82885H65.6903V9.97272H67.3419L67.8872 10.7476V23.1322H66.1393V24.2812H71.0781V23.1322H69.3409V12.7147L77.9305 24.5378H79.1331V9.96727H80.8542V8.82339H75.9367V9.96727V9.97272ZM57.3092 22.9556H55.3318V16.9373H57.3092C59.3672 16.9373 60.698 18.1666 60.698 20.0693C60.698 22.1968 58.8753 22.9556 57.3092 22.9556ZM55.3318 10.181H57.2292C58.2339 10.181 59.9177 10.5284 59.9177 12.8323C59.9177 14.7459 58.5011 15.6062 57.1009 15.6062H55.3318V10.1864V10.181ZM59.7788 16.1248C61.2433 15.708 62.617 14.5641 62.617 12.736C62.617 10.3628 60.853 8.82885 58.1217 8.82885H51.0289V9.97272H52.7501V23.1267H51.0289V24.2812H58.5279C61.4197 24.2812 63.3545 22.6349 63.3545 20.1817C63.3545 17.7283 61.6121 16.5202 59.784 16.1248M91.4052 9.97272H93.3829L90.0637 15.4514L86.4931 9.97272H88.2836V8.82885H82.0407V9.97272H83.4305L88.1288 17.199V23.1267H86.4077V24.2812H92.4369V23.1267H90.6944V17.0601L95.0399 9.97272H96.2905V8.82885H91.4V9.97272H91.4052ZM164.589 22.9556H159.495V9.97272H161.216V8.82885H155.187V9.97272H156.919V23.1267H155.187V24.2812H165.936V20.9246H164.589V22.9504V22.9556ZM151.344 22.9556H146.261V9.97272H147.988V8.82885H141.948V9.97272H143.674V23.1267H141.948V24.2812H152.696V20.9246H151.339V22.9504L151.344 22.9556ZM114.688 19.941L109.482 8.83404H105.169V9.97793H106.911V23.1322H105.169V24.2867H110.102V23.1322H108.36V12.4101L114.122 24.725L119.595 12.6825V23.1322H117.874V24.2867H123.903V23.1322H122.176V9.97793H123.903V8.83404H119.803L114.683 19.941H114.688ZM175.188 23.0893C172.323 23.0893 170.324 20.4009 170.324 16.5576C170.324 12.7147 172.34 10.0475 175.215 10.0475C178.091 10.0475 179.988 12.7199 179.988 16.5576C179.988 20.3954 178.016 23.0893 175.188 23.0893ZM175.188 8.55619C170.945 8.55619 167.492 12.1587 167.492 16.5844C167.492 21.0101 170.95 24.5858 175.188 24.5858C179.427 24.5858 182.821 20.9833 182.821 16.5576C182.821 12.132 179.4 8.55098 175.188 8.55098M195.093 8.82885V9.97272H196.836V19.7701L188.845 8.82885H184.836V9.97272H186.493L187.044 10.7476V23.1267H185.301V24.2812H190.235V23.1267H188.487V12.7147L197.076 24.5378H198.284V9.96727H200.005V8.82339H195.088L195.093 8.82885ZM136.849 22.9556H131.498V17.0923H135.539V18.8506H136.897V14.0242H135.539V15.7612H131.498V10.1758H136.64V12.1319H137.971V8.17679H136.619V8.82339H127.196V9.96727H128.911V23.1215H127.196V24.276H138.206V20.9192H136.849V22.9449V22.9556ZM0 32.6462C0 32.6462 2.08456 25.8687 8.93154 18.5566C11.9675 20.8924 15.6288 23.0091 19.9743 24.8372L0 32.6462ZM21.3802 24.2384C17.1469 21.9187 13.6833 19.2354 10.8771 16.5363C13.6833 13.8318 17.1469 11.1485 21.3802 8.82885L41.0871 16.5363L21.3802 24.2384ZM19.9743 8.32637C15.6288 10.149 11.9675 12.2763 8.93154 14.6067C2.08456 7.30012 0 0.517334 0 0.517334L19.9743 8.32637Z" fill="#29233B"/>
  </g>
</svg>