<svg width="520" height="549" viewBox="0 0 520 549" fill="none" xmlns="http://www.w3.org/2000/svg">
<g opacity="0.1">
<path fill-rule="evenodd" clip-rule="evenodd" d="M569.211 362.58C643.124 352.118 721.79 302.885 783.864 344.35C849.812 388.402 874.71 480.527 863.26 559.003C852.818 630.575 776.787 664.521 729.203 718.994C674.873 781.19 650.412 880.578 569.211 895.627C482.363 911.723 386.827 864.325 336.424 791.79C290.392 725.547 320.926 638.38 335.296 559.003C346.219 498.666 360.831 437.012 407.789 397.581C451.621 360.774 512.54 370.602 569.211 362.58Z" stroke="#1E2761"/>
<path fill-rule="evenodd" clip-rule="evenodd" d="M572.09 398.566C635.335 389.621 702.648 347.527 755.763 382.979C812.193 420.643 833.498 499.408 823.701 566.504C814.765 627.697 749.707 656.72 708.991 703.294C662.502 756.47 641.571 841.446 572.09 854.313C497.776 868.074 416.028 827.549 372.899 765.533C333.511 708.896 359.638 634.37 371.934 566.504C381.281 514.916 393.784 462.204 433.965 428.491C471.471 397.022 523.598 405.424 572.09 398.566Z" stroke="#1E2761"/>
<path fill-rule="evenodd" clip-rule="evenodd" d="M574.159 424.052C629.666 416.17 688.742 379.079 735.358 410.318C784.882 443.505 803.581 512.909 794.982 572.03C787.14 625.95 730.043 651.524 694.308 692.562C653.508 739.419 635.138 814.294 574.159 825.632C508.938 837.758 437.193 802.049 399.342 747.404C364.773 697.499 387.703 631.83 398.495 572.03C406.698 526.574 417.671 480.126 452.935 450.42C485.852 422.691 531.6 430.095 574.159 424.052Z" stroke="#1E2761"/>
<path fill-rule="evenodd" clip-rule="evenodd" d="M576.228 450.417C623.996 443.635 674.835 411.719 714.952 438.599C757.572 467.155 773.663 526.875 766.264 577.747C759.515 624.143 710.378 646.148 679.626 681.461C644.514 721.779 628.706 786.207 576.228 795.962C520.101 806.397 458.358 775.671 425.785 728.65C396.036 685.708 415.769 629.202 425.056 577.747C432.115 538.633 441.558 498.667 471.906 473.106C500.233 449.246 539.603 455.617 576.228 450.417Z" stroke="#1E2761"/>
<path fill-rule="evenodd" clip-rule="evenodd" d="M578.155 475.024C618.717 469.268 661.888 442.183 695.954 464.995C732.145 489.229 745.809 539.91 739.525 583.082C733.795 622.457 692.07 641.131 665.956 671.099C636.141 705.315 622.716 759.992 578.155 768.271C530.493 777.126 478.064 751.05 450.404 711.147C425.142 674.704 441.899 626.75 449.785 583.082C455.779 549.889 463.798 515.971 489.568 494.279C513.623 474.03 547.054 479.437 578.155 475.024Z" stroke="#1E2761"/>
<path fill-rule="evenodd" clip-rule="evenodd" d="M567.167 334.411C648.826 322.79 735.735 268.102 804.315 314.161C877.173 363.093 904.681 465.423 892.031 552.593C880.495 632.094 796.496 669.8 743.925 730.308C683.902 799.394 656.877 909.792 567.167 926.509C471.217 944.388 365.669 891.738 309.984 811.168C259.128 737.586 292.862 640.763 308.738 552.593C320.805 485.572 336.949 417.089 388.828 373.289C437.253 332.405 504.556 343.321 567.167 334.411Z" stroke="#1E2761"/>
<path fill-rule="evenodd" clip-rule="evenodd" d="M564.812 303.652C655.277 290.748 751.56 230.022 827.535 281.166C908.251 335.501 938.725 449.129 924.711 545.924C911.93 634.202 818.872 676.071 760.632 743.26C694.136 819.974 664.197 942.561 564.812 961.123C458.515 980.976 341.584 922.514 279.894 833.048C223.553 751.342 260.925 643.828 278.513 545.924C291.883 471.502 309.767 395.458 367.241 346.823C420.889 301.425 495.45 313.546 564.812 303.652Z" stroke="#1E2761"/>
<path fill-rule="evenodd" clip-rule="evenodd" d="M562.386 272.014C661.925 257.791 767.863 190.854 851.459 247.229C940.27 307.121 973.801 432.37 958.382 539.064C944.319 636.371 841.928 682.522 777.846 756.582C704.681 841.142 671.738 976.266 562.386 996.727C445.428 1018.61 316.769 954.168 248.892 855.553C186.901 765.491 228.021 646.981 247.373 539.064C262.083 457.031 281.761 373.21 344.999 319.6C404.028 269.559 486.067 282.92 562.386 272.014Z" stroke="#1E2761"/>
<path fill-rule="evenodd" clip-rule="evenodd" d="M543.102 236.317C647.444 221.396 758.495 151.182 846.124 210.317C939.221 273.142 974.371 404.525 958.207 516.443C943.465 618.515 836.133 666.926 768.96 744.614C692.264 833.313 657.731 975.055 543.102 996.517C420.499 1019.47 285.632 951.875 214.479 848.431C149.497 753.958 192.601 629.645 212.887 516.443C228.307 430.393 248.935 342.467 315.225 286.232C377.102 233.741 463.1 247.756 543.102 236.317Z" stroke="#1E2761"/>
<path fill-rule="evenodd" clip-rule="evenodd" d="M530.781 213.771C638.192 198.411 752.509 126.126 842.716 187.005C938.551 251.682 974.734 386.938 958.095 502.156C942.92 607.238 832.431 657.076 763.282 737.054C684.33 828.369 648.782 974.29 530.781 996.385C404.573 1020.02 265.739 950.427 192.493 843.932C125.6 746.674 169.972 618.696 190.854 502.156C206.728 413.57 227.962 323.051 296.202 265.158C359.899 211.119 448.426 225.548 530.781 213.771Z" stroke="#1E2761"/>
<path fill-rule="evenodd" clip-rule="evenodd" d="M513.64 182.77C625.32 166.805 744.182 91.6739 837.975 154.95C937.619 222.174 975.241 362.757 957.94 482.512C942.162 591.732 827.281 643.533 755.382 726.66C673.292 821.571 636.331 973.238 513.64 996.203C382.414 1020.77 238.062 948.435 161.904 837.747C92.3513 736.659 138.487 603.641 160.2 482.512C176.705 390.437 198.783 296.354 269.735 236.181C335.964 180.014 428.011 195.011 513.64 182.77Z" stroke="#1E2761"/>
<path fill-rule="evenodd" clip-rule="evenodd" d="M494.891 148.951C611.242 132.326 735.074 54.0898 832.788 119.981C936.6 189.984 975.794 336.377 957.77 461.082C941.332 574.816 821.647 628.758 746.743 715.321C661.22 814.155 622.713 972.091 494.891 996.005C358.178 1021.58 207.789 946.263 128.447 831C55.9861 725.733 104.051 587.218 126.672 461.082C143.867 365.201 166.868 267.229 240.788 204.57C309.786 146.081 405.682 161.698 494.891 148.951Z" stroke="#1E2761"/>
<path fill-rule="evenodd" clip-rule="evenodd" d="M472.928 108.556C594.75 91.1432 724.404 9.19774 826.713 78.2131C935.405 151.534 976.443 304.868 957.571 435.485C940.36 554.611 815.048 611.111 736.622 701.777C647.077 805.297 606.76 970.72 472.928 995.768C329.788 1022.56 172.328 943.667 89.2549 822.94C13.3868 712.683 63.7121 567.601 87.3962 435.485C105.399 335.059 129.482 232.442 206.877 166.812C279.12 105.55 379.524 121.907 472.928 108.556Z" stroke="#1E2761"/>
<path fill-rule="evenodd" clip-rule="evenodd" d="M447.216 61.5855C575.442 43.256 711.913 -43.0024 819.6 29.6454C934.007 106.826 977.202 268.229 957.339 405.721C939.223 531.117 807.322 590.59 724.772 686.029C630.521 794.997 588.084 969.126 447.216 995.493C296.55 1023.69 130.811 940.65 43.3713 813.569C-36.4855 697.508 16.4856 544.79 41.4148 405.721C60.3645 300.009 85.7136 191.992 167.178 122.907C243.218 58.4214 348.901 75.6392 447.216 61.5855Z" stroke="#1E2761"/>
</g>
</svg>
