<svg width="20" height="17" viewBox="0 0 20 17" fill="none" xmlns="http://www.w3.org/2000/svg">
<path d="M14.5089 16.3726C14.4112 16.5142 14.2511 16.6 14.0754 16.6H5.92072C5.74497 16.6 5.58094 16.5142 5.48721 16.3726C5.39348 16.2347 5.38176 16.0633 5.44815 15.9142C5.64733 15.4893 6.09256 15.2173 6.58075 15.2173H7.55712V14.3973H12.4429V15.2173H13.4193C13.9074 15.2173 14.3488 15.4931 14.5518 15.9142C14.6182 16.0633 14.6026 16.2384 14.5089 16.3726ZM6.51045 4.62516C6.24097 5.58299 5.31927 6.29112 4.23355 6.29112C2.93302 6.28739 1.87463 5.28111 1.87463 4.04002C1.87463 3.00019 2.61668 2.12435 3.62039 1.86719C3.59305 1.96782 3.60867 1.90073 3.60476 4.04002C3.60476 4.368 3.88596 4.63634 4.22964 4.63634C6.45968 4.63261 6.40109 4.64379 6.51045 4.62516Z" fill="#A5A5A5"/>
<path d="M6.58856 4.0401C6.58856 4.14818 6.49483 4.23763 6.38157 4.23763H4.23355C4.12029 4.23763 4.02656 4.14818 4.02656 4.0401V1.99025C4.02656 1.87845 4.12029 1.79272 4.23355 1.79272C5.53408 1.79272 6.58856 2.79901 6.58856 4.0401ZM6.38157 7.49501H2.08162C1.96837 7.49501 1.87463 7.40557 1.87463 7.29748C1.87463 7.1894 1.96837 7.09995 2.08162 7.09995H6.38157C6.49483 7.09995 6.58856 7.1894 6.58856 7.29748C6.58856 7.40557 6.49483 7.49501 6.38157 7.49501ZM6.38157 8.66529H2.08162C1.96837 8.66529 1.87463 8.57584 1.87463 8.46776C1.87463 8.35968 1.96837 8.27023 2.08162 8.27023H6.38157C6.49483 8.27023 6.58856 8.35968 6.58856 8.46776C6.58856 8.57957 6.49483 8.66529 6.38157 8.66529ZM6.38157 9.83929H2.08162C1.96837 9.83929 1.87463 9.74984 1.87463 9.64176C1.87463 9.53368 1.96837 9.44423 2.08162 9.44423H6.38157C6.49483 9.44423 6.58856 9.53368 6.58856 9.64176C6.58856 9.74984 6.49483 9.83929 6.38157 9.83929ZM10.4042 6.52972V9.4405C10.4042 9.66039 10.2168 9.83929 9.98633 9.83929H9.11931C8.88889 9.83929 8.70143 9.66039 8.70143 9.4405V6.52972C8.70143 6.30983 8.88498 6.13094 9.11931 6.13094H9.98633C10.2168 6.13094 10.4042 6.30983 10.4042 6.52972ZM12.9779 4.47988V9.4405C12.9779 9.66039 12.7905 9.83929 12.56 9.83929H11.693C11.4626 9.83929 11.2751 9.66039 11.2751 9.4405V4.47988C11.2751 4.25999 11.4587 4.08109 11.693 4.08109H12.56C12.7905 4.08109 12.9779 4.25999 12.9779 4.47988ZM15.5477 6.52972V9.4405C15.5477 9.66039 15.3603 9.83929 15.1299 9.83929H14.2589C14.0285 9.83929 13.841 9.66039 13.841 9.4405V6.52972C13.841 6.30983 14.0285 6.13094 14.2589 6.13094H15.1299C15.3603 6.13094 15.5477 6.30983 15.5477 6.52972ZM18.1215 5.31473V9.4405C18.1215 9.66039 17.934 9.83929 17.7036 9.83929H16.8327C16.6022 9.83929 16.4148 9.66039 16.4148 9.4405V5.31473C16.4148 5.09483 16.6022 4.91594 16.8327 4.91594H17.7036C17.934 4.91594 18.1215 5.09483 18.1215 5.31473Z" fill="#A5A5A5"/>
<path d="M14.6964 5.106C14.6378 5.106 14.5792 5.07991 14.5362 5.03518L12.107 2.27721L9.69733 4.4985C9.61531 4.57304 9.48253 4.57304 9.40442 4.49477C9.32631 4.4165 9.32631 4.28979 9.40832 4.21525L11.982 1.84488C12.025 1.80761 12.0797 1.78525 12.1383 1.78898C12.1968 1.7927 12.2515 1.81879 12.2867 1.85979L14.7354 4.64012L17.1529 3.01143C17.2466 2.94807 17.3755 2.97043 17.4419 3.05988C17.5083 3.14933 17.4849 3.27232 17.3911 3.33568L14.8174 5.07245C14.7823 5.09481 14.7393 5.106 14.6964 5.106Z" fill="#A5A5A5"/>
<path d="M9.99805 12.1462C9.84183 12.1462 9.71295 12.2692 9.71295 12.4183C9.71295 12.5674 9.84183 12.6904 9.99805 12.6904C10.1543 12.6904 10.2832 12.5674 10.2832 12.4183C10.2832 12.2692 10.1543 12.1462 9.99805 12.1462Z" fill="#A5A5A5"/>
<path d="M18.9533 0H1.04277C0.464753 0 0 0.443512 0 0.991379C0 1.30817 0 13.7675 0 13.0072C0 13.5551 0.464753 14.0023 1.04277 14.0023H18.9572C19.5313 14.0023 20 13.5551 20 13.0072C20 11.4903 20 2.50081 20 0.991379C19.9961 0.443512 19.5274 0 18.9533 0ZM9.99805 13.0892C9.6114 13.0892 9.29506 12.7873 9.29506 12.4183C9.29506 12.0493 9.6114 11.7475 9.99805 11.7475C10.3847 11.7475 10.701 12.0493 10.701 12.4183C10.701 12.7873 10.3847 13.0892 9.99805 13.0892ZM19.1642 10.8306H0.831869V0.991379C0.831869 0.883296 0.925601 0.793848 1.03886 0.793848H18.9533C19.0666 0.793848 19.1603 0.883296 19.1603 0.991379V10.8306H19.1642Z" fill="#A5A5A5"/>
</svg>
