<svg width="33" height="33" viewBox="0 0 33 33" fill="none" xmlns="http://www.w3.org/2000/svg">
<g clip-path="url(#clip0_532_10057)">
<path d="M16.4998 6.875C18.7228 6.875 20.764 7.6361 22.3935 8.90183L27.3946 4.13062C24.4869 1.56744 20.6807 0 16.4998 0C10.1643 0 4.67021 3.57488 1.90527 8.81355L7.46637 13.2038C8.81351 9.51414 12.3438 6.875 16.4998 6.875Z" fill="white"/>
<path d="M32.8571 18.565C32.943 17.889 33 17.1994 33 16.5C33 15.3205 32.8712 14.1719 32.6359 13.0625H16.5V19.9375H25.4185C24.697 21.8127 23.4124 23.3994 21.7773 24.5018L27.359 28.9084C30.3179 26.3112 32.3427 22.6742 32.8571 18.565Z" fill="white"/>
<path d="M6.875 16.4999C6.875 15.3402 7.09068 14.2334 7.46658 13.2038L1.90548 8.81348C0.693459 11.11 0 13.7227 0 16.4999C0 19.2462 0.680702 21.8299 1.86755 24.1077L7.43569 19.7118C7.0791 18.706 6.875 17.628 6.875 16.4999Z" fill="white"/>
<path d="M16.4996 26.125C12.312 26.125 8.75897 23.4458 7.43533 19.7119L1.86719 24.1078C4.61861 29.3885 10.1331 33 16.4996 33C20.6628 33 24.4592 31.4534 27.3587 28.9084L21.7769 24.5018C20.2688 25.5185 18.4637 26.125 16.4996 26.125Z" fill="white"/>
<path opacity="0.1" d="M16.5001 32.6561C11.644 32.6561 7.27755 30.6526 4.19043 27.4604C7.21243 30.8519 11.6002 32.9999 16.5001 32.9999C21.3546 32.9999 25.706 30.8943 28.7212 27.556C25.6432 30.6963 21.31 32.6561 16.5001 32.6561Z" fill="black"/>
<path opacity="0.1" d="M16.5 19.5938V19.9375H25.4185L25.5578 19.5938H16.5Z" fill="black"/>
<path d="M32.9923 16.702C32.9935 16.6343 33.0006 16.5677 33.0006 16.4999C33.0006 16.4806 32.9973 16.4621 32.9972 16.4429C32.9962 16.5295 32.9915 16.6151 32.9923 16.702Z" fill="#E6E6E6"/>
<path opacity="0.2" d="M16.5 13.0625V13.4062H32.7052C32.6835 13.2928 32.6599 13.1751 32.6359 13.0625H16.5Z" fill="white"/>
<path d="M32.6359 13.0625H16.5V19.9375H25.4185C24.0316 23.5422 20.5936 26.125 16.5 26.125C11.1843 26.125 6.875 21.8157 6.875 16.5C6.875 11.1842 11.1843 6.875 16.5 6.875C18.4276 6.875 20.2041 7.46716 21.7092 8.44344C21.9396 8.59316 22.1772 8.73373 22.3937 8.90183L27.3948 4.13062L27.282 4.04385C24.3883 1.53596 20.6299 0 16.5 0C7.38727 0 0 7.38727 0 16.5C0 25.6126 7.38727 33 16.5 33C24.9118 33 31.8388 26.7008 32.8571 18.565C32.943 17.889 33 17.1994 33 16.5C33 15.3205 32.8712 14.1719 32.6359 13.0625Z" fill="url(#paint0_linear_532_10057)"/>
<path opacity="0.1" d="M21.7092 8.09993C20.2041 7.12365 18.4276 6.53149 16.5 6.53149C11.1843 6.53149 6.875 10.8407 6.875 16.1565C6.875 16.2145 6.87578 16.2598 6.87679 16.3176C6.96952 11.0821 11.2423 6.87524 16.5 6.87524C18.4276 6.87524 20.2041 7.4674 21.7092 8.44368C21.9396 8.5934 22.1772 8.73397 22.3937 8.90207L27.3948 4.13086L22.3937 8.55832C22.1772 8.39022 21.9396 8.24965 21.7092 8.09993Z" fill="black"/>
<path opacity="0.2" d="M16.5 0.34375C20.5907 0.34375 24.314 1.85403 27.1965 4.3197L27.3948 4.13062L27.2435 3.99888C24.3498 1.49099 20.6299 0 16.5 0C7.38727 0 0 7.38727 0 16.5C0 16.558 0.00805668 16.614 0.00864408 16.6719C0.101799 7.63929 7.44526 0.34375 16.5 0.34375Z" fill="white"/>
</g>
<defs>
<linearGradient id="paint0_linear_532_10057" x1="0" y1="16.5" x2="33" y2="16.5" gradientUnits="userSpaceOnUse">
<stop stop-color="white" stop-opacity="0.2"/>
<stop offset="1" stop-color="white" stop-opacity="0"/>
</linearGradient>
<clipPath id="clip0_532_10057">
<rect width="33" height="33" fill="white"/>
</clipPath>
</defs>
</svg>
