<svg width="20" height="20" viewBox="0 0 20 18" fill="none"
    xmlns="http://www.w3.org/2000/svg">
    <path d="M4.93994 1.99905C4.93968 2.52948 4.72871 3.03808 4.35345 3.41297C3.97819 3.78785 3.46937 3.99831 2.93894 3.99805C2.40851 3.99778 1.89991 3.78681 1.52502 3.41155C1.15014 3.03629 0.939676 2.52748 0.939942 1.99705C0.940207 1.46661 1.15117 0.958012 1.52644 0.583126C1.9017 0.208241 2.41051 -0.00221809 2.94094 -0.00195287C3.47137 -0.00168766 3.97998 0.20928 4.35486 0.584541C4.72975 0.959801 4.94021 1.46861 4.93994 1.99905ZM4.99994 5.47905H0.999942V17.999H4.99994V5.47905ZM11.3199 5.47905H7.33994V17.999H11.2799V11.429C11.2799 7.76905 16.0499 7.42905 16.0499 11.429V17.999H19.9999V10.069C19.9999 3.89905 12.9399 4.12905 11.2799 7.15905L11.3199 5.47905Z" fill="#fff"/>
</svg>
