<svg width="264" height="260" viewBox="0 0 264 260" fill="none" xmlns="http://www.w3.org/2000/svg">
<g clip-path="url(#clip0_33_15726)">
<path d="M173.33 232.878L166.686 228.894V161.184L173.33 165.168V232.878Z" fill="#2358F9"/>
<path d="M57.6507 165.672L51.0072 161.676V91.5471L57.6507 95.5308V165.672Z" fill="#2358F9"/>
<path d="M57.6507 165.672L132.487 124.154L97.0334 73.7239L57.6507 95.5307V165.672Z" fill="#215DE8"/>
<path d="M241.949 191.437L173.33 232.877V165.168L241.949 123.714V191.437Z" fill="#215DE8"/>
<path d="M173.188 165.491L47.9827 92.1421V87.9902L244.146 118.657V122.809L173.188 165.491Z" fill="#2075FB"/>
<path d="M173.188 161.339L47.9827 87.9902L119.872 44.1179L244.146 118.657L173.188 161.339Z" fill="#2075FB"/>
<path d="M173.188 161.339L47.9827 87.9902L119.872 44.1179L244.146 118.657L173.188 161.339Z" fill="#6198FF"/>
<path d="M99.6701 97.018L136.338 118.359C136.894 118.683 137.734 118.721 138.226 118.437L152.947 111.388C153.425 111.103 153.917 104.947 153.283 106.951L113.435 90.3182C112.879 89.9948 112.039 89.956 111.548 90.2406L99.5279 94.9098C99.0496 95.1943 99.1013 96.6947 99.6571 97.018H99.6701Z" fill="#2358F9"/>
<path d="M99.6701 95.9963L136.338 117.337C136.894 117.661 137.734 117.7 138.226 117.415C138.226 117.415 154.912 107.469 153.503 106.55L116.602 85.5973C116.046 85.274 112.026 87.628 111.548 87.9125L99.5279 94.9098C99.0496 95.1944 99.1013 95.6859 99.6571 96.0092L99.6701 95.9963Z" fill="#138CFA"/>
<path d="M113.565 90.3054L111.419 89.0507L112.543 88.3911L114.702 89.6457L113.565 90.3054Z" fill="#215DE8"/>
<path d="M116.24 91.8574L114.094 90.6028L115.219 89.9431L117.364 91.1977L116.24 91.8574Z" fill="#215DE8"/>
<path d="M111.316 91.6116L109.17 90.357L111.031 89.2834L113.177 90.5251L111.316 91.6116Z" fill="#215DE8"/>
<path d="M113.978 93.1638L111.833 91.9222L113.694 90.8357L115.839 92.0903L113.978 93.1638Z" fill="#215DE8"/>
<path d="M147.893 110.741L146.032 111.815L141.211 109.008V108.555L147.893 110.275V110.741Z" fill="#215DE8"/>
<path d="M112.311 92.5558L110.45 93.6423L106.999 91.6245L108.86 90.5381L112.311 92.5558Z" fill="#215DE8"/>
<path d="M108.86 95.2461L104.827 92.8921L106.688 91.8057L110.721 94.1597L108.86 95.2461Z" fill="#215DE8"/>
<path d="M131.595 108.465L129.436 107.223L131.298 106.136L133.456 107.391L131.595 108.465Z" fill="#215DE8"/>
<path d="M143.551 113.263L141.689 114.35L137.799 112.086L139.66 111L143.551 113.263Z" fill="#215DE8"/>
<path d="M107.464 96.9664L102.656 94.1597L104.517 93.0732L109.325 95.8799L107.464 96.9664Z" fill="#215DE8"/>
<path d="M110.139 98.5183L107.994 97.2637L109.855 96.1772L112.001 97.4319L110.139 98.5183Z" fill="#215DE8"/>
<path d="M131.505 110.948L129.359 109.693L131.22 108.607L133.366 109.862L131.505 110.948Z" fill="#215DE8"/>
<path d="M139.518 115.604L134.891 112.914V112.461L141.379 114.078V114.531L139.518 115.604Z" fill="#215DE8"/>
<path d="M110.643 101.338L108.485 100.084L110.346 98.9971L112.505 100.252L110.643 101.338Z" fill="#215DE8"/>
<path d="M131.194 111.129L129.333 112.216L111.16 101.636V101.183L131.194 110.676V111.129Z" fill="#215DE8"/>
<path d="M131.996 113.768L129.85 112.513V112.06L132.991 112.733V113.186L131.996 113.768Z" fill="#215DE8"/>
<path d="M134.671 115.32L132.526 114.065V113.613L136.532 113.781V114.233L134.671 115.32Z" fill="#215DE8"/>
<path d="M137.347 116.872L135.188 115.617V115.165L138.329 115.85V116.303L137.347 116.872Z" fill="#215DE8"/>
<path d="M112.737 88.5593H111.419V89.0508H112.737V88.5593Z" fill="#215DE8"/>
<path d="M114.689 89.1929H113.836V89.568H114.689V89.1929Z" fill="#215DE8"/>
<path d="M117.364 90.7451H115.93V91.159H117.364V90.7451Z" fill="#215DE8"/>
<path d="M115.568 90.1501H114.094V90.6028H115.568V90.1501Z" fill="#215DE8"/>
<path d="M113.707 91.4695H111.833V91.9351H113.707V91.4695Z" fill="#215DE8"/>
<path d="M115.852 91.6116H114.508V92.0772H115.852V91.6116Z" fill="#215DE8"/>
<path d="M110.734 89.8525H109.209V90.3052H110.734V89.8525Z" fill="#215DE8"/>
<path d="M113.177 90.0596H111.16V90.5381H113.177V90.0596Z" fill="#215DE8"/>
<path d="M108.679 91.1589H106.999V91.6116H108.679V91.1589Z" fill="#215DE8"/>
<path d="M112.311 92.0901H108.718V92.5557H112.311V92.0901Z" fill="#215DE8"/>
<path d="M106.171 92.4395H104.827V92.8792H106.171V92.4395Z" fill="#215DE8"/>
<path d="M110.721 93.6941H107.774V94.1597H110.721V93.6941Z" fill="#215DE8"/>
<path d="M109.325 95.4402H105.331V95.8799H109.325V95.4402Z" fill="#215DE8"/>
<path d="M103.793 93.6941H102.656V94.1597H103.793V93.6941Z" fill="#215DE8"/>
<path d="M112.001 96.9922H109.648V97.4319H112.001V96.9922Z" fill="#215DE8"/>
<path d="M109.454 96.7981H107.994V97.2637H109.454V96.7981Z" fill="#215DE8"/>
<path d="M113.565 89.8527L111.419 88.5981L112.543 87.9385L114.702 89.1931L113.565 89.8527Z" fill="url(#paint0_linear_33_15726)"/>
<path d="M116.24 91.4047L114.094 90.1501L115.219 89.4905L117.364 90.7451L116.24 91.4047Z" fill="url(#paint1_linear_33_15726)"/>
<path d="M148.281 110.508L146.136 109.254V108.801L149.419 109.396V109.849L148.281 110.508Z" fill="#215DE8"/>
<path d="M148.281 110.056L146.136 108.801L147.26 108.141L149.419 109.396L148.281 110.056Z" fill="url(#paint2_linear_33_15726)"/>
<path d="M111.316 91.1589L109.17 89.9043L111.031 88.8308L113.177 90.0725L111.316 91.1589Z" fill="url(#paint3_linear_33_15726)"/>
<path d="M113.978 92.7109L111.833 91.4693L113.694 90.3828L115.839 91.6374L113.978 92.7109Z" fill="url(#paint4_linear_33_15726)"/>
<path d="M140.694 108.71L138.536 107.456V107.003L142.555 107.171V107.624L140.694 108.71Z" fill="#215DE8"/>
<path d="M140.694 108.258L138.536 107.003L140.397 105.917L142.555 107.171L140.694 108.258Z" fill="url(#paint5_linear_33_15726)"/>
<path d="M138.019 107.158L135.873 105.904V105.451L139.88 105.619V106.072L138.019 107.158Z" fill="#215DE8"/>
<path d="M138.019 106.706L135.873 105.451L137.734 104.365L139.88 105.619L138.019 106.706Z" fill="url(#paint6_linear_33_15726)"/>
<path d="M135.343 105.606L133.198 104.352V103.899L137.204 104.067V104.52L135.343 105.606Z" fill="#215DE8"/>
<path d="M135.343 105.154L133.198 103.899L135.059 102.812L137.204 104.067L135.343 105.154Z" fill="url(#paint7_linear_33_15726)"/>
<path d="M132.681 104.041L130.522 102.8V102.347L134.542 102.515V102.968L132.681 104.041Z" fill="#215DE8"/>
<path d="M132.681 103.589L130.522 102.347L132.383 101.26L134.542 102.515L132.681 103.589Z" fill="url(#paint8_linear_33_15726)"/>
<path d="M130.005 102.489L127.86 101.247V100.795L131.866 100.95V101.416L130.005 102.489Z" fill="#215DE8"/>
<path d="M130.005 102.036L127.86 100.795L129.721 99.7083L131.866 100.95L130.005 102.036Z" fill="url(#paint9_linear_33_15726)"/>
<path d="M127.33 100.937L125.184 99.6824V99.2297L129.204 99.3979V99.8506L127.33 100.937Z" fill="#215DE8"/>
<path d="M127.33 100.484L125.184 99.2298L127.045 98.1562L129.204 99.3979L127.33 100.484Z" fill="url(#paint10_linear_33_15726)"/>
<path d="M124.667 99.385L122.522 98.1304V97.6777L126.528 97.8459V98.2986L124.667 99.385Z" fill="#215DE8"/>
<path d="M124.667 98.9324L122.522 97.6778L124.383 96.5913L126.528 97.8459L124.667 98.9324Z" fill="url(#paint11_linear_33_15726)"/>
<path d="M121.992 97.8328L119.846 96.5782V96.1255L123.853 96.2936V96.7463L121.992 97.8328Z" fill="#215DE8"/>
<path d="M121.992 97.3801L119.846 96.1255L121.707 95.0391L123.853 96.2937L121.992 97.3801Z" fill="url(#paint12_linear_33_15726)"/>
<path d="M119.329 96.2808L117.171 95.0262V94.5735L121.19 94.7416V95.1943L119.329 96.2808Z" fill="#215DE8"/>
<path d="M119.329 95.8281L117.171 94.5735L119.032 93.4871L121.19 94.7417L119.329 95.8281Z" fill="url(#paint13_linear_33_15726)"/>
<path d="M116.654 94.7288L114.508 93.4742V93.0215L118.515 93.1896V93.6423L116.654 94.7288Z" fill="#215DE8"/>
<path d="M116.654 94.2632L114.508 93.0215L116.369 91.9351L118.515 93.1897L116.654 94.2632Z" fill="url(#paint14_linear_33_15726)"/>
<path d="M147.893 110.275L146.032 111.362L141.211 108.555L143.072 107.482L147.893 110.275Z" fill="url(#paint15_linear_33_15726)"/>
<path d="M112.311 92.1032L110.45 93.1767L106.999 91.1719L108.86 90.0854L112.311 92.1032Z" fill="url(#paint16_linear_33_15726)"/>
<path d="M143.861 112.629L141.702 111.375V111.827L143.861 113.082L145.722 111.996V111.543L143.861 112.629Z" fill="#215DE8"/>
<path d="M145.722 111.543L143.576 110.288L141.741 111.362L143.874 112.629L145.735 111.543H145.722Z" fill="url(#paint17_linear_33_15726)"/>
<path d="M108.86 94.7935L104.827 92.4395L106.688 91.353L110.721 93.707L108.86 94.7935Z" fill="url(#paint18_linear_33_15726)"/>
<path d="M134.451 109.68L132.306 108.439V108.891L134.451 110.133L136.313 109.06V108.607L134.451 109.68Z" fill="#215DE8"/>
<path d="M136.313 108.607L134.167 107.352L132.306 108.439L134.451 109.68L136.313 108.607Z" fill="url(#paint19_linear_33_15726)"/>
<path d="M131.569 108.025L129.411 106.783V107.236L131.569 108.478L133.43 107.404V106.951L131.569 108.025Z" fill="#215DE8"/>
<path d="M133.43 106.951L131.272 105.697L129.411 106.783L131.569 108.025L133.43 106.951Z" fill="url(#paint20_linear_33_15726)"/>
<path d="M128.674 106.369L126.528 105.128V105.58L128.674 106.822L130.535 105.749V105.296L128.674 106.369Z" fill="#215DE8"/>
<path d="M130.535 105.296L128.39 104.041L126.528 105.128L128.674 106.369L130.535 105.296Z" fill="url(#paint21_linear_33_15726)"/>
<path d="M125.779 104.714L123.633 103.472V103.925L125.779 105.167L127.64 104.093V103.64L125.779 104.714Z" fill="#215DE8"/>
<path d="M127.64 103.64L125.494 102.386L123.633 103.472L125.779 104.714L127.64 103.64Z" fill="url(#paint22_linear_33_15726)"/>
<path d="M122.896 103.058L120.738 101.817V102.269L122.896 103.511L124.758 102.437V101.985L122.896 103.058Z" fill="#215DE8"/>
<path d="M124.758 101.985L122.599 100.73L120.738 101.817L122.896 103.058L124.758 101.985Z" fill="url(#paint23_linear_33_15726)"/>
<path d="M120.001 101.403L117.856 100.161V100.614L120.001 101.855L121.862 100.782V100.329L120.001 101.403Z" fill="#215DE8"/>
<path d="M121.862 100.329L119.717 99.0747L117.856 100.161L120.001 101.403L121.862 100.329Z" fill="url(#paint24_linear_33_15726)"/>
<path d="M117.106 99.747L114.96 98.5054V98.9581L117.106 100.213L118.967 99.1262V98.6735L117.106 99.747Z" fill="#215DE8"/>
<path d="M118.967 98.6735L116.822 97.4189L114.96 98.5054L117.106 99.7471L118.967 98.6735Z" fill="url(#paint25_linear_33_15726)"/>
<path d="M114.211 98.0915L112.065 96.8499V97.3025L114.211 98.5571L116.072 97.4707V97.018L114.211 98.0915Z" fill="#215DE8"/>
<path d="M116.072 97.018L113.926 95.7634L112.065 96.8499L114.211 98.0916L116.072 97.018Z" fill="url(#paint26_linear_33_15726)"/>
<path d="M111.328 96.4489L109.17 95.1943V95.647L111.328 96.9016L113.19 95.8152V95.3625L111.328 96.4489Z" fill="#215DE8"/>
<path d="M113.19 95.3625L111.031 94.1079L109.17 95.1944L111.328 96.449L113.19 95.3625Z" fill="url(#paint27_linear_33_15726)"/>
<path d="M137.321 111.349L135.175 110.107V110.56L137.321 111.802L139.182 110.728V110.263L137.321 111.349Z" fill="#215DE8"/>
<path d="M139.182 110.263L137.036 109.021L135.175 110.107L137.321 111.349L139.182 110.263Z" fill="url(#paint28_linear_33_15726)"/>
<path d="M143.551 112.811L141.689 113.897L137.799 111.634L139.66 110.547L143.551 112.811Z" fill="url(#paint29_linear_33_15726)"/>
<path d="M107.464 96.5008L102.656 93.7071L104.517 92.6206L109.325 95.4273L107.464 96.5008Z" fill="url(#paint30_linear_33_15726)"/>
<path d="M110.139 98.0657L107.994 96.8111L109.855 95.7246L112.001 96.9792L110.139 98.0657Z" fill="url(#paint31_linear_33_15726)"/>
<path d="M134.18 112.047L132.021 110.793V111.245L134.18 112.5L136.028 111.414V110.961L134.18 112.047Z" fill="#215DE8"/>
<path d="M136.028 110.961L133.883 109.719L132.021 110.793L134.18 112.047L136.028 110.961Z" fill="url(#paint32_linear_33_15726)"/>
<path d="M131.505 110.495L129.359 109.241V109.693L131.505 110.948L133.366 109.862V109.409L131.505 110.495Z" fill="#215DE8"/>
<path d="M133.366 109.409L131.22 108.154L129.359 109.241L131.505 110.495L133.366 109.409Z" fill="url(#paint33_linear_33_15726)"/>
<path d="M128.829 108.93L126.683 107.689V108.141L128.829 109.383L130.69 108.31V107.857L128.829 108.93Z" fill="#215DE8"/>
<path d="M130.69 107.857L128.545 106.602L126.683 107.689L128.829 108.93L130.69 107.857Z" fill="url(#paint34_linear_33_15726)"/>
<path d="M126.166 107.378L124.008 106.124V106.576L126.166 107.831L128.028 106.744V106.292L126.166 107.378Z" fill="#215DE8"/>
<path d="M128.028 106.292L125.869 105.05L124.008 106.124L126.166 107.378L128.028 106.292Z" fill="url(#paint35_linear_33_15726)"/>
<path d="M123.491 105.826L121.345 104.572V105.024L123.491 106.279L125.352 105.192V104.74L123.491 105.826Z" fill="#215DE8"/>
<path d="M125.352 104.74L123.207 103.485L121.345 104.572L123.491 105.826L125.352 104.74Z" fill="url(#paint36_linear_33_15726)"/>
<path d="M120.815 104.261L118.67 103.02V103.472L120.815 104.727L122.677 103.64V103.188L120.815 104.261Z" fill="#215DE8"/>
<path d="M122.677 103.188L120.531 101.933L118.67 103.02L120.815 104.261L122.677 103.188Z" fill="url(#paint37_linear_33_15726)"/>
<path d="M118.153 102.709L116.007 101.454V101.907L118.153 103.162L120.014 102.075V101.622L118.153 102.709Z" fill="#215DE8"/>
<path d="M120.014 101.623L117.869 100.381L116.007 101.454L118.153 102.709L120.014 101.623Z" fill="url(#paint38_linear_33_15726)"/>
<path d="M115.477 101.157L113.332 99.9023V100.355L115.477 101.61L117.339 100.523V100.07L115.477 101.157Z" fill="#215DE8"/>
<path d="M117.339 100.071L115.193 98.8159L113.332 99.9024L115.477 101.157L117.339 100.071Z" fill="url(#paint39_linear_33_15726)"/>
<path d="M112.815 99.6049L110.656 98.3503V98.803L112.815 100.058L114.676 98.9712V98.5185L112.815 99.6049Z" fill="#215DE8"/>
<path d="M114.676 98.5185L112.518 97.2639L110.656 98.3504L112.815 99.605L114.676 98.5185Z" fill="url(#paint40_linear_33_15726)"/>
<path d="M139.518 115.151L134.891 112.461L136.752 111.375L141.379 114.078L139.518 115.151Z" fill="url(#paint41_linear_33_15726)"/>
<path d="M102.63 96.216L100.484 94.9614V95.4271L102.63 96.6558L104.491 95.5693V95.1166L102.63 96.2031V96.216Z" fill="#215DE8"/>
<path d="M102.346 93.8879L100.484 94.9744L102.63 96.229L104.491 95.1425L102.346 93.8879Z" fill="url(#paint42_linear_33_15726)"/>
<path d="M105.292 97.7683L103.147 96.5137V96.9534L105.292 98.221L107.154 97.1345V96.6818L105.292 97.7683Z" fill="#215DE8"/>
<path d="M105.008 95.4402L103.147 96.5266L105.292 97.7812L107.154 96.6948L105.008 95.4402Z" fill="url(#paint43_linear_33_15726)"/>
<path d="M107.968 99.3203L105.822 98.0657V98.5054L107.968 99.773L109.829 98.6865V98.2338L107.968 99.3203Z" fill="#215DE8"/>
<path d="M107.684 96.9922L105.822 98.0786L107.968 99.3333L109.829 98.2468L107.684 96.9922Z" fill="url(#paint44_linear_33_15726)"/>
<path d="M110.592 100.872L108.446 99.6177V100.057L110.592 101.325L112.453 100.239V99.7858L110.592 100.872Z" fill="#215DE8"/>
<path d="M110.294 98.5442L108.433 99.6306L110.579 100.885L112.44 99.7988L110.294 98.5442Z" fill="url(#paint45_linear_33_15726)"/>
<path d="M131.194 110.676L129.333 111.763L111.16 101.183L113.022 100.096L131.194 110.676Z" fill="url(#paint46_linear_33_15726)"/>
<path d="M131.996 113.315L129.85 112.06L130.845 111.491L132.991 112.733L131.996 113.315Z" fill="url(#paint47_linear_33_15726)"/>
<path d="M134.671 114.867L132.526 113.613L134.387 112.526L136.532 113.781L134.671 114.867Z" fill="url(#paint48_linear_33_15726)"/>
<path d="M137.347 116.419L135.188 115.165L136.183 114.595L138.329 115.85L137.347 116.419Z" fill="url(#paint49_linear_33_15726)"/>
<path d="M141.043 110.987L138.898 109.745V110.198L141.043 111.439L142.904 110.366V109.913L141.043 110.987Z" fill="#215DE8"/>
<path d="M142.904 109.913L140.759 108.659L138.923 109.732L141.056 111L142.917 109.913H142.904Z" fill="url(#paint50_linear_33_15726)"/>
<path d="M138.226 109.357L136.08 108.103V108.555L138.226 109.81L140.087 108.723V108.271L138.226 109.357Z" fill="#215DE8"/>
<path d="M140.087 108.271L137.941 107.016L136.106 108.09L138.238 109.357L140.1 108.271H140.087Z" fill="url(#paint51_linear_33_15726)"/>
<path d="M135.408 107.715L133.262 106.473V106.926L135.408 108.167L137.269 107.094V106.641L135.408 107.715Z" fill="#215DE8"/>
<path d="M137.269 106.641L135.124 105.386L133.288 106.46L135.421 107.728L137.282 106.641H137.269Z" fill="url(#paint52_linear_33_15726)"/>
<path d="M132.59 106.085L130.445 104.83V105.283L132.59 106.538L134.451 105.451V104.998L132.59 106.085Z" fill="#215DE8"/>
<path d="M134.451 104.999L132.306 103.744L130.471 104.817L132.603 106.085L134.464 104.999H134.451Z" fill="url(#paint53_linear_33_15726)"/>
<path d="M129.785 104.442L127.627 103.188V103.653L129.785 104.895L131.647 103.821V103.356L129.785 104.442Z" fill="#215DE8"/>
<path d="M131.647 103.356L129.501 102.101L127.666 103.175L129.798 104.442L131.66 103.356H131.647Z" fill="url(#paint54_linear_33_15726)"/>
<path d="M126.968 102.812L124.809 101.558V102.011L126.968 103.265L128.829 102.179V101.726L126.968 102.812Z" fill="#215DE8"/>
<path d="M128.829 101.726L126.683 100.471L124.848 101.545L126.981 102.812L128.842 101.726H128.829Z" fill="url(#paint55_linear_33_15726)"/>
<path d="M124.15 101.17L122.005 99.9153V100.381L124.15 101.623L126.011 100.536V100.083L124.15 101.17Z" fill="#215DE8"/>
<path d="M126.011 100.083L123.866 98.8289L122.03 99.9024L124.163 101.17L126.024 100.083H126.011Z" fill="url(#paint56_linear_33_15726)"/>
<path d="M121.332 99.5402L119.187 98.2856V98.7383L121.332 99.9929L123.194 98.9065V98.4538L121.332 99.5402Z" fill="#215DE8"/>
<path d="M123.194 98.4538L121.048 97.1992L119.213 98.2727L121.345 99.5403L123.207 98.4538H123.194Z" fill="url(#paint57_linear_33_15726)"/>
<path d="M118.515 97.8977L116.369 96.6431V97.0958L118.515 98.3504L120.376 97.2639V96.8112L118.515 97.8977Z" fill="#215DE8"/>
<path d="M120.376 96.8112L118.23 95.5566L116.395 96.6302L118.528 97.8977L120.389 96.8112H120.376Z" fill="url(#paint58_linear_33_15726)"/>
<path d="M115.697 96.2678L113.552 95.0132V95.4659L115.697 96.7205L117.558 95.634V95.1813L115.697 96.2678Z" fill="#215DE8"/>
<path d="M117.558 95.1814L115.413 93.9268L113.577 95.0003L115.71 96.2678L117.571 95.1814H117.558Z" fill="url(#paint59_linear_33_15726)"/>
<path d="M112.892 94.6252L110.734 93.3706V93.8233L112.892 95.0779L114.754 93.9914V93.5387L112.892 94.6252Z" fill="#215DE8"/>
<path d="M114.754 93.5388L112.608 92.2842L110.773 93.3577L112.905 94.6252L114.766 93.5388H114.754Z" fill="url(#paint60_linear_33_15726)"/>
<path d="M145.619 108.943L143.46 107.702V107.249L146.743 107.844V108.297L145.619 108.943Z" fill="#215DE8"/>
<path d="M145.619 108.491L143.46 107.249L144.598 106.589L146.743 107.844L145.619 108.491Z" fill="url(#paint61_linear_33_15726)"/>
<path d="M142.943 107.391L140.798 106.137V105.684L144.068 106.279V106.732L142.943 107.391Z" fill="#215DE8"/>
<path d="M142.943 106.938L140.798 105.684L141.922 105.037L144.068 106.279L142.943 106.938Z" fill="url(#paint62_linear_33_15726)"/>
<path d="M140.281 105.839L138.122 104.585V104.132L141.405 104.727V105.179L140.281 105.839Z" fill="#215DE8"/>
<path d="M140.281 105.386L138.122 104.132L139.247 103.472L141.405 104.727L140.281 105.386Z" fill="url(#paint63_linear_33_15726)"/>
<path d="M137.605 104.274L135.46 103.033V102.58L138.73 103.175V103.627L137.605 104.274Z" fill="#215DE8"/>
<path d="M137.605 103.821L135.46 102.58L136.584 101.92L138.73 103.175L137.605 103.821Z" fill="url(#paint64_linear_33_15726)"/>
<path d="M134.93 102.722L132.784 101.467V101.015L136.067 101.61V102.062L134.93 102.722Z" fill="#215DE8"/>
<path d="M134.93 102.269L132.784 101.015L133.909 100.368L136.067 101.61L134.93 102.269Z" fill="url(#paint65_linear_33_15726)"/>
<path d="M132.267 101.17L130.109 99.9153V99.4626L133.392 100.058V100.51L132.267 101.17Z" fill="#215DE8"/>
<path d="M132.267 100.717L130.109 99.4626L131.246 98.803L133.392 100.058L132.267 100.717Z" fill="url(#paint66_linear_33_15726)"/>
<path d="M129.592 99.6179L127.446 98.3633V97.9106L130.716 98.5056V98.9583L129.592 99.6179Z" fill="#215DE8"/>
<path d="M129.592 99.1523L127.446 97.9106L128.57 97.251L130.716 98.5056L129.592 99.1523Z" fill="url(#paint67_linear_33_15726)"/>
<path d="M126.916 98.0528L124.771 96.8111V96.3455L128.053 96.9404V97.3931L126.916 98.0528Z" fill="#215DE8"/>
<path d="M126.916 97.6L124.771 96.3454L125.895 95.6987L128.053 96.9404L126.916 97.6Z" fill="url(#paint68_linear_33_15726)"/>
<path d="M124.254 96.5008L122.108 95.2462V94.7935L125.378 95.3884V95.8411L124.254 96.5008Z" fill="#215DE8"/>
<path d="M124.254 96.048L122.108 94.7934L123.232 94.1338L125.378 95.3884L124.254 96.048Z" fill="url(#paint69_linear_33_15726)"/>
<path d="M121.578 94.9487L119.432 93.6941V93.2415L122.715 93.8364V94.2891L121.578 94.9487Z" fill="#215DE8"/>
<path d="M121.578 94.496L119.432 93.2414L120.557 92.5818L122.715 93.8364L121.578 94.496Z" fill="url(#paint70_linear_33_15726)"/>
<path d="M118.915 93.3836L116.757 92.1419V91.6892L120.04 92.2712V92.7369L118.915 93.3836Z" fill="#215DE8"/>
<path d="M118.915 92.9308L116.757 91.6892L117.894 91.0295L120.04 92.2712L118.915 92.9308Z" fill="url(#paint71_linear_33_15726)"/>
<path d="M100.885 92.0904L125.998 77.5784L110.85 68.822L85.7239 83.334L100.885 92.0904Z" fill="#FDFEFE"/>
<path d="M132.823 76.8152L160.651 93.0087C160.651 93.0087 166.932 88.2101 170.68 87.1366L141.108 69.9343C137.799 71.2536 134.413 73.2066 131.104 75.7417C131.039 75.7805 132.823 76.8152 132.823 76.8152Z" fill="#138CFA"/>
<g opacity="0.31">
<path d="M132.823 76.8022C135.188 78.0698 137.566 79.3115 139.906 80.6178L143.421 82.5708L146.911 84.5756C149.251 85.8949 151.564 87.24 153.865 88.624L157.329 90.6675C158.492 91.3401 159.616 92.0644 160.767 92.7629L160.327 93.0215C160.47 92.8663 160.638 92.6853 160.819 92.5301C160.909 92.4524 160.999 92.3748 161.09 92.3231L161.31 92.1808L162.189 91.5859C162.77 91.172 163.378 90.8228 163.972 90.4477L164.877 89.9044C165.174 89.7234 165.497 89.5682 165.808 89.4L167.669 88.4041L165.872 89.5035C165.575 89.6846 165.265 89.8527 164.967 90.0467L164.089 90.6287C163.507 91.0168 162.912 91.3919 162.344 91.8057L160.65 93.0215L132.784 76.854L132.81 76.8152L132.823 76.8022Z" fill="#2075FB"/>
</g>
<path d="M170.68 87.1367C167.359 88.456 163.972 90.4349 160.651 92.9829V95.0524C164.011 93.0993 167.372 91.1463 170.719 89.1932V87.1238C170.719 87.1238 170.693 87.1238 170.68 87.1367Z" fill="#2358F9"/>
<path d="M132.823 76.8152L131.039 75.7805C131.039 76.466 131.039 77.1645 131.039 77.85L160.65 95.0781V93.0087L132.823 76.8152Z" fill="#215DE8"/>
<path d="M148.837 68.4727V80.7083C148.837 81.0057 149.031 81.3162 149.432 81.549C150.22 82.0146 151.512 82.0146 152.314 81.549C152.714 81.3162 152.908 81.0187 152.908 80.7083V68.4727H148.837Z" fill="#2075FB"/>
<path d="M160.521 80.9542L158.634 79.8548V79.3762L160.521 80.4756V80.9542Z" fill="#138CFA"/>
<path d="M162.925 82.3509L161.038 81.2515V80.7859L162.925 81.8853V82.3509Z" fill="#138CFA"/>
<path d="M165.329 83.7479L163.442 82.6614V82.1829L165.329 83.2823V83.7479Z" fill="#138CFA"/>
<path d="M172.257 48.9035L121.203 19.194C120.919 19.0259 120.647 18.9742 120.428 19.013C120.363 18.9483 118.954 19.8278 118.954 19.8278L119.781 21.3928V55.0343C119.781 55.9397 120.415 57.052 121.19 57.5047L171.624 86.852L171.895 88.0808L172.994 87.4082C173.395 87.3565 173.666 86.9943 173.666 86.3994V51.374C173.666 50.4686 173.033 49.3562 172.257 48.9035Z" fill="#138CFA"/>
<path d="M171.068 87.9125L120.014 58.203C119.239 57.7503 118.605 56.638 118.605 55.7326V20.7072C118.605 20.2933 118.735 19.9829 118.954 19.8277C119.213 19.6337 119.588 19.6466 120.014 19.8924L171.068 49.6019C171.844 50.0546 172.477 51.1669 172.477 52.0723V87.0977C172.477 88.0031 171.844 88.3782 171.068 87.9255V87.9125Z" fill="#138CFA"/>
<path d="M171.895 51.7232V85.4035C171.869 85.9079 171.52 86.1019 171.081 85.8433L120.027 56.1338C119.575 55.8751 119.213 55.2284 119.213 54.6981V21.0437C119.213 20.7591 119.316 20.5651 119.51 20.4875C119.652 20.4229 119.833 20.4487 120.04 20.5651L171.094 50.2746C171.546 50.5333 171.908 51.18 171.908 51.7103L171.895 51.7232Z" fill="#138CFA"/>
<path d="M171.895 51.7103V85.3906C171.753 85.4423 171.572 85.4165 171.365 85.3L120.311 55.5905C119.859 55.3319 119.497 54.6852 119.497 54.1549V20.4875C119.639 20.4229 119.82 20.4487 120.027 20.5651L171.081 50.2746C171.533 50.5333 171.895 51.18 171.895 51.7103Z" fill="#0B255F"/>
<path d="M139.285 35.685L121.061 25.1567V23.3201L139.285 33.8613V35.685Z" fill="#138CFA"/>
<path d="M153.891 44.118L145.231 39.1125V37.2888L153.891 42.2943V44.118Z" fill="#138CFA"/>
<path d="M129.553 37.2631L121.061 32.3611V30.5374L129.553 35.4394V37.2631Z" fill="#138CFA"/>
<path d="M134.787 40.2896L131.117 38.1684V36.3447L134.787 38.4659V40.2896Z" fill="#138CFA"/>
<path d="M139.376 42.941L135.964 40.9751V39.1514L139.376 41.1173V42.941Z" fill="#138CFA"/>
<path d="M131.117 42.1909L121.061 36.3835V34.5598L131.117 40.3672V42.1909Z" fill="#138CFA"/>
<path d="M135.873 44.933L132.409 42.9411V41.1174L135.873 43.1093V44.933Z" fill="#FC9A06"/>
<path d="M135.796 48.9166L121.061 40.406V38.5693L135.796 47.0929V48.9166Z" fill="#FC9A06"/>
<path d="M140.126 51.4128L135.227 48.5803V46.7566L140.126 49.5891V51.4128Z" fill="#138CFA"/>
<path d="M145.386 54.4524L141.379 52.1501V50.3135L145.386 52.6287V54.4524Z" fill="#138CFA"/>
<path d="M130.807 50.0547L121.061 44.4155V42.5918L130.807 48.231V50.0547Z" fill="#138CFA"/>
<path d="M135.524 52.7838L132.138 50.8308V48.9941L135.524 50.9601V52.7838Z" fill="#138CFA"/>
<path d="M131.543 54.504L121.061 48.438V46.6143L131.543 52.6674V54.504Z" fill="#138CFA"/>
<path d="M135.266 56.6511L132.409 54.9956V53.1719L135.266 54.8274V56.6511Z" fill="#138CFA"/>
<path d="M141.328 60.1563L136.455 57.3366V55.5129L141.328 58.3326V60.1563Z" fill="#FC9A06"/>
<path d="M131.039 58.229L121.061 52.4604V50.6367L131.039 56.4053V58.229Z" fill="#138CFA"/>
<path d="M136.08 61.1393L131.582 58.5395V56.7158L136.08 59.3156V61.1393Z" fill="#FC9A06"/>
<path d="M145.709 42.3461L121.061 28.1057V26.269L145.709 40.5224V42.3461Z" fill="#138CFA"/>
<path d="M161.361 51.3869L147.984 43.6523V41.8286L161.361 49.5632V51.3869Z" fill="#138CFA"/>
<path d="M167.733 85.1578L165.846 84.0584V83.5798L167.733 84.6792V85.1578Z" fill="#138CFA"/>
<path d="M165.575 83.8643L163.688 82.7649V82.2864L165.575 83.3858V83.8643Z" fill="#138CFA"/>
<path d="M170.254 86.4511C170.254 86.9167 169.931 87.0978 169.53 86.865C169.129 86.6322 168.806 86.0631 168.806 85.5975C168.806 85.1318 169.129 84.9508 169.53 85.1836C169.931 85.4164 170.254 85.9855 170.254 86.4511Z" fill="#2075FB"/>
<path d="M169.853 87.447C169.672 87.447 169.478 87.3953 169.297 87.2789C168.754 86.9556 168.341 86.2442 168.341 85.6104C168.341 84.8214 169.065 84.3687 169.776 84.7826C170.318 85.106 170.732 85.8174 170.732 86.4511C170.732 87.0332 170.37 87.447 169.866 87.447H169.853ZM169.284 85.5975C169.284 85.9079 169.517 86.3218 169.776 86.4641C169.788 86.1536 169.556 85.7527 169.31 85.6104C169.31 85.6104 169.31 85.6104 169.297 85.6104L169.284 85.5975Z" fill="#138CFA"/>
<path d="M191.696 110.974L219.524 127.167C219.524 127.167 225.806 122.369 229.554 121.295L199.981 104.093C196.673 105.412 193.286 107.365 189.977 109.9C189.913 109.939 191.696 110.974 191.696 110.974Z" fill="#138CFA"/>
<g opacity="0.31">
<path d="M191.709 110.948C194.075 112.203 196.453 113.457 198.792 114.764L202.308 116.717L205.798 118.721C208.137 120.041 210.451 121.386 212.751 122.77L216.215 124.813C217.379 125.486 218.503 126.21 219.653 126.896L219.214 127.154C219.356 126.999 219.524 126.818 219.705 126.663C219.796 126.585 219.886 126.508 219.977 126.456L220.196 126.314L221.075 125.719C221.657 125.305 222.264 124.956 222.859 124.58L223.764 124.037C224.061 123.856 224.384 123.701 224.694 123.533L226.555 122.537L224.759 123.636C224.462 123.817 224.151 123.986 223.854 124.18L222.975 124.762C222.394 125.15 221.799 125.525 221.23 125.939L219.537 127.154L191.671 110.987L191.696 110.948H191.709Z" fill="#2075FB"/>
</g>
<path d="M229.554 121.282C226.232 122.602 222.846 124.581 219.524 127.129V129.198C222.885 127.245 226.245 125.292 229.593 123.339V121.27C229.593 121.27 229.567 121.27 229.554 121.282Z" fill="#2358F9"/>
<path d="M191.696 110.974L189.913 109.939C189.913 110.638 189.913 111.323 189.913 112.009L219.524 129.237V127.167L191.696 110.974Z" fill="#215DE8"/>
<path d="M207.724 102.619V114.854C207.724 115.152 207.917 115.462 208.318 115.695C209.107 116.161 210.399 116.161 211.2 115.695C211.601 115.462 211.795 115.165 211.795 114.854V102.619H207.724Z" fill="#2075FB"/>
<path d="M219.395 115.1L217.508 114.001V113.535L219.395 114.635V115.1Z" fill="#138CFA"/>
<path d="M221.799 116.497L219.912 115.41V114.932L221.799 116.031V116.497Z" fill="#138CFA"/>
<path d="M224.203 117.907L222.316 116.807V116.329L224.203 117.428V117.907Z" fill="#138CFA"/>
<path d="M231.144 83.0625L180.09 53.353C179.805 53.1848 179.534 53.1331 179.314 53.1719C179.237 53.1072 177.841 53.9867 177.841 53.9867L178.668 55.5518V89.2062C178.668 90.1115 179.301 91.2239 180.077 91.6766L230.51 121.024L230.782 122.253L231.88 121.58C232.281 121.528 232.553 121.166 232.553 120.571V85.5588C232.553 84.6534 231.919 83.541 231.144 83.0883V83.0625Z" fill="#138CFA"/>
<path d="M229.955 122.059L178.901 92.349C178.125 91.8963 177.492 90.784 177.492 89.8786V54.8532C177.492 54.4393 177.621 54.1289 177.841 53.9737C178.099 53.7797 178.474 53.7926 178.901 54.0384L229.955 83.7479C230.73 84.2006 231.363 85.3129 231.363 86.2183V121.244C231.363 122.149 230.73 122.524 229.955 122.071V122.059Z" fill="#138CFA"/>
<path d="M230.769 85.8693V119.55C230.743 120.054 230.394 120.248 229.942 119.989L178.888 90.2798C178.435 90.0211 178.073 89.3744 178.073 88.8441V55.2026C178.073 54.9181 178.177 54.7241 178.371 54.6465C178.513 54.5818 178.694 54.6077 178.901 54.7241L229.955 84.4336C230.407 84.6923 230.782 85.339 230.782 85.8693H230.769Z" fill="#138CFA"/>
<path d="M230.769 85.8693V119.55C230.627 119.601 230.446 119.575 230.239 119.459L179.185 89.7495C178.733 89.4908 178.371 88.8441 178.371 88.3138V54.6465C178.513 54.5818 178.694 54.6077 178.901 54.7241L229.955 84.4336C230.407 84.6923 230.769 85.339 230.769 85.8693Z" fill="#0B255F"/>
<path d="M193.105 92.0258C193.002 92.0258 192.899 91.9999 192.795 91.9482L182.623 86.0632C182.429 85.9597 182.313 85.7528 182.313 85.5329C182.313 85.313 182.429 85.1061 182.623 85.0026L192.731 79.1564C192.924 79.04 193.157 79.04 193.338 79.1564L203.51 85.0414C203.704 85.1449 203.82 85.3518 203.82 85.5717C203.82 85.7916 203.704 85.9985 203.51 86.102L193.403 91.9482C193.312 91.9999 193.196 92.0258 193.092 92.0258H193.105ZM184.148 85.5329L193.105 90.7065L201.998 85.5717L193.041 80.3981L184.148 85.5329Z" fill="#79BDFB"/>
<path d="M193.105 83.8644C193.002 83.8644 192.899 83.8385 192.795 83.7868L182.623 77.9018C182.429 77.7983 182.313 77.5914 182.313 77.3715C182.313 77.1516 182.429 76.9447 182.623 76.8412L192.731 70.995C192.924 70.8786 193.157 70.8786 193.338 70.995L203.51 76.88C203.704 76.9835 203.82 77.1904 203.82 77.4103C203.82 77.6302 203.704 77.8371 203.51 77.9406L193.403 83.7868C193.312 83.8385 193.196 83.8644 193.092 83.8644H193.105ZM184.148 77.3715L193.105 82.5451L201.998 77.4103L193.041 72.2367L184.148 77.3715Z" fill="#79BDFB"/>
<path d="M193.105 92.0258C193.002 92.0258 192.899 91.9999 192.795 91.9482L182.623 86.0632C182.429 85.9597 182.313 85.7528 182.313 85.5329L182.287 77.3715C182.287 77.1516 182.403 76.9447 182.597 76.8412C182.791 76.7248 183.024 76.7248 183.205 76.8412L193.377 82.7262C193.571 82.8297 193.687 83.0366 193.687 83.2565L193.713 91.4179C193.713 91.6378 193.596 91.8447 193.403 91.9482C193.312 91.9999 193.196 92.0258 193.092 92.0258H193.105ZM183.541 85.1837L192.485 90.3573L192.459 83.6186L183.515 78.445L183.541 85.1837Z" fill="#79BDFB"/>
<path d="M203.213 86.1797C203.109 86.1797 203.006 86.1538 202.903 86.1021L192.731 80.2171C192.537 80.1136 192.42 79.9067 192.42 79.6868L192.394 71.5254C192.394 71.3055 192.511 71.0986 192.705 70.9951C192.899 70.8917 193.131 70.8787 193.312 70.9951L203.484 76.8801C203.678 76.9836 203.794 77.1905 203.794 77.4104L203.82 85.5718C203.82 85.7917 203.704 85.9986 203.51 86.1021C203.42 86.1538 203.303 86.1797 203.2 86.1797H203.213ZM193.648 79.3376L202.592 84.5112L202.566 77.7726L193.622 72.5989L193.648 79.3376Z" fill="#79BDFB"/>
<path d="M193.131 92.0258C193.028 92.0258 192.924 92 192.821 91.9482C192.627 91.8318 192.511 91.6378 192.511 91.4179L192.537 83.2566C192.537 83.0367 192.653 82.8427 192.847 82.7263L203.019 76.8413C203.213 76.7378 203.445 76.7378 203.626 76.8413C203.82 76.9577 203.937 77.1517 203.937 77.3716L203.898 85.533C203.898 85.7528 203.781 85.9468 203.588 86.0632L193.416 91.9482C193.325 92 193.209 92.0258 193.105 92.0258H193.131ZM193.777 83.6058L193.752 90.3444L202.696 85.1708L202.722 78.4322L193.777 83.6058Z" fill="#79BDFB"/>
<path d="M213.553 103.602C213.449 103.602 213.346 103.576 213.243 103.524L203.071 97.6391C202.877 97.5356 202.76 97.3287 202.76 97.1088C202.76 96.8889 202.877 96.682 203.071 96.5785L213.178 90.7323C213.372 90.6159 213.604 90.6159 213.785 90.7323L223.957 96.6173C224.151 96.7208 224.268 96.9277 224.268 97.1476C224.268 97.3675 224.151 97.5744 223.957 97.6779L213.85 103.524C213.76 103.576 213.643 103.602 213.54 103.602H213.553ZM204.596 97.1088L213.553 102.282L222.445 97.1476L213.488 91.974L204.596 97.1088Z" fill="#79BDFB"/>
<path d="M213.553 103.602C213.449 103.602 213.346 103.576 213.243 103.524L203.071 97.6391C202.915 97.5485 202.812 97.4063 202.773 97.2381C202.734 97.07 202.773 96.8889 202.877 96.7466L212.984 82.7391C213.139 82.5192 213.411 82.4286 213.669 82.5192C213.928 82.5968 214.096 82.8296 214.096 83.1012L214.16 102.981C214.16 103.201 214.044 103.408 213.85 103.511C213.76 103.563 213.643 103.589 213.54 103.589L213.553 103.602ZM204.273 96.9148L212.945 101.92L212.894 84.9896L204.285 96.9148H204.273Z" fill="#79BDFB"/>
<path d="M223.66 97.7556C223.557 97.7556 223.453 97.7297 223.35 97.678L213.178 91.793C212.984 91.6895 212.868 91.4826 212.868 91.2627L212.842 83.1013C212.842 82.8297 213.01 82.5969 213.268 82.5193C213.514 82.4417 213.798 82.5193 213.953 82.7392L224.164 96.7856C224.332 97.0184 224.319 97.3417 224.125 97.5487C224.009 97.678 223.841 97.7556 223.673 97.7556H223.66ZM214.096 90.9135L221.463 95.1688L214.07 84.9897L214.096 90.9006V90.9135Z" fill="#79BDFB"/>
<path d="M226.62 119.304L224.733 118.204V117.726L226.62 118.825V119.304Z" fill="#138CFA"/>
<path d="M224.449 118.01L222.562 116.911V116.432L224.449 117.532V118.01Z" fill="#138CFA"/>
<path d="M229.127 120.597C229.127 121.063 228.804 121.244 228.404 121.011C228.003 120.778 227.68 120.209 227.68 119.743C227.68 119.278 228.003 119.097 228.404 119.33C228.804 119.562 229.127 120.131 229.127 120.597Z" fill="#2075FB"/>
<path d="M228.727 121.593C228.546 121.593 228.352 121.541 228.171 121.425C227.628 121.102 227.215 120.39 227.215 119.756C227.215 118.967 227.938 118.515 228.649 118.929C229.192 119.252 229.606 119.963 229.606 120.597C229.606 121.179 229.244 121.593 228.74 121.593H228.727ZM228.158 119.743C228.158 120.054 228.391 120.468 228.649 120.61C228.662 120.3 228.429 119.899 228.184 119.756C228.184 119.756 228.184 119.756 228.171 119.756L228.158 119.743Z" fill="#138CFA"/>
<path d="M79.7396 120.105L74.8023 140.373C74.8023 140.373 73.0703 141.964 72.5662 141.912C72.424 141.861 72.3982 141.718 72.4757 141.46C72.9281 139.985 74.1301 139.209 74.4274 137.295C74.6472 135.898 77.258 125.848 78.6539 120.493C79.0804 118.851 78.2015 117.881 76.922 118.592C76.3403 118.916 75.6941 119.278 74.9703 119.666C68.637 123.171 57.8058 129.276 56.5391 130.608C54.7426 132.509 50.8263 137.372 50.8263 137.372C50.8263 137.372 50.1412 137.851 50.0378 137.554C49.9991 137.411 50.0895 137.088 50.4514 136.467C50.4514 136.467 53.2045 132.677 55.4276 130.492L55.5827 130.336C55.7119 130.22 55.8412 130.103 55.9575 129.987C56.0221 129.935 56.0738 129.884 56.1385 129.832C56.2031 129.78 56.2548 129.728 56.3194 129.69C56.4745 129.56 56.5521 129.509 56.6296 129.457C56.8106 129.327 56.901 129.276 56.9786 129.224L75.2159 118.696L77.2063 117.545C77.4002 117.441 77.5811 117.351 77.7492 117.286C77.9947 117.195 78.2274 117.182 78.4471 117.182C79.8689 117.144 80.7219 118.256 79.7138 120.105H79.7396Z" fill="#138CFA"/>
<path d="M78.6539 120.493C77.258 125.848 74.6472 135.898 74.4274 137.295C74.1302 139.196 72.9281 139.985 72.4758 141.459C72.3982 141.718 72.4111 141.86 72.5145 141.899C72.0492 141.783 68.6758 140.877 69.1023 139.506C69.5547 138.032 70.7567 137.256 71.054 135.342C71.2608 134.048 73.5485 125.188 74.9961 119.666C75.707 119.278 76.3662 118.915 76.9478 118.592C78.2274 117.881 79.1063 118.851 78.6798 120.493H78.6539Z" fill="#215DE8"/>
<path d="M78.473 117.182C78.2532 117.182 78.0206 117.208 77.775 117.286C77.5941 117.35 77.4131 117.428 77.2322 117.544L75.2417 118.696L57.0044 129.224C56.9269 129.276 56.8364 129.327 56.7459 129.392C56.5908 129.508 56.5133 129.56 56.4357 129.625C56.2936 129.741 56.2289 129.793 56.1772 129.845C56.1126 129.896 56.0609 129.948 55.9963 130C55.867 130.103 55.7507 130.233 55.6215 130.349C55.5698 130.401 55.5181 130.453 55.4664 130.504C53.2433 132.69 50.4902 136.48 50.4902 136.48C50.1283 137.114 50.0378 137.424 50.0766 137.566C50.0766 137.579 46.9229 135.704 46.9229 135.704C46.6515 135.756 46.4964 135.575 47.1039 134.527C47.1039 134.527 51.4596 128.538 53.631 127.284L73.8458 115.604C74.2723 115.359 74.8023 115.372 75.371 115.578L76.5084 116.173L78.4859 117.208L78.473 117.182Z" fill="#138CFA"/>
<path d="M90.0926 156.567L89.847 171.311L88.4641 169.85L90.0926 156.567Z" fill="#2075FB"/>
<mask id="mask0_33_15726" style="mask-type:luminance" maskUnits="userSpaceOnUse" x="20" y="44" width="150" height="197">
<path d="M169.633 163.409L118.373 133.44L147.777 96.4491L83.8498 46.3296L60.8173 44.1179L20 197.93L106.171 241L169.633 163.409Z" fill="white"/>
</mask>
<g mask="url(#mask0_33_15726)">
<path d="M116.602 214.653C116.511 214.731 116.408 214.783 116.305 214.821L116.602 214.653Z" fill="#1E73BE"/>
<path d="M114.288 215.921C114.275 216.542 114.094 216.943 113.81 217.188C113.422 217.512 112.841 217.525 112.181 217.137C111.018 216.464 110.075 214.834 110.075 213.489C110.075 213.153 110.139 212.856 110.243 212.623C110.385 212.338 110.592 212.131 110.863 212.041C111.225 211.924 111.677 211.989 112.169 212.274C112.388 212.403 112.595 212.558 112.789 212.739C113.448 213.36 113.978 214.265 114.185 215.145C114.237 215.352 114.262 215.559 114.275 215.766C114.275 215.817 114.275 215.869 114.275 215.908L114.288 215.921Z" fill="#2075FB"/>
<path d="M114.456 214.912C114.456 215.248 114.392 215.546 114.288 215.779C114.288 215.572 114.25 215.365 114.198 215.158C113.991 214.278 113.474 213.373 112.802 212.752C112.608 212.571 112.401 212.416 112.181 212.286C111.69 212.002 111.238 211.937 110.876 212.054C110.605 212.144 110.385 212.338 110.243 212.636C110.243 212.584 110.243 212.532 110.243 212.493C110.243 211.717 110.553 211.213 111.044 211.045C111.393 210.928 111.82 210.98 112.285 211.239C112.556 211.394 112.763 211.549 112.957 211.743C113.616 212.364 114.146 213.269 114.353 214.149C114.418 214.408 114.443 214.666 114.443 214.912H114.456Z" fill="#138CFA"/>
<path d="M117.08 213.399C117.08 213.735 117.015 214.033 116.912 214.265C116.834 214.421 116.731 214.563 116.615 214.666L116.317 214.834L114.288 215.999C114.288 215.869 114.288 215.83 114.288 215.779C114.405 215.546 114.456 215.261 114.456 214.912C114.456 214.666 114.43 214.408 114.366 214.149C114.159 213.269 113.642 212.364 112.97 211.743C112.776 211.562 112.569 211.407 112.349 211.278C111.82 210.993 111.393 210.928 111.044 211.045L113.319 209.726C113.707 209.389 114.301 209.376 114.96 209.751C116.124 210.424 117.067 212.054 117.067 213.399H117.08Z" fill="#138CFA"/>
<path d="M116.912 214.408C116.912 214.99 116.731 215.417 116.434 215.675L116.137 215.843L113.81 217.188C114.094 216.956 114.262 216.542 114.275 215.999L116.305 214.834L116.602 214.666C116.731 214.563 116.822 214.434 116.899 214.265C116.899 214.317 116.899 214.356 116.899 214.408H116.912Z" fill="#215DE8"/>
<path d="M66.3751 185.629C66.2846 185.707 66.1812 185.759 66.0778 185.798L66.3751 185.629Z" fill="#1E73BE"/>
<path d="M64.0486 186.897C64.0357 187.518 63.8547 187.919 63.5704 188.165C63.1826 188.488 62.601 188.501 61.9418 188.113C60.7786 187.44 59.835 185.811 59.835 184.465C59.835 184.129 59.8996 183.832 60.003 183.599C60.1452 183.314 60.352 183.107 60.6235 183.017C60.9854 182.9 61.4377 182.965 61.9289 183.25C62.1486 183.379 62.3554 183.534 62.5493 183.715C63.2085 184.336 63.7384 185.241 63.9452 186.121C63.9969 186.328 64.0227 186.535 64.0357 186.742C64.0357 186.794 64.0357 186.845 64.0357 186.884L64.0486 186.897Z" fill="#2075FB"/>
<path d="M64.2166 185.888C64.2166 186.224 64.152 186.522 64.0486 186.755C64.0486 186.548 64.0098 186.341 63.9581 186.134C63.7513 185.254 63.2343 184.349 62.5622 183.728C62.3683 183.547 62.1615 183.392 61.9418 183.263C61.4507 182.978 60.9983 182.913 60.6364 183.03C60.365 183.12 60.1452 183.314 60.0031 183.612C60.0031 183.56 60.0031 183.508 60.0031 183.469C60.0031 182.693 60.3133 182.189 60.8044 182.021C61.1534 181.904 61.5799 181.956 62.0452 182.215C62.3166 182.37 62.5234 182.525 62.7173 182.719C63.3765 183.34 63.9064 184.245 64.1132 185.125C64.1778 185.384 64.2037 185.642 64.2037 185.888H64.2166Z" fill="#138CFA"/>
<path d="M66.8533 184.375C66.8533 184.711 66.7887 185.009 66.6853 185.241C66.6077 185.397 66.5043 185.539 66.388 185.642L66.0907 185.811L64.0615 186.988C64.0615 186.858 64.0615 186.819 64.0615 186.768C64.1778 186.535 64.2295 186.25 64.2295 185.901C64.2295 185.655 64.1908 185.397 64.1391 185.138C63.9323 184.258 63.4153 183.353 62.7432 182.732C62.5493 182.551 62.3425 182.396 62.1228 182.267C61.5928 181.982 61.1663 181.917 60.8173 182.034L63.0921 180.715C63.4799 180.378 64.0744 180.365 64.7336 180.74C65.8969 181.413 66.8275 183.043 66.8275 184.388L66.8533 184.375Z" fill="#138CFA"/>
<path d="M66.6724 185.384C66.6724 185.966 66.4914 186.393 66.1942 186.651L65.8969 186.819L63.5704 188.165C63.8547 187.932 64.0228 187.518 64.0486 186.975L66.0778 185.798L66.3751 185.629C66.5044 185.526 66.5948 185.397 66.6724 185.229C66.6724 185.28 66.6724 185.319 66.6724 185.371V185.384Z" fill="#215DE8"/>
<path d="M66.3751 214.653C66.2846 214.731 66.1812 214.783 66.0778 214.821L66.3751 214.653Z" fill="#1E73BE"/>
<path d="M64.0486 215.921C64.0357 216.542 63.8547 216.943 63.5704 217.188C63.1826 217.512 62.601 217.525 61.9418 217.137C60.7786 216.464 59.835 214.834 59.835 213.489C59.835 213.153 59.8996 212.856 60.003 212.623C60.1452 212.338 60.352 212.131 60.6235 212.041C60.9854 211.924 61.4377 211.989 61.9289 212.274C62.1486 212.403 62.3554 212.558 62.5493 212.739C63.2085 213.36 63.7384 214.265 63.9452 215.145C63.9969 215.352 64.0227 215.559 64.0357 215.766C64.0357 215.817 64.0357 215.869 64.0357 215.908L64.0486 215.921Z" fill="#2075FB"/>
<path d="M64.2166 214.912C64.2166 215.248 64.152 215.546 64.0486 215.779C64.0486 215.572 64.0098 215.365 63.9581 215.158C63.7513 214.278 63.2343 213.373 62.5622 212.752C62.3683 212.571 62.1615 212.416 61.9418 212.286C61.4507 212.002 60.9983 211.937 60.6364 212.054C60.365 212.144 60.1452 212.338 60.0031 212.636C60.0031 212.584 60.0031 212.532 60.0031 212.493C60.0031 211.717 60.3133 211.213 60.8044 211.045C61.1534 210.928 61.5799 210.98 62.0452 211.239C62.3166 211.394 62.5234 211.549 62.7173 211.743C63.3765 212.364 63.9064 213.269 64.1132 214.149C64.1778 214.408 64.2037 214.666 64.2037 214.912H64.2166Z" fill="#138CFA"/>
<path d="M66.8533 213.399C66.8533 213.735 66.7887 214.033 66.6853 214.265C66.6077 214.421 66.5043 214.563 66.388 214.666L66.0907 214.834L64.0615 215.999C64.0615 215.869 64.0615 215.83 64.0615 215.779C64.1778 215.546 64.2295 215.261 64.2295 214.912C64.2295 214.666 64.1908 214.408 64.1391 214.149C63.9323 213.269 63.4153 212.364 62.7432 211.743C62.5493 211.562 62.3425 211.407 62.1228 211.278C61.5928 210.993 61.1663 210.928 60.8173 211.045L63.0921 209.726C63.4799 209.389 64.0744 209.376 64.7336 209.751C65.8969 210.424 66.8275 212.054 66.8275 213.399H66.8533Z" fill="#138CFA"/>
<path d="M66.6724 214.408C66.6724 214.99 66.4914 215.417 66.1942 215.675L65.8969 215.843L63.5704 217.188C63.8547 216.956 64.0228 216.542 64.0486 215.999L66.0778 214.834L66.3751 214.666C66.5044 214.563 66.5948 214.434 66.6724 214.265C66.6724 214.317 66.6724 214.356 66.6724 214.408Z" fill="#215DE8"/>
<path d="M116.602 185.629C116.511 185.707 116.408 185.759 116.305 185.798L116.602 185.629Z" fill="#1E73BE"/>
<path d="M114.288 186.897C114.275 187.518 114.094 187.919 113.81 188.165C113.422 188.488 112.841 188.501 112.181 188.113C111.018 187.44 110.075 185.811 110.075 184.465C110.075 184.129 110.139 183.832 110.243 183.599C110.385 183.314 110.592 183.107 110.863 183.017C111.225 182.9 111.677 182.965 112.169 183.25C112.388 183.379 112.595 183.534 112.789 183.715C113.448 184.336 113.978 185.241 114.185 186.121C114.237 186.328 114.262 186.535 114.275 186.742C114.275 186.794 114.275 186.845 114.275 186.884L114.288 186.897Z" fill="#2075FB"/>
<path d="M114.456 185.888C114.456 186.224 114.392 186.522 114.288 186.755C114.288 186.548 114.25 186.341 114.198 186.134C113.991 185.254 113.474 184.349 112.802 183.728C112.608 183.547 112.401 183.392 112.181 183.263C111.69 182.978 111.238 182.913 110.876 183.03C110.605 183.12 110.385 183.314 110.243 183.612C110.243 183.56 110.243 183.508 110.243 183.469C110.243 182.693 110.553 182.189 111.044 182.021C111.393 181.904 111.82 181.956 112.285 182.215C112.556 182.37 112.763 182.525 112.957 182.719C113.616 183.34 114.146 184.245 114.353 185.125C114.418 185.384 114.443 185.642 114.443 185.888H114.456Z" fill="#138CFA"/>
<path d="M117.08 184.375C117.08 184.711 117.015 185.009 116.912 185.241C116.834 185.397 116.731 185.539 116.615 185.642L116.317 185.811L114.288 186.988C114.288 186.858 114.288 186.819 114.288 186.768C114.405 186.535 114.456 186.25 114.456 185.901C114.456 185.655 114.43 185.397 114.366 185.138C114.159 184.258 113.642 183.353 112.97 182.732C112.776 182.551 112.569 182.396 112.349 182.267C111.82 181.982 111.393 181.917 111.044 182.034L113.319 180.715C113.707 180.378 114.301 180.365 114.96 180.74C116.124 181.413 117.067 183.043 117.067 184.388L117.08 184.375Z" fill="#138CFA"/>
<path d="M116.912 185.384C116.912 185.966 116.731 186.393 116.434 186.651L116.137 186.819L113.81 188.165C114.094 187.932 114.262 187.518 114.275 186.975L116.305 185.798L116.602 185.629C116.731 185.526 116.822 185.397 116.899 185.229C116.899 185.28 116.899 185.319 116.899 185.371L116.912 185.384Z" fill="#215DE8"/>
<path d="M115.542 179.809C115.296 179.757 114.508 179.098 114.185 179.033C106.404 177.403 97.3952 179.537 88.3865 184.724C79.3389 189.936 70.2914 198.24 62.4846 208.898C61.8513 209.764 61.6574 210.799 62.0581 211.174C62.3425 211.459 63.2214 211.769 63.4153 211.95C63.8159 212.351 64.6044 211.989 65.1989 211.174C72.592 201.073 81.1743 193.209 89.7436 188.268C98.2871 183.34 106.818 181.322 114.185 182.874C114.779 183.004 115.568 182.448 115.956 181.607C116.356 180.74 116.175 179.925 115.542 179.796V179.809Z" fill="#2075FB"/>
<path d="M115.542 209.674C107.761 199.055 98.7524 190.777 89.7436 185.565C80.6961 180.326 71.6485 178.166 63.8418 179.809C63.5187 179.874 62.7431 180.533 62.4846 180.585C61.8513 180.714 61.6574 181.529 62.0581 182.37C62.4588 183.237 63.2472 183.793 63.8418 183.663C71.2349 182.111 79.8172 184.155 88.3865 189.122C96.9299 194.062 105.46 201.9 112.828 211.976C113.422 212.791 114.211 213.153 114.598 212.765C114.805 212.558 115.684 212.248 115.956 211.989C116.356 211.588 116.175 210.553 115.542 209.687V209.674Z" fill="#2075FB"/>
<path d="M89.3817 187.207C88.6838 187.608 87.5464 187.608 86.8484 187.207C86.3314 186.91 86.2022 186.47 86.4477 186.095V155.519L89.8212 157.472V186.185C90.0021 186.535 89.847 186.923 89.3688 187.207H89.3817Z" fill="#215DE8"/>
<path d="M86.4994 99.2172C86.4994 99.2172 90.4415 99.9156 91.747 99.5664C93.0524 99.2172 96.6456 98.6093 97.8735 98.5963C99.0884 98.5963 99.3857 98.4282 99.3857 98.4282L106.701 94.9877L112.375 92.8019C112.375 92.8019 115.322 93.1382 116.382 92.8019C117.442 92.4656 118.321 92.2586 117.881 93.1123C117.442 93.9789 116.279 94.548 115.296 94.6126C114.314 94.6773 113.797 94.9748 113.797 94.9748L118.088 95.1947C118.088 95.1947 118.45 96.902 117.222 96.902C115.994 96.902 112.75 97.1477 112.75 97.1477C112.75 97.1477 111.16 97.872 109.868 99.3077C108.562 100.73 107.916 102.114 107.916 102.114C107.916 102.114 108.614 103.382 110.579 102.981C112.543 102.567 113.396 103.809 113.396 104.455C113.396 105.102 111.962 106.008 111.109 105.865C110.256 105.723 109.493 105.231 109.26 105.244C109.028 105.244 108.343 105.542 105.965 105.128C103.599 104.714 101.027 103.628 99.9932 103.602C98.9592 103.576 96.7748 103.886 96.7748 103.886C96.7748 103.886 82.9062 105.71 80.1661 105.555C77.426 105.4 73.6002 105.322 74.5179 100.123C75.4355 94.9231 86.4865 99.2172 86.4865 99.2172H86.4994Z" fill="#FFC69C"/>
<path fill-rule="evenodd" clip-rule="evenodd" d="M95.7796 136.389L97.5633 170.807C97.5374 171.104 97.6408 171.337 97.8993 171.48C99.0496 172.152 102.863 171.027 106.417 168.983C107.89 168.13 109.196 143.193 110.01 142.404C110.437 142.119 110.592 131.888 110.592 131.888L95.7796 136.377V136.389Z" fill="#0C53FC"/>
<path d="M81.2648 92.9958L83.9144 86.6322C83.9144 86.6322 79.8301 80.7214 81.2648 75.8711C82.6866 71.0208 85.8532 68.5763 93.298 68.5246C100.743 68.4728 102.371 73.4266 102.682 74.4484C102.992 75.4702 103.91 78.5355 103.289 80.01C102.682 81.4845 101.661 81.7432 101.712 82.6615C101.764 83.5798 102.63 83.2176 101.764 84.9637C100.898 86.6969 100.536 90.215 98.1966 91.0427C95.8572 91.8705 94.5259 91.0686 94.2157 92.9441C93.9055 94.8195 92.9749 99.2688 93.1946 99.4887C112.944 119.73 70.6275 101.843 81.2648 93.0087V92.9958Z" fill="#FFC69C"/>
<path d="M81.0063 129.095H78.3825V129.845C78.3566 130.065 78.4729 130.285 78.7702 130.453C79.2872 130.75 80.1144 130.75 80.6185 130.453C80.9029 130.285 81.0321 130.065 80.9933 129.845V129.095H81.0063Z" fill="#215DE8"/>
<path d="M80.6314 129.638C80.1144 129.935 79.2872 129.935 78.7831 129.638C78.2661 129.34 78.2661 128.862 78.7831 128.564C79.3001 128.267 80.1273 128.267 80.6314 128.564C81.1484 128.862 81.1484 129.34 80.6314 129.638Z" fill="#2075FB"/>
<path d="M89.9633 144.228H87.3396V144.978C87.3137 145.198 87.43 145.417 87.7273 145.586C88.2443 145.883 89.0715 145.883 89.5756 145.586C89.8599 145.417 89.9892 145.198 89.9504 144.978V144.228H89.9633Z" fill="#215DE8"/>
<path d="M89.5885 144.758C89.0715 145.055 88.2443 145.055 87.7402 144.758C87.2232 144.46 87.2232 143.982 87.7402 143.684C88.2572 143.387 89.0844 143.387 89.5885 143.684C90.1055 143.982 90.1055 144.46 89.5885 144.758Z" fill="#2075FB"/>
<path fill-rule="evenodd" clip-rule="evenodd" d="M114.883 128.551C108.769 126.456 98.3129 131.94 90.3253 135.846C90.8164 142.598 92.3157 149.233 93.4919 155.907C99.4374 153.837 104.297 147.461 111.432 142.378L118.192 138.925C118.644 131.927 118.127 129.664 114.896 128.551H114.883Z" fill="#0C53FC"/>
<path fill-rule="evenodd" clip-rule="evenodd" d="M100.717 163.99L95.8313 167.728C95.8959 172.229 95.883 174.441 97.6279 175.618C99.7476 177.041 103.328 175.89 105.499 174.907L106.081 173.161C108.162 172.876 107.697 173.497 109.945 172.242C113.72 170.147 119.252 166.914 120.001 163.176C120.195 162.219 119.458 160.485 118.489 160.653L109.609 163.732L100.73 163.99H100.717Z" fill="#0B255F"/>
<path fill-rule="evenodd" clip-rule="evenodd" d="M121.798 179.447L116.757 182.978C116.628 187.479 116.524 189.69 118.218 190.932C120.273 192.445 123.905 191.449 126.102 190.544L126.761 188.824C129.721 188.539 128.919 188.992 131.931 187.427C135.576 185.539 140.022 182.874 140.811 179.563C141.043 178.619 140.384 176.86 139.402 176.989L133.133 179.77L121.798 179.434V179.447Z" fill="#1E73BE"/>
<path fill-rule="evenodd" clip-rule="evenodd" d="M129.243 136.79C128.635 139.843 121.177 146.129 120.441 149.142C120.441 149.142 116.925 184.206 117.08 184.375C118.011 185.332 127.084 186.974 128.364 179.641C132.164 178.658 137.269 143.852 137.269 143.852C139.466 136.532 131.168 130.284 129.23 136.79H129.243Z" fill="#0C53FC"/>
<path d="M129.424 157.368L112.931 162.464L102.837 170.199L92.1735 173.794L89.847 171.311L88.464 169.85L90.0926 156.566L90.6096 152.337L87.8824 142.08L86.4219 134.19C87.8436 134.074 89.0586 134.177 89.679 134.591C89.7565 134.566 129.424 157.381 129.424 157.381V157.368Z" fill="#2075FB"/>
<path fill-rule="evenodd" clip-rule="evenodd" d="M82.609 136.984L69.9554 136.493C68.4302 143.387 69.2833 151.548 72.4628 154.859C77.0383 159.645 85.892 166.151 94.7456 164.12C101.312 162.607 112.634 155.868 120.286 150.423L136.998 143.089C140.151 136.79 141.793 132.859 133.004 130.97C126.683 129.612 109.984 136.415 101.997 140.334L82.6349 136.984H82.609Z" fill="#0C53FC"/>
<path d="M98.8299 156.062C97.6538 156.541 96.0898 156.528 94.332 156.204C87.6368 155.002 69.8132 149.078 70.1363 137.579C70.2785 132.755 73.6778 131.992 69.0635 119.575C60.1581 95.5954 72.8506 89.0767 75.2805 89.0767C77.7104 89.0767 82.0791 91.0685 82.0791 91.0685C82.0791 91.0685 79.0675 95.5696 83.5008 98.3245C90.7259 102.774 90.9327 100.562 93.4402 100.252C96.3483 99.8895 100.717 104.261 103.199 106.783C107.942 111.621 101.053 126.417 103.018 130.323C104.982 134.242 106.546 143.464 106.546 143.464C106.546 143.464 108.511 152.143 98.8429 156.075L98.8299 156.062Z" fill="#4DA8F7"/>
<path d="M98.8299 156.062C97.6537 156.541 96.0898 156.528 94.332 156.204C92.0442 152.027 92.6259 143.257 90.3898 135.82C87.0681 124.826 90.3898 109.875 95.3918 108.504C95.8959 108.361 96.3871 108.323 96.8394 108.361C98.3388 109.538 99.5796 110.534 99.9544 110.896C100.717 111.66 101.066 113.25 101.131 115.281C101.156 115.98 101.156 116.73 101.105 117.545C101.014 119.782 101.04 126.404 102.992 130.31C104.956 134.229 106.52 143.451 106.52 143.451C106.52 143.451 108.485 152.13 98.817 156.062H98.8299Z" fill="#2699FD"/>
<path d="M108.511 128.435C108.511 128.435 113.745 121.567 114.379 120.261C114.999 118.954 119.665 112.022 119.665 112.022L117.882 110.625C117.882 110.625 117.558 109.267 117.041 108.944C116.524 108.62 114.831 107.611 115.684 107.003C116.524 106.396 117.933 106.667 118.683 107.637C119.433 108.607 119.885 109.112 119.885 109.112L121.694 104.766L121.72 100.485C121.72 100.485 121.617 98.5445 122.405 98.4411C123.181 98.3376 124.086 98.3764 123.594 99.5405C123.103 100.705 123.724 101.17 123.724 101.17L124.189 104.999L125.21 101.325C125.21 101.325 126.231 99.7086 126.386 99.1395C126.541 98.5704 127.692 98.6221 127.73 99.437C127.769 100.252 127.614 102.425 127.614 102.425L126.632 105.529L128.648 102.179L130.858 100.226C130.858 100.226 132.345 100.11 131.815 101.144C131.285 102.166 130.264 103.408 130.264 103.408L128.648 106.99L131.311 106.318L133.999 106.396C133.999 106.396 134.051 107.857 133.172 107.922C132.293 107.986 131.673 108.142 131.673 108.142L129.747 109.099C129.747 109.099 129.165 112.306 127.976 113.328C126.787 114.35 125.611 115.023 125.611 115.023C125.611 115.023 115.309 138.731 111.858 140.71C108.407 142.701 106.611 132.212 108.524 128.409L108.511 128.435Z" fill="#FFC69C"/>
<path d="M107.102 125.202C107.102 125.202 109.079 122.123 112.505 123.067C115.917 124.012 119.277 128.862 118.799 131.901C118.321 134.941 114.624 141.24 110.786 140.981C106.947 140.735 102.992 129.78 107.102 125.202Z" fill="#2699FD"/>
<path d="M92.8456 114.596C92.8844 121.102 101.26 146.284 110.152 141.809C119.045 137.334 111.432 127.452 110.152 124.012C108.873 120.571 108.007 106.447 101.829 106.008C95.6374 105.568 92.8068 108.09 92.8456 114.596Z" fill="#4DA8F7"/>
<path d="M97.0204 85.2096C96.8653 85.2096 97.4987 83.7221 96.2708 84.2783C95.03 84.8345 94.3191 85.5458 94.3191 86.6194C94.3191 87.6929 94.0606 90.2021 94.7844 89.6847C95.4953 89.1803 96.2708 87.6929 96.2708 87.6929H95.3919C94.9266 87.6929 95.2756 85.7528 95.6633 85.5458C96.0511 85.3389 97.0204 85.1966 97.0204 85.1966V85.2096Z" fill="#FFC69C"/>
<path opacity="0.25" d="M90.2865 89.1802C90.2865 89.1802 91.5144 86.2959 97.1885 83.7609C99.9673 82.5192 106.507 75.9875 100.807 71.2148C99.8252 70.4 98.4293 69.1325 94.6939 68.5634C90.9586 68.0072 82.2988 70.4259 81.8206 77.9793C81.1614 88.3783 88.1538 93.6166 90.2994 89.1802H90.2865Z" fill="#0B255F"/>
<path d="M90.0926 156.567L88.464 169.85L89.847 171.311L89.8082 173.795L51.7956 152.027L51.7052 151.781C51.5113 151.716 51.3174 151.626 51.1494 151.535C45.1005 148.043 49.9474 140.024 49.9474 133.596C49.9474 127.168 45.8889 116.148 45.7467 113.794C45.5916 111.453 46.38 109.655 46.729 109.849L86.1505 132.626L86.4348 134.191L87.8953 142.08L90.1443 154.277L90.1055 156.554L90.0926 156.567Z" fill="#138CFA"/>
<path d="M86.1376 132.613C86.1376 132.613 92.7423 150.229 92.5225 154.083C92.3028 157.938 88.0505 169.294 92.2253 171.699C96.3871 174.105 115.271 160.809 118.36 159.037C121.436 157.252 129.553 155.778 129.553 158.132C129.553 160.486 125.494 157.963 122.341 159.774C119.187 161.598 96.6198 177.804 90.5838 174.312C84.5348 170.82 89.3817 162.801 89.3817 156.373C89.3817 149.944 85.3233 138.925 85.1811 136.571C85.026 134.229 85.8144 132.432 86.1634 132.626L86.1376 132.613Z" fill="#138CFA"/>
<path d="M122.535 144.835L117.597 165.103C117.597 165.103 115.865 166.694 115.361 166.642C115.219 166.59 115.193 166.448 115.271 166.19C115.723 164.715 116.925 163.939 117.222 162.025C117.442 160.628 120.053 150.578 121.449 145.223C121.875 143.581 120.996 142.611 119.717 143.322C119.135 143.645 118.489 144.008 117.765 144.396C111.432 147.901 100.601 154.006 99.334 155.338C97.5374 157.252 93.6341 162.102 93.6341 162.102C93.6341 162.102 92.949 162.581 92.8456 162.283C92.8069 162.141 92.8973 161.818 93.2592 161.197C93.2592 161.197 96.0123 157.407 98.2354 155.221L98.3905 155.066C98.5197 154.95 98.649 154.82 98.7653 154.717C98.8299 154.665 98.8816 154.614 98.9463 154.562C99.0109 154.51 99.0626 154.458 99.1272 154.42C99.2823 154.29 99.3599 154.238 99.4374 154.187C99.6184 154.057 99.7088 154.006 99.7864 153.954L118.024 143.426L120.014 142.274C120.208 142.171 120.389 142.08 120.557 142.029C120.803 141.938 121.035 141.912 121.255 141.925C122.341 141.964 122.948 143.128 122.522 144.848L122.535 144.835Z" fill="#2075FB"/>
<path d="M121.449 145.223C120.053 150.578 117.429 160.628 117.222 162.025C116.925 163.926 115.723 164.715 115.271 166.189C115.193 166.448 115.206 166.59 115.309 166.629C114.844 166.513 111.471 165.607 111.897 164.236C112.35 162.762 113.552 161.986 113.849 160.072C114.056 158.778 116.343 149.918 117.791 144.396C118.502 143.995 119.161 143.645 119.743 143.322C121.022 142.611 121.901 143.581 121.475 145.223H121.449Z" fill="#138CFA"/>
<path d="M121.268 141.912C121.048 141.912 120.815 141.938 120.57 142.016C120.389 142.08 120.208 142.158 120.027 142.262L118.037 143.413L99.7993 153.941C99.7218 153.993 99.6313 154.044 99.5408 154.109C99.3857 154.225 99.3082 154.277 99.2306 154.342C99.0884 154.458 99.0238 154.51 98.9721 154.562C98.9075 154.614 98.8558 154.665 98.7912 154.717C98.6619 154.82 98.5456 154.95 98.4163 155.066C98.3646 155.118 98.3129 155.17 98.2612 155.221C96.0381 157.407 93.2851 161.197 93.2851 161.197C92.9232 161.831 92.8327 162.141 92.8715 162.283L89.7178 160.421C89.4463 160.473 89.2912 160.292 89.8987 159.244C89.8987 159.244 94.2545 153.255 96.4259 152.001L116.641 140.321C117.054 140.076 117.597 140.102 118.166 140.296L119.303 140.89L121.281 141.925L121.268 141.912Z" fill="#138CFA"/>
<path d="M88.6579 91.0685C88.6579 91.0685 88.477 80.5531 94.1511 78.0181C96.93 76.7764 105.693 76.4789 103.069 67.4509C102.707 66.2222 100.097 61.3719 89.0328 65.5108C85.8532 66.7008 80.6703 68.9254 80.192 76.4789C79.5328 86.8779 80.6703 90.4477 88.6709 91.0685H88.6579Z" fill="#0B255F"/>
</g>
<path d="M173.705 144.227L200.822 129.767V127.892V126.573L154.136 130.88V134.074L173.705 144.227Z" fill="#6C98BC"/>
<path d="M173.705 141.033L200.822 126.572L181.266 116.419L154.136 130.879L173.705 141.033Z" fill="#B6D5EF"/>
<path d="M187.638 129.767L193.713 126.611L182.52 120.804L176.445 123.96L187.638 129.767Z" fill="#7CC0FB"/>
<path d="M174.015 141.834V143.542L154.873 133.841V131.94L174.015 141.834Z" fill="white"/>
<path d="M174.015 141.835L200.822 127.646V129.146L174.015 143.542V141.835Z" fill="#79BDFB"/>
</g>
<defs>
<linearGradient id="paint0_linear_33_15726" x1="111.419" y1="88.8956" x2="114.689" y2="88.8956" gradientUnits="userSpaceOnUse">
<stop stop-color="#79BDFB"/>
<stop offset="1" stop-color="#138CFA"/>
</linearGradient>
<linearGradient id="paint1_linear_33_15726" x1="114.081" y1="90.4476" x2="117.364" y2="90.4476" gradientUnits="userSpaceOnUse">
<stop stop-color="#79BDFB"/>
<stop offset="1" stop-color="#138CFA"/>
</linearGradient>
<linearGradient id="paint2_linear_33_15726" x1="146.136" y1="109.098" x2="149.406" y2="109.098" gradientUnits="userSpaceOnUse">
<stop stop-color="#79BDFB"/>
<stop offset="1" stop-color="#138CFA"/>
</linearGradient>
<linearGradient id="paint3_linear_33_15726" x1="109.157" y1="89.9949" x2="113.164" y2="89.9949" gradientUnits="userSpaceOnUse">
<stop stop-color="#79BDFB"/>
<stop offset="1" stop-color="#138CFA"/>
</linearGradient>
<linearGradient id="paint4_linear_33_15726" x1="111.833" y1="91.5469" x2="115.839" y2="91.5469" gradientUnits="userSpaceOnUse">
<stop stop-color="#79BDFB"/>
<stop offset="1" stop-color="#138CFA"/>
</linearGradient>
<linearGradient id="paint5_linear_33_15726" x1="138.536" y1="107.094" x2="142.542" y2="107.094" gradientUnits="userSpaceOnUse">
<stop stop-color="#79BDFB"/>
<stop offset="1" stop-color="#138CFA"/>
</linearGradient>
<linearGradient id="paint6_linear_33_15726" x1="135.86" y1="105.529" x2="139.867" y2="105.529" gradientUnits="userSpaceOnUse">
<stop stop-color="#79BDFB"/>
<stop offset="1" stop-color="#138CFA"/>
</linearGradient>
<linearGradient id="paint7_linear_33_15726" x1="133.198" y1="103.977" x2="137.204" y2="103.977" gradientUnits="userSpaceOnUse">
<stop stop-color="#79BDFB"/>
<stop offset="1" stop-color="#138CFA"/>
</linearGradient>
<linearGradient id="paint8_linear_33_15726" x1="130.522" y1="102.425" x2="134.529" y2="102.425" gradientUnits="userSpaceOnUse">
<stop stop-color="#79BDFB"/>
<stop offset="1" stop-color="#138CFA"/>
</linearGradient>
<linearGradient id="paint9_linear_33_15726" x1="127.847" y1="100.872" x2="131.866" y2="100.872" gradientUnits="userSpaceOnUse">
<stop stop-color="#79BDFB"/>
<stop offset="1" stop-color="#138CFA"/>
</linearGradient>
<linearGradient id="paint10_linear_33_15726" x1="125.184" y1="99.3203" x2="129.191" y2="99.3203" gradientUnits="userSpaceOnUse">
<stop stop-color="#79BDFB"/>
<stop offset="1" stop-color="#138CFA"/>
</linearGradient>
<linearGradient id="paint11_linear_33_15726" x1="122.509" y1="97.7683" x2="126.515" y2="97.7683" gradientUnits="userSpaceOnUse">
<stop stop-color="#79BDFB"/>
<stop offset="1" stop-color="#138CFA"/>
</linearGradient>
<linearGradient id="paint12_linear_33_15726" x1="119.846" y1="96.2161" x2="123.853" y2="96.2161" gradientUnits="userSpaceOnUse">
<stop stop-color="#79BDFB"/>
<stop offset="1" stop-color="#138CFA"/>
</linearGradient>
<linearGradient id="paint13_linear_33_15726" x1="117.171" y1="94.6511" x2="121.177" y2="94.6511" gradientUnits="userSpaceOnUse">
<stop stop-color="#79BDFB"/>
<stop offset="1" stop-color="#138CFA"/>
</linearGradient>
<linearGradient id="paint14_linear_33_15726" x1="114.495" y1="93.0991" x2="118.515" y2="93.0991" gradientUnits="userSpaceOnUse">
<stop stop-color="#79BDFB"/>
<stop offset="1" stop-color="#138CFA"/>
</linearGradient>
<linearGradient id="paint15_linear_33_15726" x1="141.198" y1="109.422" x2="147.881" y2="109.422" gradientUnits="userSpaceOnUse">
<stop stop-color="#79BDFB"/>
<stop offset="1" stop-color="#138CFA"/>
</linearGradient>
<linearGradient id="paint16_linear_33_15726" x1="106.986" y1="91.6375" x2="112.298" y2="91.6375" gradientUnits="userSpaceOnUse">
<stop stop-color="#79BDFB"/>
<stop offset="1" stop-color="#138CFA"/>
</linearGradient>
<linearGradient id="paint17_linear_33_15726" x1="141.728" y1="111.465" x2="145.709" y2="111.465" gradientUnits="userSpaceOnUse">
<stop stop-color="#79BDFB"/>
<stop offset="1" stop-color="#138CFA"/>
</linearGradient>
<linearGradient id="paint18_linear_33_15726" x1="104.814" y1="93.0733" x2="110.721" y2="93.0733" gradientUnits="userSpaceOnUse">
<stop stop-color="#79BDFB"/>
<stop offset="1" stop-color="#138CFA"/>
</linearGradient>
<linearGradient id="paint19_linear_33_15726" x1="132.306" y1="108.516" x2="136.313" y2="108.516" gradientUnits="userSpaceOnUse">
<stop stop-color="#79BDFB"/>
<stop offset="1" stop-color="#138CFA"/>
</linearGradient>
<linearGradient id="paint20_linear_33_15726" x1="129.411" y1="106.861" x2="133.417" y2="106.861" gradientUnits="userSpaceOnUse">
<stop stop-color="#79BDFB"/>
<stop offset="1" stop-color="#138CFA"/>
</linearGradient>
<linearGradient id="paint21_linear_33_15726" x1="126.515" y1="105.205" x2="130.535" y2="105.205" gradientUnits="userSpaceOnUse">
<stop stop-color="#79BDFB"/>
<stop offset="1" stop-color="#138CFA"/>
</linearGradient>
<linearGradient id="paint22_linear_33_15726" x1="123.62" y1="103.55" x2="127.64" y2="103.55" gradientUnits="userSpaceOnUse">
<stop stop-color="#79BDFB"/>
<stop offset="1" stop-color="#138CFA"/>
</linearGradient>
<linearGradient id="paint23_linear_33_15726" x1="120.738" y1="101.894" x2="124.745" y2="101.894" gradientUnits="userSpaceOnUse">
<stop stop-color="#79BDFB"/>
<stop offset="1" stop-color="#138CFA"/>
</linearGradient>
<linearGradient id="paint24_linear_33_15726" x1="117.843" y1="100.239" x2="121.849" y2="100.239" gradientUnits="userSpaceOnUse">
<stop stop-color="#79BDFB"/>
<stop offset="1" stop-color="#138CFA"/>
</linearGradient>
<linearGradient id="paint25_linear_33_15726" x1="114.947" y1="98.583" x2="118.967" y2="98.583" gradientUnits="userSpaceOnUse">
<stop stop-color="#79BDFB"/>
<stop offset="1" stop-color="#138CFA"/>
</linearGradient>
<linearGradient id="paint26_linear_33_15726" x1="112.065" y1="96.9275" x2="116.072" y2="96.9275" gradientUnits="userSpaceOnUse">
<stop stop-color="#79BDFB"/>
<stop offset="1" stop-color="#138CFA"/>
</linearGradient>
<linearGradient id="paint27_linear_33_15726" x1="109.17" y1="95.272" x2="113.177" y2="95.272" gradientUnits="userSpaceOnUse">
<stop stop-color="#79BDFB"/>
<stop offset="1" stop-color="#138CFA"/>
</linearGradient>
<linearGradient id="paint28_linear_33_15726" x1="135.162" y1="110.185" x2="139.182" y2="110.185" gradientUnits="userSpaceOnUse">
<stop stop-color="#79BDFB"/>
<stop offset="1" stop-color="#138CFA"/>
</linearGradient>
<linearGradient id="paint29_linear_33_15726" x1="137.786" y1="112.216" x2="143.538" y2="112.216" gradientUnits="userSpaceOnUse">
<stop stop-color="#79BDFB"/>
<stop offset="1" stop-color="#138CFA"/>
</linearGradient>
<linearGradient id="paint30_linear_33_15726" x1="102.643" y1="94.5607" x2="109.325" y2="94.5607" gradientUnits="userSpaceOnUse">
<stop stop-color="#79BDFB"/>
<stop offset="1" stop-color="#138CFA"/>
</linearGradient>
<linearGradient id="paint31_linear_33_15726" x1="107.981" y1="96.8887" x2="112.001" y2="96.8887" gradientUnits="userSpaceOnUse">
<stop stop-color="#79BDFB"/>
<stop offset="1" stop-color="#138CFA"/>
</linearGradient>
<linearGradient id="paint32_linear_33_15726" x1="132.021" y1="110.883" x2="136.028" y2="110.883" gradientUnits="userSpaceOnUse">
<stop stop-color="#79BDFB"/>
<stop offset="1" stop-color="#138CFA"/>
</linearGradient>
<linearGradient id="paint33_linear_33_15726" x1="129.346" y1="109.318" x2="133.353" y2="109.318" gradientUnits="userSpaceOnUse">
<stop stop-color="#79BDFB"/>
<stop offset="1" stop-color="#138CFA"/>
</linearGradient>
<linearGradient id="paint34_linear_33_15726" x1="126.683" y1="107.766" x2="130.69" y2="107.766" gradientUnits="userSpaceOnUse">
<stop stop-color="#79BDFB"/>
<stop offset="1" stop-color="#138CFA"/>
</linearGradient>
<linearGradient id="paint35_linear_33_15726" x1="124.008" y1="106.214" x2="128.015" y2="106.214" gradientUnits="userSpaceOnUse">
<stop stop-color="#79BDFB"/>
<stop offset="1" stop-color="#138CFA"/>
</linearGradient>
<linearGradient id="paint36_linear_33_15726" x1="121.332" y1="104.662" x2="125.352" y2="104.662" gradientUnits="userSpaceOnUse">
<stop stop-color="#79BDFB"/>
<stop offset="1" stop-color="#138CFA"/>
</linearGradient>
<linearGradient id="paint37_linear_33_15726" x1="118.67" y1="103.097" x2="122.677" y2="103.097" gradientUnits="userSpaceOnUse">
<stop stop-color="#79BDFB"/>
<stop offset="1" stop-color="#138CFA"/>
</linearGradient>
<linearGradient id="paint38_linear_33_15726" x1="115.994" y1="101.545" x2="120.001" y2="101.545" gradientUnits="userSpaceOnUse">
<stop stop-color="#79BDFB"/>
<stop offset="1" stop-color="#138CFA"/>
</linearGradient>
<linearGradient id="paint39_linear_33_15726" x1="113.332" y1="99.9929" x2="117.339" y2="99.9929" gradientUnits="userSpaceOnUse">
<stop stop-color="#79BDFB"/>
<stop offset="1" stop-color="#138CFA"/>
</linearGradient>
<linearGradient id="paint40_linear_33_15726" x1="110.656" y1="98.428" x2="114.663" y2="98.428" gradientUnits="userSpaceOnUse">
<stop stop-color="#79BDFB"/>
<stop offset="1" stop-color="#138CFA"/>
</linearGradient>
<linearGradient id="paint41_linear_33_15726" x1="134.878" y1="113.263" x2="141.366" y2="113.263" gradientUnits="userSpaceOnUse">
<stop stop-color="#79BDFB"/>
<stop offset="1" stop-color="#138CFA"/>
</linearGradient>
<linearGradient id="paint42_linear_33_15726" x1="100.471" y1="95.052" x2="104.478" y2="95.052" gradientUnits="userSpaceOnUse">
<stop stop-color="#79BDFB"/>
<stop offset="1" stop-color="#138CFA"/>
</linearGradient>
<linearGradient id="paint43_linear_33_15726" x1="103.147" y1="96.6043" x2="107.154" y2="96.6043" gradientUnits="userSpaceOnUse">
<stop stop-color="#79BDFB"/>
<stop offset="1" stop-color="#138CFA"/>
</linearGradient>
<linearGradient id="paint44_linear_33_15726" x1="105.809" y1="98.1563" x2="109.829" y2="98.1563" gradientUnits="userSpaceOnUse">
<stop stop-color="#79BDFB"/>
<stop offset="1" stop-color="#138CFA"/>
</linearGradient>
<linearGradient id="paint45_linear_33_15726" x1="108.433" y1="99.7083" x2="112.44" y2="99.7083" gradientUnits="userSpaceOnUse">
<stop stop-color="#79BDFB"/>
<stop offset="1" stop-color="#138CFA"/>
</linearGradient>
<linearGradient id="paint46_linear_33_15726" x1="111.148" y1="105.93" x2="131.181" y2="105.93" gradientUnits="userSpaceOnUse">
<stop stop-color="#79BDFB"/>
<stop offset="1" stop-color="#138CFA"/>
</linearGradient>
<linearGradient id="paint47_linear_33_15726" x1="129.85" y1="112.397" x2="132.978" y2="112.397" gradientUnits="userSpaceOnUse">
<stop stop-color="#79BDFB"/>
<stop offset="1" stop-color="#138CFA"/>
</linearGradient>
<linearGradient id="paint48_linear_33_15726" x1="132.513" y1="113.703" x2="136.532" y2="113.703" gradientUnits="userSpaceOnUse">
<stop stop-color="#79BDFB"/>
<stop offset="1" stop-color="#138CFA"/>
</linearGradient>
<linearGradient id="paint49_linear_33_15726" x1="135.188" y1="115.501" x2="138.329" y2="115.501" gradientUnits="userSpaceOnUse">
<stop stop-color="#79BDFB"/>
<stop offset="1" stop-color="#138CFA"/>
</linearGradient>
<linearGradient id="paint50_linear_33_15726" x1="138.911" y1="109.823" x2="142.891" y2="109.823" gradientUnits="userSpaceOnUse">
<stop stop-color="#79BDFB"/>
<stop offset="1" stop-color="#138CFA"/>
</linearGradient>
<linearGradient id="paint51_linear_33_15726" x1="136.093" y1="108.193" x2="140.087" y2="108.193" gradientUnits="userSpaceOnUse">
<stop stop-color="#79BDFB"/>
<stop offset="1" stop-color="#138CFA"/>
</linearGradient>
<linearGradient id="paint52_linear_33_15726" x1="133.275" y1="106.551" x2="137.269" y2="106.551" gradientUnits="userSpaceOnUse">
<stop stop-color="#79BDFB"/>
<stop offset="1" stop-color="#138CFA"/>
</linearGradient>
<linearGradient id="paint53_linear_33_15726" x1="130.458" y1="104.908" x2="134.451" y2="104.908" gradientUnits="userSpaceOnUse">
<stop stop-color="#79BDFB"/>
<stop offset="1" stop-color="#138CFA"/>
</linearGradient>
<linearGradient id="paint54_linear_33_15726" x1="127.64" y1="103.278" x2="131.634" y2="103.278" gradientUnits="userSpaceOnUse">
<stop stop-color="#79BDFB"/>
<stop offset="1" stop-color="#138CFA"/>
</linearGradient>
<linearGradient id="paint55_linear_33_15726" x1="124.835" y1="101.636" x2="128.816" y2="101.636" gradientUnits="userSpaceOnUse">
<stop stop-color="#79BDFB"/>
<stop offset="1" stop-color="#138CFA"/>
</linearGradient>
<linearGradient id="paint56_linear_33_15726" x1="122.018" y1="100.006" x2="125.998" y2="100.006" gradientUnits="userSpaceOnUse">
<stop stop-color="#79BDFB"/>
<stop offset="1" stop-color="#138CFA"/>
</linearGradient>
<linearGradient id="paint57_linear_33_15726" x1="119.2" y1="98.3633" x2="123.194" y2="98.3633" gradientUnits="userSpaceOnUse">
<stop stop-color="#79BDFB"/>
<stop offset="1" stop-color="#138CFA"/>
</linearGradient>
<linearGradient id="paint58_linear_33_15726" x1="116.382" y1="96.7336" x2="120.376" y2="96.7336" gradientUnits="userSpaceOnUse">
<stop stop-color="#79BDFB"/>
<stop offset="1" stop-color="#138CFA"/>
</linearGradient>
<linearGradient id="paint59_linear_33_15726" x1="113.565" y1="95.0908" x2="117.558" y2="95.0908" gradientUnits="userSpaceOnUse">
<stop stop-color="#79BDFB"/>
<stop offset="1" stop-color="#138CFA"/>
</linearGradient>
<linearGradient id="paint60_linear_33_15726" x1="110.747" y1="93.4612" x2="114.741" y2="93.4612" gradientUnits="userSpaceOnUse">
<stop stop-color="#79BDFB"/>
<stop offset="1" stop-color="#138CFA"/>
</linearGradient>
<linearGradient id="paint61_linear_33_15726" x1="143.46" y1="107.546" x2="146.743" y2="107.546" gradientUnits="userSpaceOnUse">
<stop stop-color="#79BDFB"/>
<stop offset="1" stop-color="#138CFA"/>
</linearGradient>
<linearGradient id="paint62_linear_33_15726" x1="140.785" y1="105.981" x2="144.068" y2="105.981" gradientUnits="userSpaceOnUse">
<stop stop-color="#79BDFB"/>
<stop offset="1" stop-color="#138CFA"/>
</linearGradient>
<linearGradient id="paint63_linear_33_15726" x1="138.122" y1="104.429" x2="141.392" y2="104.429" gradientUnits="userSpaceOnUse">
<stop stop-color="#79BDFB"/>
<stop offset="1" stop-color="#138CFA"/>
</linearGradient>
<linearGradient id="paint64_linear_33_15726" x1="135.447" y1="102.877" x2="138.73" y2="102.877" gradientUnits="userSpaceOnUse">
<stop stop-color="#79BDFB"/>
<stop offset="1" stop-color="#138CFA"/>
</linearGradient>
<linearGradient id="paint65_linear_33_15726" x1="132.784" y1="101.312" x2="136.054" y2="101.312" gradientUnits="userSpaceOnUse">
<stop stop-color="#79BDFB"/>
<stop offset="1" stop-color="#138CFA"/>
</linearGradient>
<linearGradient id="paint66_linear_33_15726" x1="130.109" y1="99.7601" x2="133.392" y2="99.7601" gradientUnits="userSpaceOnUse">
<stop stop-color="#79BDFB"/>
<stop offset="1" stop-color="#138CFA"/>
</linearGradient>
<linearGradient id="paint67_linear_33_15726" x1="127.433" y1="98.2081" x2="130.716" y2="98.2081" gradientUnits="userSpaceOnUse">
<stop stop-color="#79BDFB"/>
<stop offset="1" stop-color="#138CFA"/>
</linearGradient>
<linearGradient id="paint68_linear_33_15726" x1="124.771" y1="96.6429" x2="128.041" y2="96.6429" gradientUnits="userSpaceOnUse">
<stop stop-color="#79BDFB"/>
<stop offset="1" stop-color="#138CFA"/>
</linearGradient>
<linearGradient id="paint69_linear_33_15726" x1="122.095" y1="95.0909" x2="125.378" y2="95.0909" gradientUnits="userSpaceOnUse">
<stop stop-color="#79BDFB"/>
<stop offset="1" stop-color="#138CFA"/>
</linearGradient>
<linearGradient id="paint70_linear_33_15726" x1="119.42" y1="93.5389" x2="122.703" y2="93.5389" gradientUnits="userSpaceOnUse">
<stop stop-color="#79BDFB"/>
<stop offset="1" stop-color="#138CFA"/>
</linearGradient>
<linearGradient id="paint71_linear_33_15726" x1="116.757" y1="91.9737" x2="120.027" y2="91.9737" gradientUnits="userSpaceOnUse">
<stop stop-color="#79BDFB"/>
<stop offset="1" stop-color="#138CFA"/>
</linearGradient>
<clipPath id="clip0_33_15726">
<rect width="224.146" height="222" fill="white" transform="translate(20 19)"/>
</clipPath>
</defs>
</svg>
