<svg width="24" height="40" viewBox="0 0 24 40" fill="none" xmlns="http://www.w3.org/2000/svg">
<path d="M12 19.5C11.337 19.5 10.7011 19.2366 10.2322 18.7678C9.76339 18.2989 9.5 17.663 9.5 17C9.5 16.337 9.76339 15.7011 10.2322 15.2322C10.7011 14.7634 11.337 14.5 12 14.5C12.663 14.5 13.2989 14.7634 13.7678 15.2322C14.2366 15.7011 14.5 16.337 14.5 17C14.5 17.3283 14.4353 17.6534 14.3097 17.9567C14.1841 18.26 13.9999 18.5356 13.7678 18.7678C13.5356 18.9999 13.26 19.1841 12.9567 19.3097C12.6534 19.4353 12.3283 19.5 12 19.5ZM12 10C10.1435 10 8.36301 10.7375 7.05025 12.0503C5.7375 13.363 5 15.1435 5 17C5 22.25 12 30 12 30C12 30 19 22.25 19 17C19 15.1435 18.2625 13.363 16.9497 12.0503C15.637 10.7375 13.8565 10 12 10Z" fill="#DF2E38"/>
</svg>
