<svg xmlns="http://www.w3.org/2000/svg" width="150" height="72" viewBox="0 0 150 72" fill="none">
  <path d="M78.5311 21.1981C78.2902 22.5516 78.0915 23.668 77.8964 24.7843C77.8508 25.0428 77.805 25.303 77.7822 25.5648C77.7153 26.3419 77.8086 27.0415 78.6823 27.351C79.5561 27.6586 80.5474 27.4037 81.0328 26.6531C81.2787 26.2715 81.4546 25.8093 81.5355 25.3592C82.0839 22.3689 82.6061 19.3732 83.1228 16.376C83.3391 15.1208 82.7573 14.3719 81.4722 14.3595C78.4255 14.328 75.3791 14.3455 72.3325 14.3562C72.046 14.3579 71.7507 14.4265 71.4746 14.5143C70.4902 14.829 69.9312 15.7431 70.0682 16.7733C70.1772 17.5996 70.8154 18.0637 71.9669 18.0829C73.3961 18.1076 74.827 18.0881 76.3723 18.2764C75.7974 18.7755 75.2543 19.3189 74.6425 19.7689C71.603 22.0014 68.3209 23.5467 64.4164 23.3112C60.6719 23.0862 57.9507 20.2347 57.8206 16.5061C57.5814 9.63588 62.2436 3.69236 68.1082 1.07111C72.3026 -0.802713 76.3794 0.0269089 80.3523 1.68302C84.6945 3.49368 87.9853 6.57189 90.1266 10.7574C93.0606 16.4902 93.2488 22.3707 90.6382 28.2827C88.7343 32.5931 85.6316 35.8102 81.4354 37.9339C79.0128 39.1609 76.4409 39.8535 73.7002 40.0242C68.7181 40.3353 64.2353 39.0132 60.3152 35.986C55.7954 32.4965 53.1497 27.896 52.5292 22.1578C52.2057 19.1606 52.5624 16.267 53.51 13.4279C53.5523 13.2997 53.6437 13.1853 53.8616 13.1079C53.7175 13.8656 53.5207 14.618 53.4379 15.3828C53.0723 18.7245 53.2674 21.9539 55.6442 24.6367C57.1895 26.3787 59.2128 27.2366 61.47 27.5988C65.313 28.216 68.8816 27.2402 72.2024 25.44C74.217 24.3466 76.0243 22.8735 77.9263 21.5708C78.0441 21.4934 78.1654 21.4248 78.5311 21.1981Z" fill="#3D3652"/>
  <path d="M70.2904 60.7345C71.6968 58.2611 72.9924 55.9705 74.3039 53.6867C74.55 53.2578 74.8154 52.8253 75.146 52.4598C75.9248 51.5931 76.744 51.5157 78.0975 52.1134C78.8343 51.2608 79.5092 50.3396 80.3214 49.5608C83.7407 46.2787 89.9973 46.1099 93.1406 49.2444C93.6521 49.7559 93.9877 50.5734 94.1233 51.3012C94.2973 52.2452 93.7504 52.8711 92.7783 53.0117C92.4372 53.061 91.859 52.8799 91.7042 52.6179C89.9532 49.6453 85.1277 49.3517 82.5347 52.1785C80.5692 54.3215 79.9945 58.1011 81.3041 60.541C82.3236 62.4397 84.6952 63.389 87.0808 62.8563C89.069 62.4115 90.5898 60.6887 90.7111 58.6285C89.6052 58.6285 88.5047 58.6319 87.4043 58.6266C86.2034 58.6214 85.6411 58.2556 85.6551 57.5015C85.6779 56.308 86.2528 55.7191 87.4499 55.7103C89.1779 55.698 90.9062 55.6996 92.6342 55.7084C93.979 55.7155 94.5064 56.3325 94.2778 57.651C93.8859 59.9276 93.4814 62.2024 93.0525 64.4737C92.9611 64.9535 93.0105 65.583 92.2597 65.6604C91.4828 65.7411 90.7901 65.6217 90.3365 64.9079C90.1993 64.6917 90.1132 64.442 89.9954 64.1889C86.7871 66.5515 83.4718 66.4935 80.1966 64.5685C77.5209 62.9969 76.5031 59.9996 76.932 55.6258C74.376 59.9521 71.8779 64.1835 69.3782 68.4131C69.1408 68.8157 68.8807 69.2078 68.668 69.6244C68.0596 70.8163 67.1051 71.2787 65.7849 71.1398C64.7846 71.0344 64.4715 70.5509 64.9866 69.6736C65.7426 68.3868 66.5074 67.1017 67.3442 65.8659C67.8697 65.089 68.0349 64.4051 67.7643 63.4381C66.8607 60.2001 66.1013 56.9214 65.2874 53.6568C65.0113 52.5495 65.1977 52.1996 66.2577 51.8198C67.1702 51.4929 68.0807 51.7759 68.4112 52.6057C68.6889 53.3053 68.8384 54.0613 69.0036 54.8014C69.4326 56.7175 69.837 58.6337 70.2904 60.7345Z" fill="#3D3652"/>
  <path d="M16.1533 52.6324C14.6923 55.018 13.3687 57.1785 12.0466 59.3407C11.8322 59.6906 11.6248 60.0439 11.405 60.3885C10.7562 61.4028 9.28666 61.8704 8.26338 61.2587C7.87858 61.0284 7.58308 60.4747 7.45655 60.0106C6.81494 57.6706 6.24359 55.3133 5.48946 52.9453C5.27677 54.0897 5.0553 55.2324 4.85119 56.3786C4.40658 58.8836 3.98455 61.3904 3.5276 63.894C3.3078 65.0981 2.86486 65.5691 2.00345 65.6572C0.449389 65.8153 -0.211675 65.1333 0.0591502 63.5968C0.879991 58.9311 1.70815 54.2656 2.55367 49.6053C2.83495 48.0512 3.42198 47.4006 4.60525 47.2021C6.44038 46.8926 7.19995 47.3797 7.66756 49.192C8.27404 51.5424 8.86651 53.8946 9.47111 56.245C9.56438 56.6105 9.69447 56.9675 9.84379 57.4404C10.0496 57.2101 10.22 57.066 10.3309 56.8866C11.9571 54.2444 13.5866 51.6039 15.1934 48.9513C16.1936 47.3004 17.4382 46.7853 19.2719 47.3163C20.1544 47.5712 20.4919 48.3218 20.2738 49.5419C19.9681 51.24 19.6604 52.9365 19.3561 54.6347C18.7971 57.7428 18.2381 60.8509 17.6862 63.9607C17.5367 64.7993 17.2098 65.4813 16.2781 65.6448C14.7134 65.9173 14.0015 65.2263 14.2705 63.6091C14.7293 60.8402 15.2513 58.0803 15.7384 55.3169C15.8756 54.5098 15.9862 53.7013 16.1533 52.6324Z" fill="#3D3652"/>
  <path d="M127.125 53.562C129.983 50.475 133.951 51.0587 135.484 54.2072C135.865 53.7958 136.219 53.3844 136.606 53.0063C138.216 51.4366 140.707 51.0692 142.713 52.0958C144.295 52.9062 145.146 54.8699 144.794 57.099C144.416 59.4967 143.991 61.8894 143.553 64.2766C143.314 65.5812 141.44 66.2684 140.526 65.3244C140.183 64.9712 140.113 64.1888 140.179 63.6334C140.352 62.183 140.684 60.7538 140.921 59.3104C141.044 58.5615 141.166 57.8038 141.18 57.0461C141.218 55.0192 139.559 53.9435 137.713 54.8065C136.63 55.3145 135.883 56.1444 135.672 57.382C135.313 59.4863 134.946 61.5889 134.573 63.6913C134.292 65.2805 133.86 65.6902 132.525 65.6619C131.3 65.6375 130.818 65.11 131.006 63.8672C131.288 62.0159 131.636 60.1754 131.942 58.3296C132.017 57.8689 132.072 57.3996 132.068 56.9336C132.052 55.1512 130.887 54.244 129.159 54.6484C127.916 54.9385 126.868 56.1216 126.654 57.3908C126.272 59.641 125.866 61.8859 125.446 64.129C125.289 64.9588 124.919 65.5988 123.925 65.6672C122.15 65.792 121.744 64.8867 121.993 63.6051C122.707 59.9311 123.324 56.2376 123.962 52.5494C124.08 51.8636 124.528 51.7127 125.105 51.7407C126.184 51.7881 126.687 52.2522 127.125 53.562Z" fill="#3D3652"/>
  <path d="M117.649 53.6937C118.036 52.8026 118.493 51.9816 119.549 51.8128C119.832 51.767 120.128 51.7636 120.412 51.7936C121.151 51.8707 121.437 52.1731 121.289 53.0189C120.629 56.7598 120.05 60.5164 119.444 64.268C119.275 65.3122 118.728 65.7253 117.582 65.6586C116.628 65.6023 116.249 65.1891 116.183 64.1325C116.176 64.0236 116.156 63.9146 116.112 63.5666C115.849 63.9075 115.708 64.1221 115.536 64.3067C113.126 66.905 107.497 66.4813 106.196 61.9369C105.222 58.5334 106.429 54.8594 109.226 52.7815C111.519 51.0798 115.446 50.9286 117.383 53.5268C117.431 53.59 117.524 53.6182 117.649 53.6937ZM116.784 58.4579C116.796 56.4714 116.448 55.262 115.119 54.6168C113.734 53.9451 112.373 54.1333 111.151 55.0386C109.64 56.1585 109.126 57.7758 109.107 59.5743C109.093 60.8523 109.374 62.074 110.622 62.7104C111.979 63.4012 113.363 63.2571 114.611 62.3921C116.188 61.3005 116.752 59.6885 116.784 58.4579Z" fill="#3D3652"/>
  <path d="M58.7717 59.5177C57.4251 59.5177 56.0768 59.5511 54.7319 59.5053C53.918 59.479 53.7774 59.8607 53.9215 60.5338C54.2011 61.8489 55.3263 62.9282 56.7325 63.0794C58.6259 63.2833 60.4067 63.0583 61.8411 61.5711C62.0592 61.3461 62.6515 61.2899 62.9821 61.4076C63.5955 61.6255 63.9297 62.2602 63.6817 62.8316C63.3935 63.4943 62.9575 64.2501 62.3686 64.5983C59.5066 66.2858 56.4654 66.5215 53.5014 64.9534C51.1704 63.7193 50.4372 61.5094 50.671 58.9833C51.1685 53.6373 54.9605 50.9811 59.9267 51.6052C63.5938 52.0657 64.8051 54.7169 64.5941 58.078C64.5379 58.9817 63.8716 59.5001 62.8995 59.516C61.5247 59.5388 60.1482 59.5212 58.7717 59.5212V59.5177ZM54.2977 57.1145C56.3529 57.1145 58.3041 57.1164 60.2555 57.1145C61.632 57.1129 61.9009 56.6716 61.1924 55.4603C60.9816 55.1 60.6405 54.7624 60.2783 54.5533C58.2953 53.4 55.0519 54.7221 54.2977 57.1145Z" fill="#3D3652"/>
  <path d="M40.408 53.7065C41.8759 51.9592 43.6355 51.1944 45.7803 51.6393C48.296 52.1596 49.7902 54.3078 49.4052 56.8446C49.0361 59.2724 48.5896 61.6895 48.136 64.1031C47.874 65.499 46.6541 66.0949 45.3443 65.5306C44.4337 65.1387 44.5937 64.3476 44.7044 63.6409C44.9716 61.9357 45.3075 60.2427 45.6028 58.5427C45.6731 58.1401 45.7222 57.7306 45.7293 57.3245C45.7732 54.9724 43.9063 53.8103 41.8037 54.9178C40.779 55.4576 40.0688 56.3259 39.8525 57.4881C39.4568 59.6151 39.1247 61.7545 38.7414 63.8852C38.4936 65.2688 38.026 65.6747 36.799 65.6659C35.4821 65.6555 34.9864 65.0825 35.215 63.7745C35.6879 61.0671 36.1802 58.3635 36.6618 55.6563C36.8094 54.8212 36.9343 53.9826 37.0907 53.1475C37.198 52.5726 37.1012 51.8766 37.9873 51.7693C38.8259 51.6692 39.6978 52.0559 40.0493 52.7836C40.1758 53.0402 40.2603 53.3198 40.408 53.7065Z" fill="#3D3652"/>
  <path d="M26.9109 65.8608C22.8536 65.8573 20.2254 63.259 20.2218 59.2456C20.2166 54.8666 23.4671 51.5316 27.746 51.5247C31.749 51.5194 34.4156 54.188 34.3876 58.1995C34.3541 62.7985 31.0492 66.0489 26.9109 65.8608ZM23.4389 59.1243C23.409 60.9596 24.2317 62.366 25.6258 62.8669C27.3012 63.47 29.0786 62.9531 30.1686 61.5203C31.1019 60.2917 31.3673 58.8993 31.1546 57.3839C30.9543 55.9652 30.1491 54.9931 28.8623 54.5307C27.5824 54.0719 26.2904 54.2881 25.2356 55.1864C24.0402 56.2044 23.4337 57.5387 23.4389 59.1243Z" fill="#3D3652"/>
  <path d="M100.538 53.4455C101.197 52.9233 101.826 52.3168 102.554 51.8739C103.338 51.3958 104.231 51.4167 105.101 51.7367C106.452 52.2325 106.87 53.5053 106.082 54.7183C105.578 55.4952 105.184 55.592 104.374 55.1384C103.242 54.5037 102.011 54.7586 101.181 55.8469C100.188 57.1461 99.8909 58.707 99.5973 60.2627C99.353 61.5566 99.128 62.8522 98.8959 64.148C98.6321 65.6247 97.7216 65.971 96.1799 65.4963C95.4626 65.2748 95.285 64.6664 95.4203 63.9282C96.0023 60.7657 96.563 57.5978 97.1291 54.4334C97.2117 53.9729 97.2787 53.5105 97.3594 53.0481C97.4579 52.4803 97.4351 51.8456 98.2471 51.7402C99.0454 51.6384 99.9296 52.0232 100.264 52.6966C100.397 52.9726 100.476 53.2784 100.538 53.4455Z" fill="#3D3652"/>
  <path fill-rule="evenodd" clip-rule="evenodd" d="M148.199 63.3282C148.506 63.3282 148.677 63.1423 148.671 62.8384C148.668 62.6132 148.522 62.4936 148.258 62.4936H147.874L147.731 63.3282H148.199ZM148.515 64.0627C148.616 64.2543 148.673 64.3329 148.818 64.3358C148.827 64.3427 148.845 64.568 148.607 64.568C148.464 64.568 148.373 64.4977 148.22 64.188L147.938 63.6265H147.687L147.557 64.3894C147.534 64.5061 147.491 64.5638 147.396 64.5638H147.35C147.259 64.5638 147.209 64.4962 147.23 64.3752L147.567 62.3936C147.585 62.2573 147.661 62.1841 147.776 62.1841H148.28C148.753 62.1841 149.003 62.4007 149.007 62.8019C149.014 63.2818 148.738 63.583 148.268 63.5997L148.515 64.0627Z" fill="#3D3652"/>
  <path fill-rule="evenodd" clip-rule="evenodd" d="M148.012 61.5889C146.916 61.5889 146.027 62.4817 146.027 63.5756C146.027 64.6708 146.916 65.5624 148.012 65.5624C149.108 65.5624 150 64.6708 150 63.5756C150 62.4817 149.108 61.5889 148.012 61.5889ZM148.012 61.8704C148.956 61.8704 149.718 62.6345 149.718 63.5756C149.718 64.5167 148.956 65.2809 148.012 65.2809C147.069 65.2809 146.306 64.5167 146.306 63.5756C146.306 62.6345 147.069 61.8704 148.012 61.8704Z" fill="#3D3652"/>
</svg>