<svg width="20" height="16" viewBox="0 0 20 16" fill="none" xmlns="http://www.w3.org/2000/svg">
<path d="M19.9898 14.9141V14.9041C19.9798 14.885 19.9641 14.8678 19.944 14.854L19.3085 14.3684C19.2668 14.3411 19.213 14.3268 19.1581 14.3284C19.1031 14.33 19.051 14.3475 19.0121 14.3772C18.9732 14.4069 18.9504 14.4467 18.9483 14.4887C18.9462 14.5307 18.9649 14.5718 19.0006 14.6037L19.2649 14.8056H1.07456V0.56453L1.33879 0.766449C1.3797 0.797529 1.43505 0.814975 1.49274 0.814975C1.55043 0.814975 1.60578 0.797529 1.64669 0.766449C1.68736 0.735183 1.71019 0.692888 1.71019 0.648802C1.71019 0.604716 1.68736 0.562421 1.64669 0.531155L1.00905 0.0438802C0.980653 0.0225357 0.945162 0.00753199 0.906413 0.00049269H0.880208C0.845286 -0.0014846 0.810226 0.00250571 0.777574 0.0121739C0.750313 0.0202138 0.725708 0.032749 0.705511 0.0488864L0.0635006 0.531155C0.0228288 0.562421 0 0.604716 0 0.648802C0 0.692888 0.0228288 0.735183 0.0635006 0.766449C0.083801 0.78209 0.107953 0.794504 0.134564 0.802976C0.161174 0.811448 0.189716 0.81581 0.218544 0.81581C0.247372 0.81581 0.275914 0.811448 0.302524 0.802976C0.329135 0.794504 0.353287 0.78209 0.373587 0.766449L0.637816 0.56453V14.9708C0.637816 15.0151 0.660823 15.0576 0.701776 15.0888C0.742728 15.1201 0.798272 15.1377 0.856187 15.1377H19.2583L18.9941 15.3413C18.9529 15.3721 18.9294 15.4141 18.9286 15.4581C18.9287 15.4802 18.9345 15.502 18.9458 15.5224C18.957 15.5427 18.9734 15.5611 18.9941 15.5766C19.0347 15.6074 19.0896 15.6248 19.1469 15.625C19.1757 15.6251 19.2042 15.6209 19.2308 15.6126C19.2574 15.6043 19.2816 15.5921 19.302 15.5766L19.9396 15.0893C19.9664 15.0679 19.9853 15.0414 19.9942 15.0126C19.9942 15.0126 19.9942 15.0126 19.9942 15.0026C20.0032 14.9733 20.0017 14.9428 19.9898 14.9141Z" fill="#5F5F5F"/>
<path d="M16.9677 6.88243H15.391C15.3331 6.88243 15.2776 6.90001 15.2366 6.93131C15.1957 6.9626 15.1727 7.00505 15.1727 7.04931V7.71681L13.8056 5.64088V4.30588C13.8056 4.26162 13.7826 4.21918 13.7417 4.18788C13.7007 4.15659 13.6452 4.13901 13.5873 4.13901H12.0106C11.9527 4.13901 11.8972 4.15659 11.8562 4.18788C11.8153 4.21918 11.7923 4.26162 11.7923 4.30588V5.64088L10.4253 9.31213V9.11689C10.4253 9.07263 10.4023 9.03018 10.3613 8.99889C10.3204 8.96759 10.2648 8.95001 10.2069 8.95001H8.63026C8.57234 8.95001 8.5168 8.96759 8.47585 8.99889C8.43489 9.03018 8.41189 9.07263 8.41189 9.11689V10.2249L7.04488 9.70262V8.08393C7.04488 8.03967 7.02188 7.99723 6.98093 7.96593C6.93997 7.93464 6.88443 7.91706 6.82651 7.91706H5.24988C5.19196 7.91706 5.13642 7.93464 5.09546 7.96593C5.05451 7.99723 5.0315 8.03967 5.0315 8.08393V9.19031L3.66887 8.66799V7.39474C3.66887 7.35048 3.64586 7.30803 3.60491 7.27674C3.56396 7.24544 3.50841 7.22786 3.4505 7.22786H1.86949C1.81158 7.22786 1.75603 7.24544 1.71508 7.27674C1.67413 7.30803 1.65112 7.35048 1.65112 7.39474V10.1465C1.65112 10.1908 1.67413 10.2332 1.71508 10.2645C1.75603 10.2958 1.81158 10.3134 1.86949 10.3134H2.43944V10.6471C2.43944 10.669 2.44509 10.6907 2.45606 10.711C2.46704 10.7312 2.48312 10.7496 2.5034 10.7651C2.52368 10.7806 2.54775 10.7929 2.57425 10.8013C2.60074 10.8097 2.62914 10.814 2.65781 10.814C2.68649 10.814 2.71489 10.8097 2.74138 10.8013C2.76787 10.7929 2.79195 10.7806 2.81222 10.7651C2.8325 10.7496 2.84859 10.7312 2.85956 10.711C2.87054 10.6907 2.87618 10.669 2.87618 10.6471V10.3134H3.4505C3.50841 10.3134 3.56396 10.2958 3.60491 10.2645C3.64586 10.2332 3.66887 10.1908 3.66887 10.1465V9.04179L5.03587 9.56411V10.839C5.03587 10.8833 5.05888 10.9257 5.09983 10.957C5.14078 10.9883 5.19633 11.0059 5.25424 11.0059H5.82419V11.3397C5.82419 11.3839 5.8472 11.4264 5.88815 11.4577C5.9291 11.489 5.98465 11.5065 6.04256 11.5065C6.10048 11.5065 6.15602 11.489 6.19697 11.4577C6.23793 11.4264 6.26093 11.3839 6.26093 11.3397V11.0059H6.83088C6.8888 11.0059 6.94434 10.9883 6.98529 10.957C7.02625 10.9257 7.04925 10.8833 7.04925 10.839V10.0764L8.41625 10.5987V11.872C8.41625 11.9163 8.43926 11.9587 8.48021 11.99C8.52117 12.0213 8.57671 12.0389 8.63463 12.0389H9.20457V12.3726C9.20457 12.4169 9.22758 12.4593 9.26853 12.4906C9.30949 12.5219 9.36503 12.5395 9.42294 12.5395C9.48086 12.5395 9.5364 12.5219 9.57736 12.4906C9.61831 12.4593 9.64131 12.4169 9.64131 12.3726V12.0389H10.2113C10.2692 12.0389 10.3247 12.0213 10.3657 11.99C10.4066 11.9587 10.4296 11.9163 10.4296 11.872V10.5203L11.7923 6.86074V7.04931C11.7923 7.09356 11.8153 7.13601 11.8562 7.16731C11.8972 7.1986 11.9527 7.21618 12.0106 7.21618H12.5806V7.54993C12.5806 7.59419 12.6036 7.63663 12.6445 7.66793C12.6855 7.69923 12.741 7.71681 12.799 7.71681C12.8569 7.71681 12.9124 7.69923 12.9534 7.66793C12.9943 7.63663 13.0173 7.59419 13.0173 7.54993V7.21618H13.5873C13.6452 7.21618 13.7007 7.1986 13.7417 7.16731C13.7826 7.13601 13.8056 7.09356 13.8056 7.04931V6.38181L15.1727 8.47776V9.81276C15.1727 9.85701 15.1957 9.89946 15.2366 9.93075C15.2776 9.96205 15.3331 9.97963 15.391 9.97963H15.961V10.3134C15.961 10.3576 15.984 10.4001 16.0249 10.4314C16.0659 10.4627 16.1214 10.4803 16.1793 10.4803C16.2373 10.4803 16.2928 10.4627 16.3338 10.4314C16.3747 10.4001 16.3977 10.3576 16.3977 10.3134V9.97963H16.9677C17.0256 9.97963 17.0811 9.96205 17.1221 9.93075C17.163 9.89946 17.186 9.85701 17.186 9.81276V7.04931C17.186 7.00505 17.163 6.9626 17.1221 6.93131C17.0811 6.90001 17.0256 6.88243 16.9677 6.88243ZM3.23213 9.97963H2.08786V7.56161H3.23213V9.97963ZM6.61251 10.6688H5.46825V8.25081H6.60814L6.61251 10.6688ZM9.99289 11.7018H8.84863V9.28376H9.98853L9.99289 11.7018ZM13.3733 6.87909H12.229V4.46108H13.3689L13.3733 6.87909ZM16.7493 9.64588H15.6094V7.21618H16.7493V9.64588ZM2.65781 13.3171C2.5999 13.3171 2.54435 13.3347 2.5034 13.366C2.46245 13.3973 2.43944 13.4397 2.43944 13.484V13.9846C2.43944 14.0289 2.46245 14.0713 2.5034 14.1026C2.54435 14.1339 2.5999 14.1515 2.65781 14.1515C2.71573 14.1515 2.77127 14.1339 2.81222 14.1026C2.85318 14.0713 2.87618 14.0289 2.87618 13.9846V13.484C2.87618 13.4397 2.85318 13.3973 2.81222 13.366C2.77127 13.3347 2.71573 13.3171 2.65781 13.3171ZM2.87618 11.8153C2.87618 11.771 2.85318 11.7286 2.81222 11.6973C2.77127 11.666 2.71573 11.6484 2.65781 11.6484C2.5999 11.6484 2.54435 11.666 2.5034 11.6973C2.46245 11.7286 2.43944 11.771 2.43944 11.8153V12.3159C2.43944 12.3601 2.46245 12.4026 2.5034 12.4339C2.54435 12.4652 2.5999 12.4828 2.65781 12.4828C2.71573 12.4828 2.77127 12.4652 2.81222 12.4339C2.85318 12.4026 2.87618 12.3601 2.87618 12.3159V11.8153ZM6.25657 12.5078C6.25657 12.4635 6.23356 12.4211 6.19261 12.3898C6.15165 12.3585 6.09611 12.3409 6.0382 12.3409C5.98028 12.3409 5.92474 12.3585 5.88378 12.3898C5.84283 12.4211 5.81982 12.4635 5.81982 12.5078V13.0084C5.81982 13.0527 5.84283 13.0951 5.88378 13.1264C5.92474 13.1577 5.98028 13.1753 6.0382 13.1753C6.09611 13.1753 6.15165 13.1577 6.19261 13.1264C6.23356 13.0951 6.25657 13.0527 6.25657 13.0084V12.5078ZM6.0382 14.0097C5.98028 14.0097 5.92474 14.0272 5.88378 14.0585C5.84283 14.0898 5.81982 14.1323 5.81982 14.1765V14.6321C5.81982 14.6764 5.84283 14.7188 5.88378 14.7501C5.92474 14.7814 5.98028 14.799 6.0382 14.799C6.09611 14.799 6.15165 14.7814 6.19261 14.7501C6.23356 14.7188 6.25657 14.6764 6.25657 14.6321V14.1765C6.25657 14.1323 6.23356 14.0898 6.19261 14.0585C6.15165 14.0272 6.09611 14.0097 6.0382 14.0097ZM9.41858 13.3739C9.36066 13.3739 9.30512 13.3914 9.26417 13.4227C9.22321 13.454 9.20021 13.4965 9.20021 13.5407V14.0414C9.20021 14.0856 9.22321 14.1281 9.26417 14.1594C9.30512 14.1907 9.36066 14.2082 9.41858 14.2082C9.47649 14.2082 9.53204 14.1907 9.57299 14.1594C9.61394 14.1281 9.63695 14.0856 9.63695 14.0414V13.5407C9.63695 13.4965 9.61394 13.454 9.57299 13.4227C9.53204 13.3914 9.47649 13.3739 9.41858 13.3739ZM12.799 13.5591C12.741 13.5591 12.6855 13.5767 12.6445 13.608C12.6036 13.6393 12.5806 13.6817 12.5806 13.726V14.2266C12.5806 14.2709 12.6036 14.3133 12.6445 14.3446C12.6855 14.3759 12.741 14.3935 12.799 14.3935C12.8569 14.3935 12.9124 14.3759 12.9534 14.3446C12.9943 14.3133 13.0173 14.2709 13.0173 14.2266V13.726C13.0173 13.6817 12.9943 13.6393 12.9534 13.608C12.9124 13.5767 12.8569 13.5591 12.799 13.5591Z" fill="#5F5F5F"/>
<path d="M13.0173 10.3885C13.0173 10.3442 12.9943 10.3018 12.9533 10.2705C12.9124 10.2392 12.8568 10.2216 12.7989 10.2216C12.741 10.2216 12.6855 10.2392 12.6445 10.2705C12.6036 10.3018 12.5806 10.3442 12.5806 10.3885V10.8891C12.5806 10.9334 12.6036 10.9758 12.6445 11.0071C12.6855 11.0384 12.741 11.056 12.7989 11.056C12.8568 11.056 12.9124 11.0384 12.9533 11.0071C12.9943 10.9758 13.0173 10.9334 13.0173 10.8891V10.3885ZM13.0173 8.71972C13.0173 8.67546 12.9943 8.63302 12.9533 8.60172C12.9124 8.57043 12.8568 8.55285 12.7989 8.55285C12.741 8.55285 12.6855 8.57043 12.6445 8.60172C12.6036 8.63302 12.5806 8.67546 12.5806 8.71972V9.22035C12.5806 9.2646 12.6036 9.30705 12.6445 9.33834C12.6855 9.36964 12.741 9.38722 12.7989 9.38722C12.8568 9.38722 12.9124 9.36964 12.9533 9.33834C12.9943 9.30705 13.0173 9.2646 13.0173 9.22035V8.71972ZM13.0173 12.0572C13.0173 12.013 12.9943 11.9705 12.9533 11.9392C12.9124 11.9079 12.8568 11.8903 12.7989 11.8903C12.741 11.8903 12.6855 11.9079 12.6445 11.9392C12.6036 11.9705 12.5806 12.013 12.5806 12.0572V12.5578C12.5806 12.6021 12.6036 12.6445 12.6445 12.6758C12.6855 12.7071 12.741 12.7247 12.7989 12.7247C12.8568 12.7247 12.9124 12.7071 12.9533 12.6758C12.9943 12.6445 13.0173 12.6021 13.0173 12.5578V12.0572ZM16.1793 12.9834C16.1214 12.9834 16.0658 13.001 16.0249 13.0323C15.9839 13.0635 15.9609 13.106 15.9609 13.1503V13.6509C15.9609 13.6951 15.9839 13.7376 16.0249 13.7689C16.0658 13.8002 16.1214 13.8178 16.1793 13.8178C16.2372 13.8178 16.2928 13.8002 16.3337 13.7689C16.3747 13.7376 16.3977 13.6951 16.3977 13.6509V13.1503C16.3977 13.106 16.3747 13.0635 16.3337 13.0323C16.2928 13.001 16.2372 12.9834 16.1793 12.9834ZM16.3977 11.4815C16.3977 11.4372 16.3747 11.3948 16.3337 11.3635C16.2928 11.3322 16.2372 11.3146 16.1793 11.3146C16.1214 11.3146 16.0658 11.3322 16.0249 11.3635C15.9839 11.3948 15.9609 11.4372 15.9609 11.4815V11.9821C15.9609 12.0264 15.9839 12.0688 16.0249 12.1001C16.0658 12.1314 16.1214 12.149 16.1793 12.149C16.2372 12.149 16.2928 12.1314 16.3337 12.1001C16.3747 12.0688 16.3977 12.0264 16.3977 11.9821V11.4815ZM16.1793 0.134003C16.0764 0.134222 15.9745 0.149934 15.8795 0.180243C15.7845 0.210552 15.6982 0.254864 15.6256 0.310649C15.553 0.366434 15.4955 0.432599 15.4564 0.505367C15.4172 0.578135 15.3973 0.65608 15.3975 0.734753C15.3972 0.836379 15.431 0.936371 15.4958 1.02512L13.1702 2.82236C13.0129 2.75736 12.8312 2.73565 12.6554 2.76087C12.4797 2.78609 12.3207 2.8567 12.205 2.96086L10.1916 2.25832C10.1948 2.23001 10.1948 2.20153 10.1916 2.17321C10.1916 2.01477 10.1092 1.86282 9.9626 1.75078C9.81599 1.63874 9.61715 1.5758 9.40981 1.5758C9.20247 1.5758 9.00362 1.63874 8.85701 1.75078C8.7104 1.86282 8.62804 2.01477 8.62804 2.17321C8.62954 2.25022 8.65106 2.32624 8.69137 2.39683L6.49237 3.72181C6.36019 3.64887 6.20121 3.60974 6.03816 3.61001C5.831 3.61045 5.63249 3.67353 5.486 3.78547C5.33952 3.89741 5.25697 4.04911 5.25639 4.20742C5.25621 4.28655 5.27701 4.36489 5.31754 4.43771L3.1775 5.75268C3.07691 5.69872 2.9611 5.66364 2.83944 5.65028C2.71779 5.63693 2.59373 5.64569 2.47734 5.67584C2.36094 5.70599 2.25549 5.75668 2.16953 5.82381C2.08358 5.89094 2.01955 5.97261 1.98263 6.06219C1.94572 6.15177 1.93696 6.24674 1.95707 6.33939C1.97719 6.43205 2.0256 6.51977 2.09839 6.59545C2.17118 6.67112 2.26629 6.73262 2.376 6.77494C2.48571 6.81726 2.60694 6.83922 2.72984 6.83904C2.93718 6.83904 3.13602 6.7761 3.28263 6.66406C3.42924 6.55202 3.51161 6.40007 3.51161 6.24163C3.51054 6.16313 3.48978 6.08553 3.45046 6.01301L5.58832 4.69803C5.70576 4.76001 5.84311 4.79631 5.98557 4.80302C6.12802 4.80973 6.27017 4.7866 6.39668 4.73611C6.52319 4.68563 6.62927 4.6097 6.70347 4.51654C6.77768 4.42337 6.81719 4.31649 6.81774 4.20742C6.81832 4.13075 6.79903 4.05475 6.76097 3.98381L8.96433 2.65882C9.09535 2.73226 9.25387 2.77147 9.41636 2.77063C9.52755 2.76993 9.63728 2.75111 9.7382 2.71542C9.83912 2.67974 9.92891 2.62802 10.0016 2.5637L12.0172 3.26458C12.0138 3.29233 12.0138 3.32026 12.0172 3.34801C12.0172 3.50646 12.0995 3.65841 12.2461 3.77045C12.3927 3.88249 12.5916 3.94543 12.7989 3.94543C13.0063 3.94543 13.2051 3.88249 13.3517 3.77045C13.4983 3.65841 13.5807 3.50646 13.5807 3.34801C13.5814 3.24636 13.5475 3.14631 13.4824 3.05765L15.8081 1.26041C15.9128 1.30239 16.0286 1.32567 16.1468 1.3285C16.2649 1.33134 16.3824 1.31365 16.4904 1.27676C16.5983 1.23988 16.6939 1.18477 16.7699 1.11558C16.846 1.04638 16.9005 0.964908 16.9294 0.877287C16.9582 0.789666 16.9607 0.698181 16.9367 0.609717C16.9126 0.521254 16.8626 0.438117 16.7903 0.366564C16.7181 0.295012 16.6256 0.236907 16.5198 0.196625C16.414 0.156342 16.2975 0.134931 16.1793 0.134003ZM3.07705 6.24163C3.07619 6.29356 3.05528 6.34413 3.01694 6.38702C2.97861 6.4299 2.92455 6.46317 2.86156 6.48267C2.79857 6.50216 2.72945 6.50701 2.66287 6.49659C2.59629 6.48618 2.53522 6.46097 2.48732 6.42414C2.43941 6.3873 2.40681 6.34047 2.39361 6.28953C2.3804 6.23859 2.38717 6.1858 2.41307 6.13778C2.43898 6.08977 2.48286 6.04867 2.53921 6.01965C2.59557 5.99062 2.66188 5.97496 2.72984 5.97463H2.8019C2.87896 5.98783 2.94788 6.02058 2.99745 6.06755C3.04702 6.11452 3.07431 6.17294 3.07487 6.23328L3.07705 6.24163ZM6.38319 4.2141C6.38147 4.28315 6.34436 4.34894 6.27984 4.39731C6.21532 4.44567 6.12854 4.47276 6.03816 4.47275C6.01492 4.4744 5.99152 4.4744 5.96828 4.47275C5.89064 4.46016 5.82099 4.42763 5.77092 4.38056C5.72086 4.3335 5.6934 4.27475 5.69313 4.2141C5.69371 4.14446 5.73032 4.07782 5.79496 4.02874C5.8596 3.97965 5.94703 3.9521 6.03816 3.9521C6.06353 3.94955 6.08922 3.94955 6.11459 3.9521C6.19066 3.96561 6.25854 3.99833 6.30728 4.04496C6.35602 4.09159 6.38276 4.14941 6.38319 4.20909V4.2141ZM9.56485 2.41018C9.51789 2.42762 9.46639 2.43675 9.41418 2.43688C9.38954 2.43942 9.36457 2.43942 9.33993 2.43688C9.26327 2.42397 9.19467 2.39147 9.14544 2.34475C9.09621 2.29803 9.0693 2.23987 9.06915 2.17989C9.07169 2.11694 9.10362 2.05677 9.15917 2.01026C9.21473 1.96375 9.29024 1.93396 9.37203 1.9263C9.45383 1.91864 9.53651 1.9336 9.60512 1.96849C9.67373 2.00337 9.72374 2.05586 9.7461 2.11648C9.75488 2.13866 9.7593 2.16172 9.7592 2.1849C9.75636 2.23234 9.7368 2.27832 9.70259 2.31798C9.66839 2.35763 9.62079 2.38949 9.56485 2.41018ZM12.7946 3.61001C12.7197 3.6101 12.6469 3.59159 12.587 3.55728C12.5271 3.52296 12.4835 3.4747 12.4626 3.41977C12.4406 3.3611 12.4462 3.29837 12.4785 3.24255C12.5109 3.18673 12.5679 3.14137 12.6395 3.11439C12.6868 3.09412 12.7403 3.08375 12.7946 3.08435H12.8404C12.9202 3.08925 12.995 3.11556 13.0518 3.15864C13.1086 3.20171 13.1435 3.25875 13.1505 3.31965C13.1526 3.32847 13.1526 3.33752 13.1505 3.34635C13.1508 3.38146 13.1419 3.41626 13.1242 3.44869C13.1066 3.48111 13.0806 3.5105 13.0478 3.53509C13.015 3.55969 12.9761 3.57899 12.9333 3.59186C12.8906 3.60473 12.8449 3.6109 12.7989 3.61001H12.7946ZM16.1793 0.998415H16.1487L16.3344 0.853234C16.3752 0.821811 16.398 0.77928 16.3978 0.734997C16.3976 0.690714 16.3744 0.648308 16.3333 0.617106C16.2921 0.585904 16.2365 0.568463 16.1785 0.568619C16.1206 0.568776 16.0651 0.586517 16.0243 0.61794L15.8386 0.761453C15.8365 0.752627 15.8365 0.743578 15.8386 0.734753C15.8386 0.682605 15.8589 0.631629 15.8968 0.58827C15.9347 0.54491 15.9886 0.511116 16.0516 0.49116C16.1147 0.471204 16.1841 0.465983 16.251 0.476156C16.3179 0.48633 16.3794 0.511441 16.4276 0.548315C16.4759 0.585189 16.5088 0.632169 16.5221 0.683315C16.5354 0.73446 16.5286 0.787474 16.5024 0.835652C16.4763 0.88383 16.4321 0.925008 16.3754 0.95398C16.3186 0.982952 16.2519 0.998415 16.1837 0.998415H16.1793Z" fill="#5F5F5F"/>
</svg>
