<svg width="276" height="260" viewBox="0 0 276 260" fill="none" xmlns="http://www.w3.org/2000/svg">
<path opacity="0.95" d="M30.8734 59.8853H102.971C108.663 59.8853 113.285 64.5069 113.285 70.199V142.295C113.285 147.987 108.663 152.608 102.971 152.608H30.8734C25.1813 152.608 20.5597 147.987 20.5597 142.295V70.1972C20.5597 64.5051 25.1813 59.8835 30.8734 59.8835V59.8853Z" fill="url(#paint0_linear_33_15725)"/>
<path d="M88.3872 131.499H45.4571V133.619H88.3872V131.499Z" fill="#96BFE6"/>
<path d="M82.3065 138.183H51.5377V140.303H82.3065V138.183Z" fill="#96BFE6"/>
<path opacity="0.95" d="M243.29 92.0447H140.689C133.978 92.0447 128.538 97.4847 128.538 104.195V228.849C128.538 235.56 133.978 241 140.689 241H243.29C250 241 255.44 235.56 255.44 228.849V104.195C255.44 97.4847 250 92.0447 243.29 92.0447Z" fill="url(#paint1_linear_33_15725)"/>
<path d="M196.142 179.92H186.076V181.783H196.142V179.92Z" fill="#4598E6"/>
<path d="M206.431 197.001H147.865V200.61H206.431V197.001Z" fill="#96BFE6"/>
<path d="M195.225 214.327H147.865V217.936H195.225V214.327Z" fill="#96BFE6"/>
<path d="M175.629 205.664H147.865V209.273H175.629V205.664Z" fill="#96BFE6"/>
<path d="M221.753 106.899V108.722H232.485V118.795H234.308V106.899H221.753ZM148.872 118.795H150.695V108.722H161.427V106.899H148.872V118.795ZM232.485 170.769V180.846H221.753V182.669H234.308V170.769H232.485ZM150.695 170.769H148.872V182.669H161.427V180.846H150.695V170.769Z" fill="#4598E6"/>
<path d="M228.627 218.202C222.708 218.202 217.893 213.387 217.893 207.468C217.893 201.549 222.708 196.734 228.627 196.734C234.546 196.734 239.361 201.549 239.361 207.468C239.361 213.387 234.546 218.202 228.627 218.202ZM228.627 198.812C223.854 198.812 219.971 202.695 219.971 207.468C219.971 212.24 223.854 216.124 228.627 216.124C233.4 216.124 237.283 212.24 237.283 207.468C237.283 202.695 233.4 198.812 228.627 198.812Z" fill="#4598E6"/>
<path d="M227.943 211.694L223.066 206.817L224.534 205.348L227.943 208.755L232.719 203.978L234.187 205.448L227.943 211.694Z" fill="#4598E6"/>
<path opacity="0.95" d="M98.1717 63.3538H35.6725V116.977H98.1717V63.3538Z" fill="url(#paint2_linear_33_15725)"/>
<path d="M90.7938 95.9981C88.7352 90.5538 83.7902 88.0523 81.4557 87.2735C80.6242 86.9975 79.1405 86.5124 77.576 86.0061C74.7563 85.0955 71.6764 84.104 71.6764 84.104H61.9499C61.9499 84.104 58.5817 85.2326 55.0026 86.4877C55.0026 86.4913 54.9991 86.4913 54.9991 86.4913C51.7012 87.648 48.2293 88.9084 47.0568 89.4973C44.6115 90.7173 40.498 99.4454 39.6665 100.446C39.2376 100.961 37.3285 104.36 35.451 108.158H45.93C47.0375 106.256 47.89 104.781 47.89 104.781C47.89 104.781 48.5528 106.234 49.3562 108.158H82.9271C83.458 105.925 83.7885 103.111 83.7885 103.111C83.7885 103.111 85.5868 105.556 87.5487 108.158H97.2242C94.8721 104.209 91.9505 99.0709 90.792 95.9981H90.7938Z" fill="#385369"/>
<path d="M67.9725 57.3749C67.9725 57.3749 75.579 58.5738 74.4205 70.4732C73.2621 82.3725 66.5504 81.3986 66.1003 81.3863C65.6521 81.374 59.3622 81.6025 58.8718 67.0733C58.8718 67.0733 58.6573 56.329 67.9725 57.3749Z" fill="#EEA886"/>
<path d="M74.5383 67.1122C74.5383 67.1122 75.3716 66.2227 75.6775 67.1227C75.9833 68.0228 74.5418 72.0396 74.4891 72.2277C74.4891 72.2277 74.3362 72.5776 74.1375 72.3842C73.9371 72.1926 74.5383 67.1104 74.5383 67.1104V67.1122Z" fill="#EEA886"/>
<path d="M59.0757 66.9609C59.0757 66.9609 58.26 66.0556 57.9365 66.9504C57.6131 67.8452 58.9649 71.8884 59.0265 72.0782C59.0265 72.0782 59.1724 72.4298 59.3745 72.2417C59.5785 72.0536 59.0757 66.9609 59.0757 66.9609Z" fill="#EEA886"/>
<path d="M74.5348 68.9369L73.4466 70.3925C73.4466 70.3925 73.4765 67.2001 73.3025 66.7008C73.1285 66.1998 72.8613 64.6722 72.7136 64.3118C72.5677 63.9515 66.1829 62.1619 60.5418 64.8339C60.5418 64.8339 60.7896 67.128 60.25 67.3337C59.7103 67.5376 59.974 71.071 59.974 71.071L59.0792 70.0602C59.0792 70.0602 57.7098 60.905 58.0473 59.9504C58.3848 58.9959 59.4642 53.2598 71.0348 56.6649C71.0348 56.6649 74.642 55.9002 75.3663 58.3912C76.0906 60.8821 74.5348 68.9369 74.5348 68.9369Z" fill="#434343"/>
<path d="M72.6204 83.8898C72.6169 83.8792 71.6447 83.4099 71.6447 83.4099C71.1701 82.3499 71.5235 77.8795 71.5235 77.8795C71.5235 77.8795 61.8356 75.4131 62.1133 77.2994C62.3893 79.1838 61.2783 83.5646 61.2783 83.5646L56.3087 86.0327C56.3087 86.0327 61.6035 100.251 67.6894 98.4155C73.7753 96.5819 76.073 85.5194 76.073 85.5194L72.6222 83.888L72.6204 83.8898Z" fill="#EEA886"/>
<path d="M62.2522 79.3947C62.2522 79.3947 63.8132 81.4093 66.5222 81.4093C68.3047 81.4093 69.5827 80.91 71.3582 79.1785C71.3582 79.1785 70.5883 82.4658 66.5345 82.7716C66.5345 82.7716 63.5935 83.1461 62.2522 79.3947Z" fill="#A77860"/>
<path opacity="0.95" d="M130.871 25.5496H182.037C186.716 25.5496 190.515 29.3484 190.515 34.028V78.4242C190.515 83.1038 186.716 86.9026 182.037 86.9026H130.871C126.191 86.9026 122.392 83.1038 122.392 78.4242V34.028C122.392 29.3484 126.191 25.5496 130.871 25.5496Z" fill="url(#paint3_linear_33_15725)"/>
<path d="M158.897 75.2988H153.493V76.2991H158.897V75.2988Z" fill="#4598E6"/>
<path d="M161.081 20.1757C161.081 20.1757 165.433 22.5665 164.051 28.445C162.67 34.3235 162.144 35.0987 163.267 37.4736C164.391 39.8486 165.377 49.8019 164.18 51.6231C162.983 53.4443 150.839 42.7421 149.491 34.1793C148.141 25.6165 151.178 21.9811 152.256 20.624C153.333 19.2669 157.241 17.9942 161.081 20.1775V20.1757Z" fill="#344052"/>
<path d="M169.255 68.7576H164.595C164.37 66.4583 164.16 64.8586 164.204 64.6212C164.273 64.231 159.567 51.8851 159.128 50.8638C158.685 49.8459 156.96 47.1071 156.735 44.5282C156.506 41.9494 159.869 40.9087 159.869 40.9087C164.408 41.7208 165.945 48.0001 165.945 48.0001C165.945 48.0001 167.85 60.731 168.814 64.3136C169.062 65.2312 169.195 66.8555 169.255 68.7576Z" fill="#EEA886"/>
<path d="M166.91 51.0658L159.97 53.9927C159.97 53.9927 153.59 38.1609 158.938 39.9294C164.269 41.6908 166.667 45.0045 166.91 51.0675V51.0658Z" fill="#EB4747"/>
<path d="M165.365 58.5193C165.162 60.0909 164.333 65.6582 164.517 67.163C164.549 67.4109 164.651 67.9822 164.806 68.7574H148.07C148.515 67.1683 148.921 65.7619 149.165 64.9445C149.978 62.2496 149.201 61.5271 148.789 59.3702C148.629 58.5264 148.067 56.9231 147.455 55.1107C147.249 54.506 147.038 53.8749 146.836 53.2421C146.1 50.9603 145.759 48.6275 145.548 47.2687C144.539 40.8312 149.489 40.2124 149.489 40.2124C151.329 39.8731 154.543 38.8799 154.543 38.8799L159.578 39.9276C159.578 39.9276 160.057 40.1069 160.755 40.6237C160.755 40.6237 160.759 40.6237 160.759 40.6273C161.095 40.8751 161.483 41.2003 161.891 41.6205C162.441 42.1848 163.536 43.802 164.63 45.5793C164.964 46.1243 165.3 46.6833 165.616 47.2335C166.639 49.0055 167.367 50.4329 167.344 52.0449C167.325 53.6306 165.567 56.9478 165.365 58.5193Z" fill="#EB4747"/>
<path d="M159.578 39.9296C159.578 39.9296 162.731 45.3193 161.559 45.7219C160.386 46.1245 154.204 44.7638 151.788 39.6712C151.788 39.6712 155.845 37.8271 159.578 39.9296Z" fill="#EEA886"/>
<path d="M159.126 42.3908C159.126 42.3908 156.324 43.5756 153.787 39.673C153.787 39.673 154.469 35.2413 153.028 32.6783C151.586 30.1152 159.328 35.7511 159.328 35.7511C159.328 35.7511 159.203 36.2802 159.073 37.059C159.006 37.458 158.938 37.9221 158.887 38.4161C158.843 38.8275 158.809 39.2582 158.795 39.6871C158.764 40.6838 158.834 41.6735 159.128 42.389L159.126 42.3908Z" fill="#EEA886"/>
<path d="M152.168 48.429C151.591 51.3963 147.453 55.1126 147.453 55.1126C147.249 54.5061 147.038 53.8767 146.834 53.2456C149.689 51.4244 152.168 48.4307 152.168 48.4307V48.429Z" fill="#393D63"/>
<path d="M151.131 50.7899C150.869 51.871 149.661 62.8211 149.793 63.1955C149.87 63.41 150.454 65.9431 151.039 68.7575H145.637C145.084 66.9434 144.757 65.4368 144.836 64.5843C145.18 60.8909 143.929 49.1163 143.929 49.1163C143.929 49.1163 142.807 41.9933 148.717 41.1038C148.717 41.1038 152.208 41.5626 152.419 44.1414C152.63 46.7221 151.393 49.7123 151.131 50.7899Z" fill="#EEA886"/>
<path d="M143.493 52.3019L150.827 54.0159C150.827 54.0159 156.645 42.7195 151.405 40.6557C145.882 38.4812 142.167 46.1404 143.493 52.3019Z" fill="#EB4747"/>
<path d="M160.404 20.8015C160.404 20.8015 166.778 23.1413 162.738 34.1406C158.699 45.1416 150.45 32.2631 151.697 25.5039C152.943 18.7447 160.406 20.8015 160.406 20.8015H160.404Z" fill="#EEA987"/>
<path d="M163.716 27.4887C163.716 27.4887 160.351 30.4912 154.952 30.6318C154.952 30.6318 153.69 33.7082 153.486 34.6522C153.486 34.6522 148.153 25.4934 154.284 20.8666C160.418 16.2398 165.98 25.569 163.716 27.4887Z" fill="#344052"/>
<path d="M155.68 31.291C155.677 30.4771 155.264 28.6032 154.031 29.0638C152.799 29.5243 153.903 33.3513 154.715 33.158C154.715 33.158 155.689 33.2195 155.68 31.291Z" fill="#EEA987"/>
<path d="M158.801 39.5007C155.805 38.6727 154.647 35.8161 154.611 35.7212C157.048 38.8696 158.885 38.4161 158.885 38.4161C158.841 38.8274 158.837 39.0823 158.801 39.499V39.5007Z" fill="#A77860"/>
<path d="M172.646 36.6526V37.6317H178.407V43.0391H179.386V36.6526H172.646ZM133.522 43.0391H134.501V37.6317H140.262V36.6526H133.522V43.0391ZM178.407 70.9408V76.3499H172.646V77.329H179.386V70.9408H178.407ZM134.499 70.9408H133.52V77.329H140.26V76.3499H134.499V70.9408Z" fill="#4598E6"/>
<path d="M70.5303 121.14H63.314V122.476H70.5303V121.14Z" fill="#4598E6"/>
<path d="M88.5489 69.5186V70.8247H96.2451V78.048H97.5512V69.5186H88.5489ZM36.2913 78.048H37.5992V70.8247H45.2954V69.5186H36.2931V78.048H36.2913ZM96.2451 115.316V122.541H88.5489V123.847H97.5512V115.314H96.2451V115.316ZM37.5992 115.316H36.2913V123.849H45.2936V122.543H37.5975V115.318L37.5992 115.316Z" fill="#4598E6"/>
<path d="M228.131 169.935H222.028C221.917 169.69 221.825 169.478 221.752 169.307C219.941 165.03 210.605 155.223 210.605 155.223V155.244C210.605 155.244 210.599 155.249 210.599 155.254V155.265C210.594 155.281 210.589 155.291 210.583 155.307C210.578 155.328 210.573 155.354 210.562 155.388C210.557 155.404 210.552 155.425 210.552 155.441C210.547 155.456 210.541 155.467 210.536 155.483C210.153 156.912 208.274 164.032 207.333 169.933H166.026C165.931 169.386 165.818 168.864 165.692 168.382C165.314 166.916 165.059 165.466 164.895 164.111C164.89 164.042 164.879 163.977 164.874 163.909C164.842 163.659 164.816 163.409 164.795 163.165C164.44 159.457 164.705 156.615 164.726 156.327C164.61 156.576 163.775 159.637 162.682 163.415C162.081 165.487 161.402 167.776 160.727 169.933H150.973L163.213 134.618C163.484 134.405 166.66 132.871 168.977 131.765C171.342 130.638 174.195 128.986 176.772 127.572C178.09 126.85 179.333 126.196 180.411 125.702L180.576 125.628V125.623C182.355 124.811 183.54 124.273 183.54 124.273H183.545C183.587 124.267 183.868 124.241 184.315 124.199C186.801 123.96 194.516 123.237 197.097 123.088C197.309 123.072 197.491 123.067 197.628 123.062C197.744 123.056 197.835 123.056 197.888 123.062C198.211 123.083 199.806 123.635 201.894 124.433C201.973 124.459 202.054 124.491 202.133 124.522C202.235 124.559 202.33 124.596 202.43 124.633C202.611 124.702 202.798 124.772 202.982 124.846C203.355 124.995 203.742 125.143 204.13 125.298C204.264 125.35 204.401 125.403 204.54 125.458C208.72 127.115 213.512 129.17 214.65 129.99C215.404 130.526 217.747 134.942 220.461 140.403C223.383 149.764 226.959 163.27 228.133 169.931L228.131 169.935Z" fill="#DECBC4"/>
<path d="M197.819 121.864C197.708 127.418 186.959 130.455 186.959 130.455C186.959 130.455 182.462 124.818 183.536 124.278C183.958 124.065 184.129 123.225 184.181 122.281C184.231 121.383 184.173 120.391 184.12 119.762C184.088 119.37 184.058 119.117 184.058 119.117C184.058 119.117 185.595 117.496 187.548 115.566C190.963 112.189 195.657 107.864 195.664 109.585C195.664 109.677 195.652 109.786 195.624 109.912C194.799 113.785 197.817 121.868 197.817 121.868L197.819 121.864Z" fill="#EEA886"/>
<path d="M193.678 113.729C193.657 113.762 193.201 114.444 192.422 115.423C190.772 117.499 187.669 120.91 184.181 122.279C184.231 121.381 184.173 120.389 184.12 119.76C183.763 119.751 183.406 119.709 183.053 119.632C184.009 117.962 185.391 116.209 185.391 116.209L187.549 115.564L193.681 113.729H193.678Z" fill="#A77860"/>
<path d="M195.741 109.657C194.811 111.68 193.929 113.147 193.678 113.728C193.514 114.108 193.071 114.725 192.422 115.423C190.65 117.332 187.358 119.85 184.12 119.762C183.763 119.753 183.406 119.711 183.053 119.633C181.745 119.349 180.201 118.74 179.352 117.077C172.646 103.946 177.501 93.2065 177.501 93.2065C177.501 93.2065 195.842 88.0207 198.711 93.5405C200.723 97.4132 197.928 104.904 195.743 109.657H195.741Z" fill="#EEA886"/>
<path d="M177.501 93.2067C177.501 93.2067 175.798 93.1118 175.378 89.8825C174.961 86.6919 175.803 85.8076 175.803 85.8076C175.803 85.8076 183.374 82.6381 186.094 82.2268C188.813 81.8154 195.499 81.4181 197.065 83.2112C197.065 83.2112 200.873 82.327 201.91 88.6467C203.555 98.6738 196.302 108.411 196.302 108.411C196.302 108.411 196.364 101.859 194.919 100.993C193.474 100.124 192.227 102.188 192.227 102.188L189.272 102.717C189.272 102.717 193.76 93.0257 188.376 92.667C182.991 92.3084 180.585 93.7693 177.501 93.2067Z" fill="#E8734D"/>
<path d="M192.306 99.5773C192.588 96.6908 197.807 95.5886 197.457 98.614C197.107 101.639 194.537 104.545 193.351 104.443C192.164 104.341 192.092 101.776 192.306 99.5773Z" fill="#EEA886"/>
<path d="M222.856 140.676C221.156 135.23 219.684 130.921 219.03 130.453C217.888 129.636 208.834 127.143 204.536 125.459C204.397 125.406 204.26 125.354 204.127 125.299C203.738 125.145 203.351 124.997 202.979 124.847C202.792 124.774 202.606 124.703 202.427 124.635C202.327 124.598 202.23 124.561 202.13 124.524C202.051 124.492 201.97 124.461 201.891 124.434C201.885 124.44 201.88 124.45 201.87 124.455C201.486 124.886 199.5 127.143 197.125 130.522C192.683 136.833 186.897 147.06 187.785 156.502C188.072 159.531 188.423 163.882 189.012 168.764C189.054 169.152 189.102 169.539 189.156 169.933H209.196C209.441 164.822 209.877 158.09 210.536 155.483C210.541 155.467 210.547 155.456 210.552 155.44C210.552 155.425 210.557 155.404 210.562 155.388C210.568 155.361 210.578 155.335 210.583 155.307C210.589 155.291 210.594 155.28 210.599 155.265V155.254L210.605 155.244C210.605 155.244 215.455 162.825 215.704 169.933H228.317C227.7 163.328 225.772 150.021 222.856 140.676Z" fill="#3C4145"/>
<path d="M180.491 125.768C180.491 125.768 178.978 130.805 177.023 143.381V143.386C176.955 143.806 176.889 144.237 176.821 144.677C176.816 144.724 176.805 144.777 176.8 144.831C176.752 145.118 176.71 145.417 176.666 145.714C176.661 145.751 176.656 145.782 176.65 145.819C176.619 146.016 176.587 146.218 176.561 146.424C176.487 146.918 176.411 147.428 176.337 147.943C175.604 153.074 174.627 161.231 173.634 169.933H165.713C165.282 167.515 164.879 165.316 164.911 163.806C164.895 163.838 164.885 163.875 164.874 163.908C164.241 165.661 163.545 167.568 162.838 169.423C162.775 169.593 162.712 169.762 162.647 169.933H148.993L162.594 134.352C162.865 134.14 166.367 132.253 168.682 131.155C171.099 130.001 174.154 128.583 176.863 127.335C178.159 126.734 179.377 126.176 180.407 125.703L180.491 125.767V125.768Z" fill="#3C4145"/>
<path d="M198.911 138.211L193.678 141.164L195.914 143.444L191.006 169.934H189.156C188.476 164.58 188.087 159.772 187.785 156.504C186.419 141.904 200.987 125.44 201.891 124.436C202.592 124.701 203.346 124.993 204.127 125.303L198.909 138.213L198.911 138.211Z" fill="#51565C"/>
<path d="M180.571 125.631C180.571 125.631 178.616 132.013 176.341 147.945C175.608 153.071 174.625 161.233 173.632 169.934H172.862L171.848 144.905L174.339 142.207L172.124 139.438L176.863 127.335C178.159 126.734 179.377 126.176 180.407 125.703L180.572 125.63L180.571 125.631Z" fill="#51565C"/>
<path d="M202.156 124.497L197.819 121.864C197.819 121.864 197.698 124.242 186.959 130.455L190.009 139.046L202.156 124.499V124.497Z" fill="#F5E2D9"/>
<path d="M184.1 123.061C184.1 123.061 184.269 125.628 186.957 130.453L181.005 138.213L180.571 125.628L184.1 123.061Z" fill="#F5E2D9"/>
<path d="M186.975 130.453C186.975 130.453 188.128 135.068 187.713 136.36C187.713 136.36 185.176 137.283 183.353 136.13C183.353 136.13 184.645 132.9 186.975 130.455V130.453Z" fill="#D44040"/>
<path d="M185.575 146.143C184.359 154.431 184.359 162.815 184.811 169.932H179.727C179.658 168.929 179.593 167.881 179.53 166.788C178.584 150.376 184.385 135.713 184.385 135.713L186.973 135.064C186.973 135.064 186.14 142.316 185.575 146.141V146.143Z" fill="#D44040"/>
<path d="M165.073 156.37C164.879 160.308 164.908 163.804 164.908 163.804C164.908 163.826 164.902 163.933 164.894 164.109C164.885 164.042 164.878 163.977 164.869 163.912C164.24 165.664 163.54 167.57 162.837 169.425C162.673 167.275 162.631 165.272 162.679 163.416C162.962 152.375 166.433 146.586 166.433 146.586C165.637 148.511 165.256 152.638 165.073 156.37Z" fill="#2D3133"/>
<defs>
<linearGradient id="paint0_linear_33_15725" x1="73.5433" y1="226.283" x2="66.3042" y2="95.0436" gradientUnits="userSpaceOnUse">
<stop stop-color="#D1D7E0"/>
<stop offset="1" stop-color="#EBEBFF"/>
</linearGradient>
<linearGradient id="paint1_linear_33_15725" x1="191.988" y1="262.87" x2="191.988" y2="127.757" gradientUnits="userSpaceOnUse">
<stop stop-color="#D1D7E0"/>
<stop offset="1" stop-color="#EBEBFF"/>
</linearGradient>
<linearGradient id="paint2_linear_33_15725" x1="66.9212" y1="179.436" x2="66.9212" y2="80.6394" gradientUnits="userSpaceOnUse">
<stop stop-color="#D1D7E0"/>
<stop offset="1" stop-color="#EBEBFF"/>
</linearGradient>
<linearGradient id="paint3_linear_33_15725" x1="156.454" y1="95.912" x2="156.454" y2="40.2581" gradientUnits="userSpaceOnUse">
<stop stop-color="#D1D7E0"/>
<stop offset="1" stop-color="#EBEBFF"/>
</linearGradient>
</defs>
</svg>
