<svg xmlns="http://www.w3.org/2000/svg" width="100" height="41" viewBox="0 0 100 41" fill="none">
  <mask id="mask0_39_539" style="mask-type:luminance" maskUnits="userSpaceOnUse" x="0" y="0" width="100" height="41">
    <path d="M100 0.24292H0V40.9209H100V0.24292Z" fill="white"/>
  </mask>
  <g mask="url(#mask0_39_539)">
    <path fill-rule="evenodd" clip-rule="evenodd" d="M100 21.2607C100 14.3092 96.5559 8.82373 89.9725 8.82373C83.3892 8.82373 79.3614 14.3092 79.3614 21.2064C79.3614 29.38 84.0837 33.5076 90.8614 33.5076C94.167 33.5076 96.667 32.7744 98.5559 31.7425V26.3115C96.667 27.2348 94.5003 27.8051 91.7503 27.8051C89.0559 27.8051 86.667 26.8817 86.3614 23.6775H99.9447C99.9447 23.3246 100 21.9124 100 21.2607ZM86.2781 18.681C86.2781 15.6126 88.1947 14.3363 89.9447 14.3363C91.6392 14.3363 93.4447 15.6126 93.4447 18.681H86.2781Z" fill="#1F1A30"/>
    <path fill-rule="evenodd" clip-rule="evenodd" d="M68.6392 8.82373C65.917 8.82373 64.167 10.0729 63.1948 10.9419L62.8337 9.25831H56.7226V40.9209L63.667 39.4817L63.6948 31.7968C64.6948 32.5029 66.167 33.5076 68.6115 33.5076C73.5837 33.5076 78.1115 29.5973 78.1115 20.9892C78.0837 13.1142 73.5004 8.82373 68.6392 8.82373ZM66.9726 27.5336C65.3338 27.5336 64.3615 26.9632 63.6948 26.2573L63.667 16.1827C64.3892 15.3953 65.3892 14.8522 66.9726 14.8522C69.5004 14.8522 71.2504 17.622 71.2504 21.1793C71.2504 24.818 69.5282 27.5336 66.9726 27.5336Z" fill="#1F1A30"/>
    <path fill-rule="evenodd" clip-rule="evenodd" d="M47.1663 7.22173L54.1385 5.75529V0.24292L47.1663 1.68207V7.22173Z" fill="#1F1A30"/>
    <path d="M54.1385 9.28564H47.1663V33.0462H54.1385V9.28564Z" fill="#1F1A30"/>
    <path fill-rule="evenodd" clip-rule="evenodd" d="M39.6948 11.2948L39.2504 9.28535H33.2504V33.0459H40.1948V16.943C41.8336 14.8521 44.6114 15.2323 45.4726 15.5309V9.28535C44.5836 8.95941 41.3336 8.36213 39.6948 11.2948Z" fill="#1F1A30"/>
    <path fill-rule="evenodd" clip-rule="evenodd" d="M25.8054 3.39258L19.0276 4.80461L19 26.5556C19 30.5744 22.0832 33.5344 26.1944 33.5344C28.4722 33.5344 30.1388 33.1271 31.0554 32.6383V27.1258C30.1666 27.4788 25.7776 28.728 25.7776 24.709V15.069H31.0554V9.28512H25.7776L25.8054 3.39258Z" fill="#1F1A30"/>
    <path fill-rule="evenodd" clip-rule="evenodd" d="M7.0278 16.1827C7.0278 15.1237 7.91661 14.7164 9.38881 14.7164C11.5 14.7164 14.1666 15.341 16.2778 16.4542V10.0729C13.9722 9.17679 11.6944 8.82373 9.38881 8.82373C3.75 8.82373 0 11.7022 0 16.5087C0 24.0034 10.5556 22.8085 10.5556 26.04C10.5556 27.2892 9.44441 27.6964 7.88881 27.6964C5.58339 27.6964 2.63881 26.7732 0.305593 25.5241V31.987C2.88881 33.0731 5.5 33.5348 7.88881 33.5348C13.6666 33.5348 17.6388 30.7378 17.6388 25.8771C17.6112 17.7849 7.0278 19.2241 7.0278 16.1827Z" fill="#1F1A30"/>
  </g>
</svg>