<svg width="20" height="20" viewBox="0 0 20 20" fill="none" xmlns="http://www.w3.org/2000/svg">
<g clip-path="url(#clip0_199_85)">
<path d="M19.6878 0.122768C19.9333 0.301339 20.0337 0.539435 19.9891 0.837054L17.132 17.9799C17.0948 18.1957 16.9757 18.3631 16.7748 18.4821C16.6707 18.5417 16.5553 18.5714 16.4288 18.5714C16.347 18.5714 16.2577 18.5528 16.161 18.5156L11.1052 16.4509L8.40428 19.7433C8.27035 19.9144 8.08806 20 7.85741 20C7.76068 20 7.67883 19.9851 7.61187 19.9554C7.4705 19.9033 7.35703 19.8158 7.27147 19.6931C7.1859 19.5703 7.14312 19.4345 7.14312 19.2857V15.3906L16.786 3.57143L4.85517 13.8951L0.446692 12.0871C0.171394 11.9829 0.0225849 11.7783 0.000263517 11.4732C-0.0146174 11.1756 0.10443 10.9561 0.357406 10.8147L18.9288 0.100446C19.0404 0.0334821 19.1595 0 19.286 0C19.4348 0 19.5687 0.0409226 19.6878 0.122768Z" fill="white"/>
</g>
<defs>
<clipPath id="clip0_199_85">
<rect width="20" height="20" fill="white"/>
</clipPath>
</defs>
</svg>
