<svg xmlns="http://www.w3.org/2000/svg" width="100" height="33" viewBox="0 0 100 33" fill="none">
  <mask id="mask0_39_515" style="mask-type:luminance" maskUnits="userSpaceOnUse" x="0" y="0" width="100" height="33">
    <path d="M100 0.399902H0V32.7637H100V0.399902Z" fill="white"/>
  </mask>
  <g mask="url(#mask0_39_515)">
    <path d="M43.3333 32.2969H35.2325L40.2994 0.967773H48.3996L43.3333 32.2969Z" fill="#3D3652"/>
    <path d="M72.6989 1.73365C71.1011 1.0997 68.5669 0.399902 65.4332 0.399902C57.4335 0.399902 51.8002 4.66566 51.7656 10.7645C51.6993 15.2644 55.7989 17.7637 58.8652 19.264C61.9992 20.7971 63.0646 21.7978 63.0646 23.1644C63.0327 25.2633 60.5322 26.2306 58.1998 26.2306C54.9657 26.2306 53.2328 25.7319 50.5993 24.5641L49.5326 24.0636L48.3991 31.0964C50.2989 31.9618 53.7993 32.73 57.4335 32.7637C65.9333 32.7637 71.467 28.5638 71.5325 22.0645C71.5649 18.4981 69.4001 15.7654 64.7329 13.5323C61.8996 12.0988 60.1645 11.1322 60.1645 9.66551C60.1976 8.33224 61.632 6.96645 64.8303 6.96645C67.4638 6.89964 69.3987 7.53263 70.8646 8.1661L71.5973 8.4987L72.6989 1.73365Z" fill="#3D3652"/>
    <path d="M83.4651 21.1982C84.1322 19.3984 86.6993 12.4326 86.6993 12.4326C86.6656 12.4994 87.3651 10.5995 87.7652 9.43313L88.3312 12.1327C88.3312 12.1327 89.8654 19.6318 90.1984 21.1982C88.9323 21.1982 85.0651 21.1982 83.4651 21.1982ZM93.4645 0.967773H87.1985C85.2664 0.967773 83.7983 1.53396 82.9646 3.56719L70.932 32.2964H79.4318C79.4318 32.2964 80.8312 28.4297 81.132 27.597C82.0645 27.597 90.333 27.597 91.5327 27.597C91.7651 28.6968 92.4992 32.2964 92.4992 32.2964H99.9996L93.4645 0.967773Z" fill="#3D3652"/>
    <path d="M28.4665 0.967773L20.5332 22.3312L19.6663 17.9984C18.1998 12.9991 13.5998 7.56732 8.46667 4.86649L15.7332 32.2637H24.2995L37.0324 0.967773H28.4665Z" fill="#3D3652"/>
    <path d="M13.1666 0.967773H0.133295L0 1.60092C10.1668 4.20066 16.9 10.4674 19.6663 17.9999L16.8332 3.60131C16.3666 1.60044 14.9332 1.03378 13.1666 0.967773Z" fill="#3D3652"/>
  </g>
</svg>