<svg width="20" height="17" viewBox="0 0 20 17" fill="none" xmlns="http://www.w3.org/2000/svg">
<path d="M14.5138 0C17.96 0 19.9964 1.8249 19.9964 4.92316V4.95753H15.7618C13.7911 4.96072 12.1947 6.39635 12.1911 8.16849C12.1884 9.94463 13.7867 11.3866 15.7618 11.389H20V11.6712C20 14.7695 17.9636 16.6016 14.5173 16.6016H5.48356C2.03644 16.6016 0 14.7695 0 11.6712V4.92316C0 1.8249 2.03644 0 5.48356 0H14.5138ZM10.3831 3.57386H4.73956C4.32 3.57546 3.97956 3.88161 3.97777 4.2597C3.976 4.63939 4.31733 4.94873 4.73956 4.95033H10.3902C10.8124 4.94873 11.1538 4.63939 11.152 4.2589C11.1502 3.87921 10.8053 3.57227 10.3831 3.57386Z" fill="#A5A5A5"/>
<path opacity="0.4" d="M14.0374 7.71696C14.2465 8.50652 15.0805 9.06202 16.0326 9.04758H19.2825C19.6787 9.04758 20 8.77524 20 8.43861V6.33722C19.9992 6.00132 19.6787 5.72826 19.2825 5.72754H15.9561C14.8731 5.73043 13.9983 6.47664 14 7.39623C14 7.50386 14.0128 7.61149 14.0374 7.71696Z" fill="#A5A5A5"/>
<path d="M16 8.21777C16.5523 8.21777 17 7.84613 17 7.38769C17 6.92926 16.5523 6.55762 16 6.55762C15.4477 6.55762 15 6.92926 15 7.38769C15 7.84613 15.4477 8.21777 16 8.21777Z" fill="#A5A5A5"/>
</svg>
