<svg xmlns="http://www.w3.org/2000/svg" width="150" height="47" viewBox="0 0 150 47" fill="none">
  <path fill-rule="evenodd" clip-rule="evenodd" d="M70.0175 0.280273H66.6155C66.3403 0.280273 66.1152 0.505356 66.1152 0.780544V25.7956C66.1152 26.0708 66.3403 26.2959 66.6155 26.2959H70.0175C70.2927 26.2959 70.518 26.0708 70.518 25.7956V0.780544C70.5429 0.505356 70.3178 0.280273 70.0175 0.280273ZM29.618 17.4407C29.618 12.0875 33.6205 7.88486 38.7486 7.88486C43.8767 7.88486 47.8792 12.0875 47.8792 17.4407C47.8792 22.7438 43.8767 26.8714 38.7486 26.8714C33.6205 26.8714 29.618 22.7189 29.618 17.4407ZM33.9954 17.4155C33.9954 20.5924 36.0216 22.9939 38.7484 22.9939C41.4751 22.9939 43.5512 20.6174 43.5512 17.4155C43.5512 14.1636 41.4751 11.7121 38.7484 11.7121C36.0466 11.7121 33.9954 14.1636 33.9954 17.4155ZM58.4855 7.9098C59.8863 7.88487 61.2872 8.05985 62.638 8.35997C63.0134 8.435 63.2133 8.63516 63.0884 8.98538L62.3379 11.737C62.2628 11.9873 62.0126 12.1373 61.7625 12.0623C60.8619 11.9123 59.9364 11.8121 59.0109 11.8121C55.9841 11.8121 55.834 13.8383 55.834 14.6639V25.8205C55.834 26.0957 55.6087 26.3208 55.3337 26.3208H51.9315C51.6563 26.3208 51.4312 26.0957 51.4312 25.8205V14.5637C51.4312 9.01055 54.9583 7.9098 58.4855 7.9098ZM27.6166 8.43501H23.9896C23.7645 8.43501 23.5643 8.5853 23.5142 8.81039L20.0372 21.0429L16.8603 10.1612C16.5851 9.13544 15.6594 8.43501 14.609 8.43501H13.4833C12.4326 8.43501 11.5069 9.13544 11.2319 10.1612L8.05478 21.0429L4.6027 8.81039C4.55283 8.5853 4.35268 8.43501 4.12759 8.43501H0.500278C0.225089 8.43501 0 8.66033 0 8.93552C0 8.98538 -1.08353e-07 9.03549 0.0249307 9.08558L4.97808 24.645C5.30313 25.6455 6.20373 26.2959 7.25438 26.2959H8.73028C9.78094 26.2959 10.7065 25.5954 11.0066 24.5949L14.0835 14.1886L17.1604 24.5949C17.4606 25.5954 18.3861 26.2959 19.4367 26.2959H20.9126C21.9384 26.2959 22.8639 25.6206 23.1889 24.645L28.1421 9.08558C28.2171 8.8104 28.0671 8.5352 27.8168 8.43501H27.6166ZM146.038 8.43501H149.515C149.615 8.43501 149.691 8.46018 149.74 8.51004C149.991 8.63517 150.066 8.93552 149.941 9.18554L139.959 34.1507C139.884 34.3509 139.684 34.4758 139.484 34.4758H136.057C135.957 34.501 135.857 34.4758 135.757 34.4259C135.532 34.3008 135.457 34.0007 135.582 33.7754L138.409 26.6461L131.429 9.13545C131.404 9.06042 131.404 8.96045 131.404 8.88542C131.429 8.61024 131.68 8.41007 131.955 8.43501H135.432C135.657 8.43501 135.857 8.56014 135.932 8.76029L140.71 21.3928L145.488 8.78522C145.588 8.56013 145.813 8.43501 146.038 8.43501ZM90.0545 0.280273H86.6522C86.3771 0.280273 86.152 0.505356 86.152 0.780544V8.28495C84.9263 8.00976 83.6755 7.8597 82.3998 7.88486C75.6207 7.88486 74.1947 13.9884 74.1947 17.3156C74.1947 24.6949 78.6224 26.8463 82.7749 26.8463C85.2015 26.8964 87.6279 26.421 89.8792 25.4955C90.3546 25.3704 90.6547 24.9202 90.5797 24.4199V0.780544C90.5547 0.505356 90.3297 0.280273 90.0545 0.280273ZM83.2507 23.019C84.2264 22.9939 85.2017 22.869 86.1275 22.6187H86.1023V12.1623C85.1267 11.9123 84.1012 11.7871 83.0755 11.7622C78.8128 11.7622 78.8207 16.225 78.8228 17.4196L78.823 17.4906C78.823 20.4925 79.6735 23.019 83.2507 23.019ZM122.174 7.88486C120.023 7.83476 117.872 8.13488 115.795 8.73536C115.42 8.81039 115.195 9.16061 115.245 9.51083C115.245 9.56093 115.27 9.61079 115.295 9.66089L115.795 11.737C115.845 12.1124 116.195 12.3876 116.571 12.3126H116.621C118.272 11.8123 119.973 11.562 121.674 11.5371C124.05 11.5371 124.675 12.4375 124.675 14.5388H121.724C115.47 14.5388 113.719 17.8408 113.719 20.5426C113.719 23.9446 115.37 26.8463 121.273 26.8463C125.677 26.8463 127.903 25.7329 128.419 25.4746L128.428 25.4703C128.878 25.3203 129.153 24.8701 129.078 24.3947V14.0886C129.103 9.4358 126.352 7.88486 122.174 7.88486ZM121.448 23.3191C122.549 23.3191 123.625 23.1691 124.675 22.8687V17.9408H121.724C119.272 17.9408 118.171 19.0166 118.171 20.7176C118.171 22.0434 118.897 23.3191 121.448 23.3191ZM102.487 7.88486C100.061 7.83476 97.6341 8.31011 95.3828 9.23564C94.9077 9.36077 94.6073 9.81094 94.6823 10.3112V33.9755C94.6823 34.2507 94.9077 34.4758 95.1828 34.4758H98.5848C98.86 34.4758 99.0851 34.2507 99.0851 33.9755V26.4711C100.311 26.7463 101.562 26.8964 102.837 26.8712C109.616 26.8712 111.042 20.7677 111.042 17.4405C111.067 10.036 106.64 7.88486 102.487 7.88486ZM99.1352 22.5686C100.111 22.8189 101.137 22.944 102.162 22.9689C106.351 22.9689 106.417 18.7077 106.437 17.4203C106.438 17.3626 106.438 17.3106 106.44 17.2655C106.44 14.2636 105.589 11.737 102.012 11.737C101.036 11.7622 100.061 11.8873 99.1352 12.1373V22.5686Z" fill="#3D3652"/>
  <path d="M3.15183 36.8275V36.4274C3.15183 34.1007 4.32761 32.5498 6.62908 32.5498C7.27942 32.5498 7.95492 32.6251 8.58009 32.8001L8.15485 34.8762C7.80463 34.8012 7.45441 34.7762 7.10419 34.7513C6.1288 34.7513 5.77858 35.3767 5.77858 36.3521V36.8025H8.02995V38.9288H5.77858V46.6333H3.1269V38.9288H1.82599V36.8025H3.15183V36.8275Z" fill="#3D3652"/>
  <path d="M13.7834 36.6023C14.3587 36.6023 14.934 36.6522 15.5095 36.7773L15.1341 38.9536C14.759 38.8285 14.3838 38.7786 14.0084 38.8036C13.4581 38.7786 12.9079 38.9035 12.4077 39.1288V46.6584H9.75597V37.4528C11.0317 36.8775 12.4077 36.6023 13.7834 36.6023Z" fill="#3D3652"/>
  <path fill-rule="evenodd" clip-rule="evenodd" d="M16.2345 41.7304C16.2345 44.8323 18.0855 46.8835 21.0373 46.8835C24.0143 46.8835 25.8404 44.8323 25.8152 41.7304C25.8152 38.6535 24.0143 36.6023 21.0373 36.6023C18.0855 36.6023 16.2345 38.6535 16.2345 41.7304ZM23.1134 41.7304C23.1134 43.5566 22.413 44.6822 21.0373 44.6822C19.6863 44.6822 18.936 43.5566 18.936 41.7304C18.936 39.9043 19.6863 38.7786 21.0373 38.7786C22.413 38.7786 23.1134 39.9292 23.1134 41.7304Z" fill="#3D3652"/>
  <path d="M39.624 46.6583V40.7298C39.624 39.4289 39.0988 38.7785 37.898 38.7785C37.2726 38.7785 36.6472 38.9538 36.1218 39.2289C36.2721 39.8292 36.372 40.4297 36.3471 41.0299V46.6334H33.7455V40.7298C33.7455 39.4289 33.2452 38.7785 32.0194 38.7785C31.469 38.7785 30.9438 38.9036 30.4684 39.1287V46.6583H27.8419V37.4527C29.2176 36.8774 30.6935 36.6022 32.1694 36.6022C33.145 36.5523 34.0957 36.8273 34.8712 37.4028C35.8466 36.9025 36.9224 36.6523 37.998 36.6022C40.7247 36.6022 42.2505 38.0282 42.2505 40.5545V46.6583H39.624Z" fill="#3D3652"/>
  <path d="M49.3793 46.6588V33.2007H57.5841V35.552H52.1309V39.2042H56.7087V41.5556H52.1309V46.6837H49.3793V46.6588Z" fill="#3D3652"/>
  <path d="M60.4615 33.2007H63.2132V46.6588H60.4615V33.2007Z" fill="#3D3652"/>
  <path d="M66.5652 43.7818C67.6909 44.232 68.8916 44.4822 70.0923 44.5072C71.5682 44.5072 72.3188 43.9568 72.3188 42.9563C72.3188 41.7555 71.4431 41.4053 69.6922 40.83C67.4907 40.0795 66.0649 39.054 66.0649 36.8026C66.0649 34.3511 67.741 32.9253 70.6928 32.9253C71.9434 32.9253 73.1692 33.1504 74.3199 33.6257L73.7695 35.902C72.844 35.5269 71.8683 35.3267 70.8678 35.3016C69.517 35.3016 68.8415 35.752 68.8415 36.7024C68.8415 37.7531 69.517 38.0784 71.0178 38.6036C73.2944 39.4042 75.0455 40.2547 75.0455 42.8812C75.0455 45.4579 73.0441 46.8336 70.1673 46.8336C68.7415 46.8587 67.3407 46.5836 66.0148 46.0332L66.5652 43.7818Z" fill="#3D3652"/>
</svg>